STARTFONT 2.1
COMMENT
COMMENT Converted from OpenType font "cmuntb.ttf" by "otf2bdf 3.0".
COMMENT
FONT -FreeType-CMU Typewriter Text-Bold-R-Normal--30-220-100-100-P-139-ISO10646-1
SIZE 22 100 100
FONTBOUNDINGBOX 30 39 -7 -12
STARTPROPERTIES 19
FOUNDRY "FreeType"
FAMILY_NAME "CMU Typewriter Text"
WEIGHT_NAME "Bold"
SLANT "R"
SETWIDTH_NAME "Normal"
ADD_STYLE_NAME ""
PIXEL_SIZE 30
POINT_SIZE 220
RESOLUTION_X 100
RESOLUTION_Y 100
SPACING "P"
AVERAGE_WIDTH 139
CHARSET_REGISTRY "ISO10646"
CHARSET_ENCODING "1"
FONT_ASCENT 27
FONT_DESCENT 13
COPYRIGHT "Converted by Andrey V. Panov from TeX fonts"
_OTF_FONTFILE "cmuntb.ttf"
_OTF_PSNAME "CMUTypewriter-Bold"
ENDPROPERTIES
CHARS 678
STARTCHAR 000D
ENCODING 13
SWIDTH 327 0
DWIDTH 10 0
BBX 0 0 0 0
BITMAP
ENDCHAR
STARTCHAR 0020
ENCODING 32
SWIDTH 523 0
DWIDTH 16 0
BBX 0 0 0 0
BITMAP
ENDCHAR
STARTCHAR 0021
ENCODING 33
SWIDTH 523 0
DWIDTH 16 0
BBX 4 19 6 0
BITMAP
70
F0
F0
F0
F0
F0
F0
F0
F0
F0
F0
70
00
00
70
F0
F0
F0
60
ENDCHAR
STARTCHAR 0022
ENCODING 34
SWIDTH 523 0
DWIDTH 16 0
BBX 8 9 4 10
BITMAP
C3
E3
E3
E3
E3
E3
E3
E3
C3
ENDCHAR
STARTCHAR 0023
ENCODING 35
SWIDTH 523 0
DWIDTH 16 0
BBX 14 19 1 0
BITMAP
0430
0E30
0E70
0C70
0C70
FFFC
FFFC
1C60
1C60
1C60
1CE0
18E0
FFFC
FFFC
18C0
18C0
38C0
38C0
30C0
ENDCHAR
STARTCHAR 0024
ENCODING 36
SWIDTH 523 0
DWIDTH 16 0
BBX 12 23 2 -2
BITMAP
0600
0600
1F80
7FE0
F670
E630
C630
C630
E600
7E00
7F80
1FE0
07E0
0670
4630
C630
C630
E630
7670
7FE0
1F80
0600
0600
ENDCHAR
STARTCHAR 0025
ENCODING 37
SWIDTH 523 0
DWIDTH 16 0
BBX 14 23 1 -2
BITMAP
7030
7838
D830
DC70
DC60
D8E0
F8E0
71C0
01C0
0180
0380
0380
0700
0700
0E00
0E38
0C7C
1C6C
1C6C
386C
386C
307C
3038
ENDCHAR
STARTCHAR 0026
ENCODING 38
SWIDTH 523 0
DWIDTH 16 0
BBX 14 19 1 0
BITMAP
0E00
1F00
3B00
3380
3380
337C
377C
3E70
1C60
3C60
7CE0
7CC0
EEC0
C7C0
C780
E38C
E7CC
7EFC
3C78
ENDCHAR
STARTCHAR 0027
ENCODING 39
SWIDTH 523 0
DWIDTH 16 0
BBX 2 9 7 10
BITMAP
C0
C0
C0
C0
C0
C0
C0
C0
C0
ENDCHAR
STARTCHAR 0028
ENCODING 40
SWIDTH 523 0
DWIDTH 16 0
BBX 8 25 5 -3
BITMAP
01
07
0F
1C
1C
38
70
70
60
E0
E0
E0
E0
E0
E0
E0
60
70
70
38
38
1C
0F
07
01
ENDCHAR
STARTCHAR 0029
ENCODING 41
SWIDTH 523 0
DWIDTH 16 0
BBX 8 24 3 -2
BITMAP
E0
70
38
1C
1C
0E
0E
07
07
07
07
07
07
07
07
07
06
0E
0C
1C
38
70
E0
80
ENDCHAR
STARTCHAR 002A
ENCODING 42
SWIDTH 523 0
DWIDTH 16 0
BBX 12 13 2 2
BITMAP
0600
0600
0600
E630
F6F0
3FC0
0F00
1FC0
7FF0
E670
4630
0600
0600
ENDCHAR
STARTCHAR 002B
ENCODING 43
SWIDTH 523 0
DWIDTH 16 0
BBX 14 14 1 2
BITMAP
0300
0300
0300
0300
0300
0300
FFFC
FFFC
0300
0300
0300
0300
0300
0300
ENDCHAR
STARTCHAR 002C
ENCODING 44
SWIDTH 523 0
DWIDTH 16 0
BBX 5 9 6 -4
BITMAP
60
F0
F8
F8
78
38
30
E0
C0
ENDCHAR
STARTCHAR 002D
ENCODING 45
SWIDTH 523 0
DWIDTH 16 0
BBX 10 2 3 6
BITMAP
FFC0
FFC0
ENDCHAR
STARTCHAR 002E
ENCODING 46
SWIDTH 523 0
DWIDTH 16 0
BBX 4 5 6 0
BITMAP
70
F0
F0
F0
60
ENDCHAR
STARTCHAR 002F
ENCODING 47
SWIDTH 523 0
DWIDTH 16 0
BBX 12 23 2 -2
BITMAP
0030
0030
0070
0060
00E0
00C0
01C0
0180
0380
0300
0700
0600
0E00
0E00
1C00
1C00
3800
3800
3000
7000
6000
E000
C000
ENDCHAR
STARTCHAR 0030
ENCODING 48
SWIDTH 523 0
DWIDTH 16 0
BBX 14 19 1 0
BITMAP
0780
1FE0
3870
3038
7038
6018
601C
E01C
E01C
E01C
E01C
E01C
601C
6018
7038
3038
3C70
1FE0
0780
ENDCHAR
STARTCHAR 0031
ENCODING 49
SWIDTH 523 0
DWIDTH 16 0
BBX 11 19 3 0
BITMAP
0600
0E00
0E00
1E00
FE00
EE00
0E00
0E00
0E00
0E00
0E00
0E00
0E00
0E00
0E00
0E00
0E00
FFE0
FFE0
ENDCHAR
STARTCHAR 0032
ENCODING 50
SWIDTH 523 0
DWIDTH 16 0
BBX 13 19 2 0
BITMAP
1F80
7FE0
E0F0
E070
C038
C038
0038
0030
0070
00E0
01E0
03C0
0780
0F00
1C00
7830
F038
FFF8
FFF0
ENDCHAR
STARTCHAR 0033
ENCODING 51
SWIDTH 523 0
DWIDTH 16 0
BBX 14 19 1 0
BITMAP
0FC0
3FF0
7878
7038
3038
0038
0038
00F0
07E0
0FF0
0078
0018
001C
001C
601C
E018
7038
3FF0
1FC0
ENDCHAR
STARTCHAR 0034
ENCODING 52
SWIDTH 523 0
DWIDTH 16 0
BBX 14 19 1 0
BITMAP
01E0
03E0
0360
0760
0E60
0E60
1C60
1860
3860
7060
7060
E060
FFFC
FFFC
0060
0060
0060
03FC
03FC
ENDCHAR
STARTCHAR 0035
ENCODING 53
SWIDTH 523 0
DWIDTH 16 0
BBX 13 19 2 0
BITMAP
7FE0
FFE0
E000
E000
E000
E000
E000
EF80
FFE0
F0F0
6070
0030
0038
0038
C030
C070
E0E0
7FE0
1F80
ENDCHAR
STARTCHAR 0036
ENCODING 54
SWIDTH 523 0
DWIDTH 16 0
BBX 14 19 1 0
BITMAP
03F0
0FF8
1E38
3818
7000
7000
6000
67E0
FFF0
F878
F038
E01C
601C
601C
701C
7038
3878
1FF0
0FC0
ENDCHAR
STARTCHAR 0037
ENCODING 55
SWIDTH 523 0
DWIDTH 16 0
BBX 14 20 1 0
BITMAP
E000
FFFC
FFFC
E038
0070
00E0
00C0
01C0
0380
0380
0300
0700
0600
0600
0E00
0E00
0E00
0E00
0E00
0C00
ENDCHAR
STARTCHAR 0038
ENCODING 56
SWIDTH 523 0
DWIDTH 16 0
BBX 14 19 1 0
BITMAP
0FC0
3FF0
7878
7038
6018
6018
7038
3878
1FE0
1FE0
3878
7018
E01C
E01C
E01C
701C
7878
3FF0
0FC0
ENDCHAR
STARTCHAR 0039
ENCODING 57
SWIDTH 523 0
DWIDTH 16 0
BBX 14 19 1 0
BITMAP
0FC0
3FE0
7870
7038
6018
E018
E01C
601C
703C
787C
3FFC
0F9C
0018
0018
0038
6070
70F0
3FC0
1F80
ENDCHAR
STARTCHAR 003A
ENCODING 58
SWIDTH 523 0
DWIDTH 16 0
BBX 4 14 6 0
BITMAP
70
F0
F0
F0
60
00
00
00
00
70
F0
F0
F0
60
ENDCHAR
STARTCHAR 003B
ENCODING 59
SWIDTH 523 0
DWIDTH 16 0
BBX 5 18 6 -4
BITMAP
70
F0
F0
F0
60
00
00
00
00
20
F0
F8
F8
78
38
30
F0
C0
ENDCHAR
STARTCHAR 003C
ENCODING 60
SWIDTH 523 0
DWIDTH 16 0
BBX 12 16 2 2
BITMAP
0070
00F0
03E0
0780
1F00
3C00
F800
E000
F800
3C00
1F00
0780
03E0
00F0
0070
0010
ENDCHAR
STARTCHAR 003D
ENCODING 61
SWIDTH 523 0
DWIDTH 16 0
BBX 14 7 1 6
BITMAP
FFFC
FFFC
0000
0000
0000
FFFC
FFFC
ENDCHAR
STARTCHAR 003E
ENCODING 62
SWIDTH 523 0
DWIDTH 16 0
BBX 13 16 2 2
BITMAP
E000
F000
3C00
1E00
0780
03C0
00F0
0078
00F0
03C0
0780
1E00
3C00
F000
E000
8000
ENDCHAR
STARTCHAR 003F
ENCODING 63
SWIDTH 523 0
DWIDTH 16 0
BBX 12 19 2 0
BITMAP
1FC0
7FE0
E070
E030
C070
01F0
03C0
0780
0700
0E00
0E00
0E00
0400
0000
0000
0E00
0E00
0E00
0E00
ENDCHAR
STARTCHAR 0040
ENCODING 64
SWIDTH 523 0
DWIDTH 16 0
BBX 14 19 1 0
BITMAP
03E0
0FF0
1C38
3818
71F8
63FC
671C
E61C
C60C
C60C
C60C
E61C
6718
63F8
71E0
3800
1C1C
0FF8
03E0
ENDCHAR
STARTCHAR 0041
ENCODING 65
SWIDTH 523 0
DWIDTH 16 0
BBX 14 19 1 0
BITMAP
0780
0780
0780
07C0
0FC0
0EC0
0EC0
0CC0
0CE0
1CE0
1CE0
1C60
1FF0
3FF0
3870
3830
3830
FCFC
FCFC
ENDCHAR
STARTCHAR 0042
ENCODING 66
SWIDTH 523 0
DWIDTH 16 0
BBX 14 19 1 0
BITMAP
FFE0
FFF0
3038
3038
3018
3018
3038
3070
3FE0
3FF0
3038
3018
301C
301C
301C
301C
3038
FFF8
FFE0
ENDCHAR
STARTCHAR 0043
ENCODING 67
SWIDTH 523 0
DWIDTH 16 0
BBX 14 19 1 0
BITMAP
07CC
1FFC
3C3C
381C
701C
600C
6000
E000
E000
E000
E000
E000
E000
700C
701C
381C
3C38
1FF0
07C0
ENDCHAR
STARTCHAR 0044
ENCODING 68
SWIDTH 523 0
DWIDTH 16 0
BBX 14 19 1 0
BITMAP
FFC0
FFE0
7070
7038
7038
701C
701C
701C
701C
701C
701C
701C
701C
701C
7038
7038
7070
FFE0
FFC0
ENDCHAR
STARTCHAR 0045
ENCODING 69
SWIDTH 523 0
DWIDTH 16 0
BBX 15 19 1 0
BITMAP
FFFC
FFFC
301C
301C
301C
3000
30C0
30E0
3FE0
3FE0
30E0
30C0
3000
300C
300E
300E
300E
FFFE
FFFC
ENDCHAR
STARTCHAR 0046
ENCODING 70
SWIDTH 523 0
DWIDTH 16 0
BBX 14 19 1 0
BITMAP
FFFC
FFFC
380C
380C
380C
3800
38E0
38E0
3FE0
3FE0
38E0
38E0
3800
3800
3800
3800
3800
FE00
FE00
ENDCHAR
STARTCHAR 0047
ENCODING 71
SWIDTH 523 0
DWIDTH 16 0
BBX 14 19 1 0
BITMAP
07D8
1FF8
3C78
7838
7038
6038
E000
E000
E000
E000
E000
E0FC
E0FC
6038
7038
7078
3C78
1FF8
0798
ENDCHAR
STARTCHAR 0048
ENCODING 72
SWIDTH 523 0
DWIDTH 16 0
BBX 15 19 1 0
BITMAP
FCFE
FCFE
7038
7038
7038
7038
7038
7038
7FF8
7FF8
7038
7038
7038
7038
7038
7038
7038
FCFE
FCFE
ENDCHAR
STARTCHAR 0049
ENCODING 73
SWIDTH 523 0
DWIDTH 16 0
BBX 12 19 2 0
BITMAP
FFF0
FFF0
0600
0600
0600
0600
0600
0600
0600
0600
0600
0600
0600
0600
0600
0600
0600
FFF0
FFF0
ENDCHAR
STARTCHAR 004A
ENCODING 74
SWIDTH 523 0
DWIDTH 16 0
BBX 13 19 2 0
BITMAP
0FF8
0FF8
00E0
00E0
00E0
00E0
00E0
00E0
00E0
00E0
00E0
00E0
00E0
00E0
00E0
60E0
E1C0
7FC0
3F00
ENDCHAR
STARTCHAR 004B
ENCODING 75
SWIDTH 523 0
DWIDTH 16 0
BBX 14 19 1 0
BITMAP
F8FC
F8FC
3070
30E0
31C0
3180
3380
3700
3F00
3F80
3D80
39C0
30C0
30E0
3060
3070
3030
FC7C
F87C
ENDCHAR
STARTCHAR 004C
ENCODING 76
SWIDTH 523 0
DWIDTH 16 0
BBX 14 19 1 0
BITMAP
FF00
FF00
3800
3800
3800
3800
3800
3800
3800
3800
3800
3800
3800
3800
380C
380C
380C
FFFC
FFFC
ENDCHAR
STARTCHAR 004D
ENCODING 77
SWIDTH 523 0
DWIDTH 16 0
BBX 16 19 0 0
BITMAP
F81F
FC1F
3C3C
3C3C
363C
366C
366C
366C
334C
33CC
33CC
31CC
318C
300C
300C
300C
300C
FC1F
FC1F
ENDCHAR
STARTCHAR 004E
ENCODING 78
SWIDTH 523 0
DWIDTH 16 0
BBX 14 19 1 0
BITMAP
F8FC
F8FC
3C38
3C38
3C38
3638
3638
3638
3338
3338
3338
31B8
31B8
31B8
30F8
30F8
30F8
FC78
FC70
ENDCHAR
STARTCHAR 004F
ENCODING 79
SWIDTH 523 0
DWIDTH 16 0
BBX 13 19 2 0
BITMAP
3FC0
7FF0
E070
E070
E030
C030
C030
C030
C030
C038
C030
C030
C030
C030
E030
E070
F070
7FF0
3FC0
ENDCHAR
STARTCHAR 0050
ENCODING 80
SWIDTH 523 0
DWIDTH 16 0
BBX 14 19 1 0
BITMAP
FFE0
FFF0
3038
301C
301C
301C
301C
301C
3038
3FF0
3FE0
3000
3000
3000
3000
3000
3000
FC00
FC00
ENDCHAR
STARTCHAR 0051
ENCODING 81
SWIDTH 523 0
DWIDTH 16 0
BBX 13 23 2 -4
BITMAP
3FC0
7FF0
E070
E070
E030
C030
C030
C030
C038
C038
C030
C030
C030
C030
E730
E770
E3F0
7FF0
3FE0
00E0
00E0
0070
0070
ENDCHAR
STARTCHAR 0052
ENCODING 82
SWIDTH 523 0
DWIDTH 16 0
BBX 15 19 1 0
BITMAP
FF80
FFE0
70F0
7070
7030
7030
7030
7070
70F0
7FE0
7FC0
70E0
7060
7070
7070
7076
7076
FC7E
FC1C
ENDCHAR
STARTCHAR 0053
ENCODING 83
SWIDTH 523 0
DWIDTH 16 0
BBX 13 19 2 0
BITMAP
1F30
7FF0
E0F0
C070
C070
C070
E000
F800
7F80
1FE0
03F0
0070
0038
C038
C038
E030
F070
FFE0
DFC0
ENDCHAR
STARTCHAR 0054
ENCODING 84
SWIDTH 523 0
DWIDTH 16 0
BBX 14 19 1 0
BITMAP
FFFC
FFFC
C30C
C30C
C30C
0300
0300
0300
0300
0300
0300
0300
0300
0300
0300
0300
0300
1FE0
1FE0
ENDCHAR
STARTCHAR 0055
ENCODING 85
SWIDTH 523 0
DWIDTH 16 0
BBX 16 19 0 0
BITMAP
FE7F
FE7F
380C
380C
380C
380C
380C
380C
380C
380C
380C
380C
380C
380C
381C
181C
1C38
0FF0
03E0
ENDCHAR
STARTCHAR 0056
ENCODING 86
SWIDTH 523 0
DWIDTH 16 0
BBX 15 19 1 0
BITMAP
FC7E
FC7E
7038
3038
3830
3870
3870
1870
1C60
1CE0
1CE0
0CE0
0CC0
0EC0
0FC0
07C0
0780
0780
0780
ENDCHAR
STARTCHAR 0057
ENCODING 87
SWIDTH 523 0
DWIDTH 16 0
BBX 16 19 0 0
BITMAP
FC1F
FC1F
300E
300C
300C
300C
300C
318C
31CC
1BCC
1BDC
1BD8
1BD8
1B78
1E78
1E78
1E78
0E78
0C30
ENDCHAR
STARTCHAR 0058
ENCODING 88
SWIDTH 523 0
DWIDTH 16 0
BBX 14 19 1 0
BITMAP
FDF8
FDF8
18E0
1CE0
0DC0
0FC0
0780
0780
0300
0780
0780
0FC0
0FC0
0CE0
1CE0
1860
3870
FCFC
FCFC
ENDCHAR
STARTCHAR 0059
ENCODING 89
SWIDTH 523 0
DWIDTH 16 0
BBX 15 19 1 0
BITMAP
FC7E
FC7E
3830
3870
1C70
1CE0
0CE0
0EC0
0FC0
0780
0780
0300
0300
0300
0300
0300
0300
0FC0
0FC0
ENDCHAR
STARTCHAR 005A
ENCODING 90
SWIDTH 523 0
DWIDTH 16 0
BBX 14 19 1 0
BITMAP
7FFC
7FFC
6038
6078
6070
00E0
01E0
01C0
0380
0380
0700
0E00
0E00
1C00
3C1C
381C
701C
FFFC
7FFC
ENDCHAR
STARTCHAR 005B
ENCODING 91
SWIDTH 523 0
DWIDTH 16 0
BBX 9 23 6 -2
BITMAP
7F80
FF80
E000
E000
E000
E000
E000
E000
E000
E000
E000
E000
E000
E000
E000
E000
E000
E000
E000
E000
E000
FF80
7F80
ENDCHAR
STARTCHAR 005C
ENCODING 92
SWIDTH 523 0
DWIDTH 16 0
BBX 12 24 2 -2
BITMAP
C000
E000
6000
7000
7000
3800
3800
1C00
1C00
0C00
0E00
0600
0700
0300
0380
0180
01C0
00C0
00E0
0060
0070
0030
0030
0010
ENDCHAR
STARTCHAR 005D
ENCODING 93
SWIDTH 523 0
DWIDTH 16 0
BBX 9 23 1 -2
BITMAP
FF80
FF80
0380
0380
0380
0380
0380
0380
0380
0380
0380
0380
0380
0380
0380
0380
0380
0380
0380
0380
0380
FF80
FF80
ENDCHAR
STARTCHAR 005E
ENCODING 94
SWIDTH 523 0
DWIDTH 16 0
BBX 12 3 2 13
BITMAP
1F80
FFF0
F0F0
ENDCHAR
STARTCHAR 005F
ENCODING 95
SWIDTH 523 0
DWIDTH 16 0
BBX 12 2 2 -4
BITMAP
FFF0
FFF0
ENDCHAR
STARTCHAR 0060
ENCODING 96
SWIDTH 523 0
DWIDTH 16 0
BBX 7 4 3 16
BITMAP
70
FE
7E
0E
ENDCHAR
STARTCHAR 0061
ENCODING 97
SWIDTH 523 0
DWIDTH 16 0
BBX 15 14 1 0
BITMAP
3F80
3FE0
3070
0070
0030
07F0
3FF0
7C30
7030
E030
6070
70F0
3FFE
1FBE
ENDCHAR
STARTCHAR 0062
ENCODING 98
SWIDTH 523 0
DWIDTH 16 0
BBX 15 19 0 0
BITMAP
F800
F800
1800
1800
1800
19F0
1FF8
1E1C
1C0E
180E
1806
1806
1806
1806
1C0E
1C0E
1E1C
1FF8
19E0
ENDCHAR
STARTCHAR 0063
ENCODING 99
SWIDTH 523 0
DWIDTH 16 0
BBX 12 14 2 0
BITMAP
0FE0
3FF0
7830
7000
E000
E000
E000
E000
E000
E000
7030
7870
3FE0
0FC0
ENDCHAR
STARTCHAR 0064
ENCODING 100
SWIDTH 523 0
DWIDTH 16 0
BBX 15 19 1 0
BITMAP
01F0
01F0
0030
0030
0030
0FB0
3FF0
78F0
7070
E030
E030
E030
E030
E030
E030
6070
78F0
3FFE
1F3E
ENDCHAR
STARTCHAR 0065
ENCODING 101
SWIDTH 523 0
DWIDTH 16 0
BBX 13 14 1 0
BITMAP
0FC0
1FF0
3870
7038
6038
6018
FFF8
FFF8
6000
7000
7018
3C38
1FF0
07E0
ENDCHAR
STARTCHAR 0066
ENCODING 102
SWIDTH 523 0
DWIDTH 16 0
BBX 13 19 1 0
BITMAP
01F0
07F8
0730
0600
0E00
FFF0
FFF0
0E00
0E00
0E00
0E00
0E00
0E00
0E00
0E00
0E00
0E00
FFE0
FFE0
ENDCHAR
STARTCHAR 0067
ENCODING 103
SWIDTH 523 0
DWIDTH 16 0
BBX 15 21 1 -7
BITMAP
0FBC
3FFE
78E4
7060
6070
6070
7060
78E0
3FC0
6F80
6000
7000
3FE0
7FF8
E01C
C00C
C00C
E00C
703C
7FF8
1FE0
ENDCHAR
STARTCHAR 0068
ENCODING 104
SWIDTH 523 0
DWIDTH 16 0
BBX 16 19 0 0
BITMAP
F800
F800
1800
1800
1800
19F0
1FF8
1E38
1C18
1C18
1818
1818
1818
1818
1818
1818
1818
FF7F
FF7F
ENDCHAR
STARTCHAR 0069
ENCODING 105
SWIDTH 523 0
DWIDTH 16 0
BBX 12 19 2 0
BITMAP
0F00
0F00
0000
0000
0000
7F00
7F00
0700
0700
0700
0700
0700
0700
0700
0700
0700
0700
FFF0
FFF0
ENDCHAR
STARTCHAR 006A
ENCODING 106
SWIDTH 523 0
DWIDTH 16 0
BBX 11 26 1 -7
BITMAP
01C0
01C0
0000
0000
0000
1FC0
1FE0
00E0
00E0
00E0
00E0
00E0
00E0
00E0
00E0
00E0
00E0
00E0
00E0
00E0
00E0
00C0
00C0
61C0
FF80
7E00
ENDCHAR
STARTCHAR 006B
ENCODING 107
SWIDTH 523 0
DWIDTH 16 0
BBX 15 19 1 0
BITMAP
F000
F000
3000
3000
3000
33FC
33FC
30E0
31C0
3380
3700
3F80
3F80
3DC0
38E0
3060
3070
FEFE
FEFE
ENDCHAR
STARTCHAR 006C
ENCODING 108
SWIDTH 523 0
DWIDTH 16 0
BBX 13 19 2 0
BITMAP
FE00
FE00
0600
0600
0600
0600
0600
0600
0600
0600
0600
0600
0600
0600
0600
0600
0600
FFF8
FFF8
ENDCHAR
STARTCHAR 006D
ENCODING 109
SWIDTH 523 0
DWIDTH 16 0
BBX 17 14 0 0
BITMAP
EF3C00
FFFC00
79CE00
71C600
718600
718600
718600
718600
718600
718600
718600
718600
FBEF80
FBEF80
ENDCHAR
STARTCHAR 006E
ENCODING 110
SWIDTH 523 0
DWIDTH 16 0
BBX 16 14 0 0
BITMAP
F9F0
FFF8
1E38
1C18
1C18
1818
1818
1818
1818
1818
1818
1818
FF7F
FF7F
ENDCHAR
STARTCHAR 006F
ENCODING 111
SWIDTH 523 0
DWIDTH 16 0
BBX 13 14 2 0
BITMAP
1F80
3FC0
70E0
E070
E030
C038
C038
C038
C038
E030
E070
70E0
3FC0
1F80
ENDCHAR
STARTCHAR 0070
ENCODING 112
SWIDTH 523 0
DWIDTH 16 0
BBX 15 21 0 -7
BITMAP
F9F0
FFF8
1E1C
1C0E
180E
1806
1806
1806
1806
1C0E
1C0E
1E1C
1FF8
19E0
1800
1800
1800
1800
1800
FF00
FF00
ENDCHAR
STARTCHAR 0071
ENCODING 113
SWIDTH 523 0
DWIDTH 16 0
BBX 16 21 1 -7
BITMAP
0F98
3FF8
7878
7038
E038
E038
E018
E018
E018
E038
7038
78F8
3FF8
0F98
0018
0018
0018
0018
0018
00FF
00FF
ENDCHAR
STARTCHAR 0072
ENCODING 114
SWIDTH 523 0
DWIDTH 16 0
BBX 14 14 1 0
BITMAP
FCF8
FDFC
1F8C
1F00
1E00
1E00
1C00
1C00
1C00
1C00
1C00
1C00
FFE0
FFE0
ENDCHAR
STARTCHAR 0073
ENCODING 115
SWIDTH 523 0
DWIDTH 16 0
BBX 12 14 2 0
BITMAP
1FE0
7FE0
70E0
E060
E060
F800
7F80
1FE0
01F0
E070
E030
F070
FFE0
DFC0
ENDCHAR
STARTCHAR 0074
ENCODING 116
SWIDTH 523 0
DWIDTH 16 0
BBX 13 18 1 0
BITMAP
0C00
1C00
1C00
1C00
FFF0
FFF0
1C00
1C00
1C00
1C00
1C00
1C00
1C00
0C38
0C38
0E38
0FF0
03C0
ENDCHAR
STARTCHAR 0075
ENCODING 117
SWIDTH 523 0
DWIDTH 16 0
BBX 16 14 0 0
BITMAP
F8F8
F8F8
1818
1818
1818
1818
1818
1818
1818
1818
1818
1C38
1FFF
0FDF
ENDCHAR
STARTCHAR 0076
ENCODING 118
SWIDTH 523 0
DWIDTH 16 0
BBX 14 14 1 0
BITMAP
FCFC
FCFC
3030
3830
3870
1860
1C60
1CE0
0CC0
0CC0
0FC0
0780
0780
0380
ENDCHAR
STARTCHAR 0077
ENCODING 119
SWIDTH 523 0
DWIDTH 16 0
BBX 15 14 1 0
BITMAP
FCFE
FCFE
6018
6018
3018
3338
33B0
37B0
37B0
37B0
36F0
1EF0
1CE0
1CE0
ENDCHAR
STARTCHAR 0078
ENCODING 120
SWIDTH 523 0
DWIDTH 16 0
BBX 14 14 1 0
BITMAP
FDFC
FDFC
1CE0
0CC0
0FC0
0780
0300
0380
0780
0CC0
0CE0
1860
FCFC
FCFC
ENDCHAR
STARTCHAR 0079
ENCODING 121
SWIDTH 523 0
DWIDTH 16 0
BBX 14 21 1 -7
BITMAP
FCFC
FCFC
3830
1830
1870
1C60
0C60
0CE0
0EC0
06C0
06C0
0380
0380
0380
0300
0300
0300
6600
EE00
FC00
7800
ENDCHAR
STARTCHAR 007A
ENCODING 122
SWIDTH 523 0
DWIDTH 16 0
BBX 14 14 1 0
BITMAP
7FFC
FFFC
E078
60F0
01E0
03C0
0780
0F00
1E00
1C1C
381C
701C
FFFC
FFFC
ENDCHAR
STARTCHAR 007B
ENCODING 123
SWIDTH 523 0
DWIDTH 16 0
BBX 13 23 2 -2
BITMAP
01F8
03F8
0700
0600
0600
0600
0600
0600
0600
0E00
FC00
FC00
0E00
0600
0600
0600
0600
0600
0600
0600
0700
03F8
01F8
ENDCHAR
STARTCHAR 007C
ENCODING 124
SWIDTH 523 0
DWIDTH 16 0
BBX 2 24 7 -2
BITMAP
C0
C0
C0
C0
C0
C0
C0
C0
C0
C0
C0
C0
C0
C0
C0
C0
C0
C0
C0
C0
C0
C0
C0
40
ENDCHAR
STARTCHAR 007D
ENCODING 125
SWIDTH 523 0
DWIDTH 16 0
BBX 13 23 2 -2
BITMAP
F800
FE00
0E00
0600
0600
0600
0600
0600
0600
0700
0780
03F8
03F8
0700
0600
0600
0600
0600
0600
0600
0E00
FE00
F800
ENDCHAR
STARTCHAR 007E
ENCODING 126
SWIDTH 523 0
DWIDTH 16 0
BBX 12 3 2 16
BITMAP
3C70
7FE0
E3C0
ENDCHAR
STARTCHAR 00A0
ENCODING 160
SWIDTH 523 0
DWIDTH 16 0
BBX 0 0 0 0
BITMAP
ENDCHAR
STARTCHAR 00A1
ENCODING 161
SWIDTH 523 0
DWIDTH 16 0
BBX 4 19 6 -7
BITMAP
70
F0
F0
F0
60
00
00
F0
F0
F0
F0
F0
F0
F0
F0
F0
F0
F0
70
ENDCHAR
STARTCHAR 00A2
ENCODING 162
SWIDTH 523 0
DWIDTH 16 0
BBX 14 20 1 -3
BITMAP
0180
0180
0180
07F8
1FFC
398C
7180
6180
E180
E180
E180
E180
E180
718C
399C
1FF8
0FF0
0180
0180
0180
ENDCHAR
STARTCHAR 00A3
ENCODING 163
SWIDTH 523 0
DWIDTH 16 0
BBX 15 19 1 0
BITMAP
01F0
03F8
0718
071C
061C
060C
0600
0600
0600
3FC0
3FC0
0600
0600
0600
0600
7E0E
7F8C
FFFC
78F8
ENDCHAR
STARTCHAR 00A5
ENCODING 165
SWIDTH 523 0
DWIDTH 16 0
BBX 15 19 1 0
BITMAP
FC7E
FC7E
3830
3870
1870
1CE0
1CE0
0EC0
FFFE
FFFE
0780
0300
FFFE
FFFE
0300
0300
0300
0FC0
0FC0
ENDCHAR
STARTCHAR 00A7
ENCODING 167
SWIDTH 523 0
DWIDTH 16 0
BBX 11 26 3 -7
BITMAP
1F00
7F80
E1C0
C0C0
80C0
C000
E000
F800
7E00
7F80
E3C0
C0C0
8060
C060
C0E0
F1C0
7F80
1F80
07C0
00C0
0060
C060
E060
E1C0
7F80
1F00
ENDCHAR
STARTCHAR 00A8
ENCODING 168
SWIDTH 523 0
DWIDTH 16 0
BBX 10 4 3 15
BITMAP
6180
F3C0
F3C0
6180
ENDCHAR
STARTCHAR 00A9
ENCODING 169
SWIDTH 523 0
DWIDTH 16 0
BBX 21 28 -2 -7
BITMAP
01F800
07FE00
0F0700
1C0380
3801C0
7000E0
700060
600070
E0F670
E3FE30
E79E30
C70E30
C60E38
CE0038
CE0038
CE0038
CE0030
C70E30
E78E30
E3FC70
60F870
700060
7000E0
3801C0
1C0380
0F0780
07FE00
01F800
ENDCHAR
STARTCHAR 00AA
ENCODING 170
SWIDTH 523 0
DWIDTH 16 0
BBX 15 15 1 6
BITMAP
1F80
3FC0
30E0
0060
1FE0
7FE0
70E0
71E0
7FFE
1F3E
0000
0000
0000
FFFC
FFFC
ENDCHAR
STARTCHAR 00AB
ENCODING 171
SWIDTH 523 0
DWIDTH 16 0
BBX 13 13 1 0
BITMAP
0338
0770
0EE0
1DC0
3B80
F700
EE00
7700
3B80
1DE0
0EF0
0778
0318
ENDCHAR
STARTCHAR 00AC
ENCODING 172
SWIDTH 523 0
DWIDTH 16 0
BBX 13 11 2 0
BITMAP
FFF8
FFF8
0038
0038
0038
0038
0038
0038
0038
0038
0018
ENDCHAR
STARTCHAR 00AD
ENCODING 173
SWIDTH 523 0
DWIDTH 16 0
BBX 10 2 3 6
BITMAP
FFC0
FFC0
ENDCHAR
STARTCHAR 00AE
ENCODING 174
SWIDTH 523 0
DWIDTH 16 0
BBX 21 28 -2 -7
BITMAP
01F800
07FE00
0F0780
1C03C0
3801C0
7000E0
700060
600070
EFF070
EFFC30
C71C30
C70C38
C71C38
C7FC38
C7F838
C71C38
C71C30
E71FB0
E71FB0
EFDFF0
6FCF70
7000E0
3000E0
3801C0
1C0380
0F0700
07FE00
01F800
ENDCHAR
STARTCHAR 00AF
ENCODING 175
SWIDTH 523 0
DWIDTH 16 0
BBX 12 2 2 17
BITMAP
FFF0
FFF0
ENDCHAR
STARTCHAR 00B0
ENCODING 176
SWIDTH 523 0
DWIDTH 16 0
BBX 10 9 3 10
BITMAP
1E00
7F80
7380
61C0
E1C0
61C0
7380
7F80
1E00
ENDCHAR
STARTCHAR 00B1
ENCODING 177
SWIDTH 523 0
DWIDTH 16 0
BBX 14 14 1 4
BITMAP
0300
0300
0300
0300
0300
0300
FFFC
FFFC
0300
0300
0300
0300
FFFC
FFFC
ENDCHAR
STARTCHAR 00B4
ENCODING 180
SWIDTH 523 0
DWIDTH 16 0
BBX 7 4 6 16
BITMAP
1E
FE
FC
60
ENDCHAR
STARTCHAR 00B5
ENCODING 181
SWIDTH 523 0
DWIDTH 16 0
BBX 16 21 0 -7
BITMAP
F8F8
F8F8
1818
1818
1818
1818
1818
1818
1818
1818
1818
1C38
1FFF
1FDF
1800
1800
1800
1800
1800
FF00
FF00
ENDCHAR
STARTCHAR 00B6
ENCODING 182
SWIDTH 523 0
DWIDTH 16 0
BBX 14 26 1 -7
BITMAP
0FFC
1FFC
3F30
7F30
7F30
7F30
FF30
FF30
7F30
7F30
7F30
3F30
3F30
0F30
0730
0730
0730
0730
0730
0730
0730
0730
0730
0730
1FFC
1FFC
ENDCHAR
STARTCHAR 00B7
ENCODING 183
SWIDTH 523 0
DWIDTH 16 0
BBX 4 4 6 5
BITMAP
60
F0
F0
60
ENDCHAR
STARTCHAR 00B8
ENCODING 184
SWIDTH 523 0
DWIDTH 16 0
BBX 8 9 4 -7
BITMAP
18
18
1E
1F
07
03
07
FF
FC
ENDCHAR
STARTCHAR 00BA
ENCODING 186
SWIDTH 523 0
DWIDTH 16 0
BBX 14 15 1 6
BITMAP
0FE0
3FF0
7838
E01C
E01C
E01C
E01C
7838
3FF0
0FC0
0000
0000
0000
FFFC
FFFC
ENDCHAR
STARTCHAR 00BB
ENCODING 187
SWIDTH 523 0
DWIDTH 16 0
BBX 13 13 2 0
BITMAP
E600
7700
3BC0
1DE0
0EF0
0738
03B8
0770
0EE0
1DC0
3B80
7700
E600
ENDCHAR
STARTCHAR 00BF
ENCODING 191
SWIDTH 523 0
DWIDTH 16 0
BBX 12 19 2 -7
BITMAP
0E00
0E00
0E00
0E00
0000
0000
0000
0E00
0E00
0E00
0E00
1C00
3C00
F000
E030
E030
E070
7FE0
3F80
ENDCHAR
STARTCHAR 00C0
ENCODING 192
SWIDTH 523 0
DWIDTH 16 0
BBX 14 24 1 0
BITMAP
1C00
1F80
0380
0000
0000
0780
0780
0780
07C0
0FC0
0EC0
0EC0
0CC0
0CE0
1CE0
1CE0
1C60
1FF0
3FF0
3870
3830
3830
FCFC
FCFC
ENDCHAR
STARTCHAR 00C1
ENCODING 193
SWIDTH 523 0
DWIDTH 16 0
BBX 14 24 1 0
BITMAP
01F0
07F0
0700
0000
0000
0780
0780
0780
07C0
0FC0
0EC0
0EC0
0CC0
0CE0
1CE0
1CE0
1C60
1FF0
3FF0
3870
3830
3830
FCFC
FCFC
ENDCHAR
STARTCHAR 00C2
ENCODING 194
SWIDTH 523 0
DWIDTH 16 0
BBX 14 27 1 0
BITMAP
0300
0780
0FC0
1DE0
38F0
3070
0000
0000
0780
0780
0780
07C0
0FC0
0EC0
0EC0
0CC0
0CE0
1CE0
1CE0
1C60
1FF0
3FF0
3870
3830
3830
FCFC
FCFC
ENDCHAR
STARTCHAR 00C3
ENCODING 195
SWIDTH 523 0
DWIDTH 16 0
BBX 14 26 1 0
BITMAP
1E18
3F38
73F0
60E0
0000
0000
0000
0780
0780
0780
07C0
0FC0
0EC0
0EC0
0CC0
0CE0
1CE0
1CE0
1C60
1FF0
3FF0
3870
3830
3830
FCFC
FCFC
ENDCHAR
STARTCHAR 00C4
ENCODING 196
SWIDTH 523 0
DWIDTH 16 0
BBX 14 25 1 0
BITMAP
1870
3CF0
3CF0
1870
0000
0000
0780
0780
0780
07C0
0FC0
0EC0
0EC0
0CC0
0CE0
1CE0
1CE0
1C60
1FF0
3FF0
3870
3830
3830
FCFC
FCFC
ENDCHAR
STARTCHAR 00C5
ENCODING 197
SWIDTH 523 0
DWIDTH 16 0
BBX 14 27 1 0
BITMAP
0780
0FC0
0CE0
0860
1860
0CE0
0FC0
0FC0
0780
0780
0780
07C0
0FC0
0EC0
0EC0
0CC0
0CE0
1CE0
1CE0
1C60
1FF0
3FF0
3870
3830
3830
FCFC
FCFC
ENDCHAR
STARTCHAR 00C6
ENCODING 198
SWIDTH 523 0
DWIDTH 16 0
BBX 14 19 1 0
BITMAP
1FFC
1FFC
0D8C
0D8C
0D8C
1980
1980
1980
19FC
19FC
3980
3F80
3F80
3180
318C
718C
718C
FBFC
FBFC
ENDCHAR
STARTCHAR 00C7
ENCODING 199
SWIDTH 523 0
DWIDTH 16 0
BBX 14 26 1 -7
BITMAP
07CC
1FFC
3C3C
381C
701C
601C
E000
E000
E000
E000
E000
E000
E000
701C
701C
381C
3C38
1FF0
0FE0
03C0
01E0
0070
0070
00E0
0FE0
0F80
ENDCHAR
STARTCHAR 00C8
ENCODING 200
SWIDTH 523 0
DWIDTH 16 0
BBX 15 24 1 0
BITMAP
0F00
0FC0
03C0
0000
0000
FFFC
FFFC
301C
301C
301C
3000
30C0
30E0
3FE0
3FE0
30E0
30C0
3000
300C
300E
300E
300E
FFFE
FFFC
ENDCHAR
STARTCHAR 00C9
ENCODING 201
SWIDTH 523 0
DWIDTH 16 0
BBX 15 24 1 0
BITMAP
01F0
07F0
0780
0000
0000
FFFC
FFFC
301C
301C
301C
3000
30C0
30E0
3FE0
3FE0
30E0
30C0
3000
300C
300E
300E
300E
FFFE
FFFC
ENDCHAR
STARTCHAR 00CA
ENCODING 202
SWIDTH 523 0
DWIDTH 16 0
BBX 15 27 1 0
BITMAP
0300
0780
0FC0
1EE0
3C70
3830
0000
0000
FFFC
FFFC
301C
301C
301C
3000
30C0
30E0
3FE0
3FE0
30E0
30C0
3000
300C
300E
300E
300E
FFFE
FFFC
ENDCHAR
STARTCHAR 00CB
ENCODING 203
SWIDTH 523 0
DWIDTH 16 0
BBX 15 25 1 0
BITMAP
1860
3CF0
3CF0
1860
0000
0000
FFFC
FFFC
301C
301C
301C
3000
30C0
30E0
3FE0
3FE0
30E0
30C0
3000
300C
300E
300E
300E
FFFE
FFFC
ENDCHAR
STARTCHAR 00CC
ENCODING 204
SWIDTH 523 0
DWIDTH 16 0
BBX 12 24 2 0
BITMAP
0F80
0FC0
03C0
0000
0000
FFF0
FFF0
0600
0600
0600
0600
0600
0600
0600
0600
0600
0600
0600
0600
0600
0600
0600
FFF0
FFF0
ENDCHAR
STARTCHAR 00CD
ENCODING 205
SWIDTH 523 0
DWIDTH 16 0
BBX 12 24 2 0
BITMAP
07C0
1FC0
1C00
0000
0000
FFF0
FFF0
0600
0600
0600
0600
0600
0600
0600
0600
0600
0600
0600
0600
0600
0600
0600
FFF0
FFF0
ENDCHAR
STARTCHAR 00CE
ENCODING 206
SWIDTH 523 0
DWIDTH 16 0
BBX 12 27 2 0
BITMAP
0600
0F00
1F80
3DC0
78E0
7060
0000
0000
FFF0
FFF0
0600
0600
0600
0600
0600
0600
0600
0600
0600
0600
0600
0600
0600
0600
0600
FFF0
FFF0
ENDCHAR
STARTCHAR 00CF
ENCODING 207
SWIDTH 523 0
DWIDTH 16 0
BBX 12 25 2 0
BITMAP
30C0
79E0
79E0
30C0
0000
0000
FFF0
FFF0
0600
0600
0600
0600
0600
0600
0600
0600
0600
0600
0600
0600
0600
0600
0600
FFF0
FFF0
ENDCHAR
STARTCHAR 00D0
ENCODING 208
SWIDTH 523 0
DWIDTH 16 0
BBX 14 19 1 0
BITMAP
FFC0
FFE0
7070
7038
7018
701C
701C
701C
FF1C
FF1C
701C
701C
701C
7018
7038
7038
7070
FFE0
FFC0
ENDCHAR
STARTCHAR 00D1
ENCODING 209
SWIDTH 523 0
DWIDTH 16 0
BBX 14 26 1 0
BITMAP
1E18
3F38
73F0
60E0
0000
0000
0000
F87C
F8FC
3C38
3C38
3C38
3638
3638
3638
3338
3338
3338
31B8
31B8
31B8
30F8
30F8
30F8
FC78
FC70
ENDCHAR
STARTCHAR 00D2
ENCODING 210
SWIDTH 523 0
DWIDTH 16 0
BBX 13 24 2 0
BITMAP
1C00
3F80
0380
0000
0000
7FF0
FFF0
E070
C030
C030
C030
C038
C038
C038
C038
C038
C038
C038
C030
C030
C030
E070
FFF0
7FF0
ENDCHAR
STARTCHAR 00D3
ENCODING 211
SWIDTH 523 0
DWIDTH 16 0
BBX 13 24 2 0
BITMAP
07C0
1FC0
0E00
0000
0000
7FF0
FFF0
E070
C030
C030
C030
C038
C038
C038
C038
C038
C038
C038
C030
C030
C030
E070
FFF0
7FF0
ENDCHAR
STARTCHAR 00D4
ENCODING 212
SWIDTH 523 0
DWIDTH 16 0
BBX 13 27 2 0
BITMAP
0600
0F00
1F80
3DC0
78E0
7060
0000
0000
3FC0
7FF0
E070
E070
E030
C030
C030
C030
C030
C038
C030
C030
C030
C030
E030
E070
F070
7FF0
3FC0
ENDCHAR
STARTCHAR 00D5
ENCODING 213
SWIDTH 523 0
DWIDTH 16 0
BBX 13 26 2 0
BITMAP
3C30
7E70
E7E0
C1C0
0000
0000
0000
3FC0
7FF0
E070
E070
E030
C030
C030
C030
C030
C038
C030
C030
C030
C030
E030
E070
F070
7FF0
3FC0
ENDCHAR
STARTCHAR 00D6
ENCODING 214
SWIDTH 523 0
DWIDTH 16 0
BBX 13 25 2 0
BITMAP
30E0
79E0
79E0
30C0
0000
0000
3FC0
7FF0
E070
E070
E030
C030
C030
C030
C030
C038
C030
C030
C030
C030
E030
E070
F070
7FF0
3FC0
ENDCHAR
STARTCHAR 00D8
ENCODING 216
SWIDTH 523 0
DWIDTH 16 0
BBX 13 23 2 -2
BITMAP
00C0
00C0
3FE0
7FF0
E1F0
C3B0
C3B0
C330
C330
C730
C738
C638
C630
CE30
CE30
CC30
CC30
DC30
F870
FFF0
7FE0
3800
3000
ENDCHAR
STARTCHAR 00D9
ENCODING 217
SWIDTH 523 0
DWIDTH 16 0
BBX 16 24 0 0
BITMAP
0700
07E0
00E0
0000
0000
FE7F
FE7F
380C
380C
380C
380C
380C
380C
380C
380C
380C
380C
380C
380C
381C
181C
1C38
0FF0
03E0
ENDCHAR
STARTCHAR 00DA
ENCODING 218
SWIDTH 523 0
DWIDTH 16 0
BBX 16 24 0 0
BITMAP
00F8
03F8
03C0
0000
0000
FE7F
FE7F
380C
380C
380C
380C
380C
380C
380C
380C
380C
380C
380C
380C
381C
181C
1C38
0FF0
03E0
ENDCHAR
STARTCHAR 00DB
ENCODING 219
SWIDTH 523 0
DWIDTH 16 0
BBX 16 27 0 0
BITMAP
0180
03C0
07E0
0F70
1E38
1C18
0000
0000
FE7F
FE7F
380C
380C
380C
380C
380C
380C
380C
380C
380C
380C
380C
380C
381C
181C
1C38
0FF0
03E0
ENDCHAR
STARTCHAR 00DC
ENCODING 220
SWIDTH 523 0
DWIDTH 16 0
BBX 16 25 0 0
BITMAP
0C38
1E38
1E78
0C30
0000
0000
FE7F
FE7F
380C
380C
380C
380C
380C
380C
380C
380C
380C
380C
380C
380C
381C
181C
1C38
0FF0
03E0
ENDCHAR
STARTCHAR 00DD
ENCODING 221
SWIDTH 523 0
DWIDTH 16 0
BBX 15 24 1 0
BITMAP
01F0
07F0
0700
0000
0000
FC7E
FC7E
3830
3870
1C70
1CE0
0CE0
0EC0
0FC0
0780
0780
0300
0300
0300
0300
0300
0300
0FC0
0FC0
ENDCHAR
STARTCHAR 00DE
ENCODING 222
SWIDTH 523 0
DWIDTH 16 0
BBX 14 19 1 0
BITMAP
FE00
FE00
3800
3FE0
3FF0
3838
3818
381C
381C
381C
3818
3838
3FF0
3FE0
3800
3800
3800
FE00
FE00
ENDCHAR
STARTCHAR 00DF
ENCODING 223
SWIDTH 523 0
DWIDTH 16 0
BBX 15 19 0 0
BITMAP
07F0
0FFC
1C1C
1C0C
1C0C
FC7C
FCF8
1CC0
1CC0
1CC0
1CF0
1CFC
1C3E
1C0E
1CC6
1CC6
1CCE
FCFC
FCF8
ENDCHAR
STARTCHAR 00E0
ENCODING 224
SWIDTH 523 0
DWIDTH 16 0
BBX 15 20 1 0
BITMAP
0700
07E0
07E0
00E0
0000
0000
3F80
3FE0
3070
0070
0030
07F0
3FF0
7C30
7030
E030
6070
70F0
3FFE
1F1E
ENDCHAR
STARTCHAR 00E1
ENCODING 225
SWIDTH 523 0
DWIDTH 16 0
BBX 15 20 1 0
BITMAP
01C0
0FC0
0F80
0800
0000
0000
3F80
3FE0
3070
0070
0030
07F0
3FF0
7C30
7030
E030
6070
70F0
3FFE
1F1E
ENDCHAR
STARTCHAR 00E2
ENCODING 226
SWIDTH 523 0
DWIDTH 16 0
BBX 15 22 1 0
BITMAP
0200
0F80
1FC0
7DE0
7060
0000
0000
0000
3F80
3FE0
3070
0070
0030
07F0
3FF0
7C30
7030
E030
6070
70F0
3FFE
1F1E
ENDCHAR
STARTCHAR 00E3
ENCODING 227
SWIDTH 523 0
DWIDTH 16 0
BBX 15 19 1 0
BITMAP
0F38
3FF0
39C0
0000
0000
3F80
3FE0
3070
0070
0030
07F0
3FF0
7C30
7030
E030
6070
70F0
3FFE
1F1E
ENDCHAR
STARTCHAR 00E4
ENCODING 228
SWIDTH 523 0
DWIDTH 16 0
BBX 15 19 1 0
BITMAP
1870
3C70
3C70
1870
0000
3F80
3FE0
3070
0070
0030
07F0
3FF0
7C30
7030
E030
6070
70F0
3FFE
1F1E
ENDCHAR
STARTCHAR 00E5
ENCODING 229
SWIDTH 523 0
DWIDTH 16 0
BBX 15 21 1 0
BITMAP
0F80
18C0
18C0
18C0
18C0
0F80
0000
3F80
3FE0
3070
0070
0030
07F0
3FF0
7C30
7030
E030
6070
70F0
3FFE
1F1E
ENDCHAR
STARTCHAR 00E6
ENCODING 230
SWIDTH 523 0
DWIDTH 16 0
BBX 15 14 1 0
BITMAP
7C70
FFF8
678C
038C
030C
030E
1FFE
7FFC
E300
C380
C386
E7CC
FFFC
7C78
ENDCHAR
STARTCHAR 00E7
ENCODING 231
SWIDTH 523 0
DWIDTH 16 0
BBX 12 21 2 -7
BITMAP
0FE0
3FF0
7830
7000
E000
E000
E000
E000
E000
E000
7030
7870
3FE0
0FC0
0380
03C0
00E0
00E0
00E0
1FC0
1F80
ENDCHAR
STARTCHAR 00E8
ENCODING 232
SWIDTH 523 0
DWIDTH 16 0
BBX 13 20 1 0
BITMAP
0700
07E0
07F0
00E0
0000
0000
0FC0
1FF0
3870
7038
6038
6018
FFF8
FFF8
6000
7000
7018
3C38
1FF0
07E0
ENDCHAR
STARTCHAR 00E9
ENCODING 233
SWIDTH 523 0
DWIDTH 16 0
BBX 13 20 1 0
BITMAP
0380
1FC0
1F80
0800
0000
0000
0FC0
1FF0
3870
7038
6038
6018
FFF8
FFF8
6000
7000
7018
3C38
1FF0
07E0
ENDCHAR
STARTCHAR 00EA
ENCODING 234
SWIDTH 523 0
DWIDTH 16 0
BBX 13 21 1 1
BITMAP
0780
1FE0
3CF0
3870
0000
0000
0000
0FC0
1FF0
3870
7038
6038
6018
FFF8
FFF8
6000
7000
7018
3C38
1FF0
07E0
ENDCHAR
STARTCHAR 00EB
ENCODING 235
SWIDTH 523 0
DWIDTH 16 0
BBX 13 19 1 0
BITMAP
3860
3CF0
38F0
3860
0000
0FC0
1FF0
3870
7038
7038
6018
FFF8
FFF8
6000
7000
7018
3C38
1FF0
07E0
ENDCHAR
STARTCHAR 00EC
ENCODING 236
SWIDTH 523 0
DWIDTH 16 0
BBX 12 20 2 0
BITMAP
1C00
3F80
1F80
0380
0000
0000
7F00
7F00
0700
0700
0700
0700
0700
0700
0700
0700
0700
0700
FFF0
FFF0
ENDCHAR
STARTCHAR 00ED
ENCODING 237
SWIDTH 523 0
DWIDTH 16 0
BBX 12 20 2 0
BITMAP
01C0
0FE0
0FC0
0000
0000
0000
7F00
7F00
0700
0700
0700
0700
0700
0700
0700
0700
0700
0700
FFF0
FFF0
ENDCHAR
STARTCHAR 00EE
ENCODING 238
SWIDTH 523 0
DWIDTH 16 0
BBX 12 22 2 0
BITMAP
0200
0F80
1FC0
7DF0
7060
0000
0000
0000
7F00
7F00
0700
0700
0700
0700
0700
0700
0700
0700
0700
0700
FFF0
FFF0
ENDCHAR
STARTCHAR 00EF
ENCODING 239
SWIDTH 523 0
DWIDTH 16 0
BBX 10 19 3 0
BITMAP
71C0
71C0
F1C0
71C0
0000
FE00
FE00
0E00
0E00
0E00
0E00
0E00
0E00
0E00
0E00
0E00
0E00
FFC0
FFC0
ENDCHAR
STARTCHAR 00F0
ENCODING 240
SWIDTH 523 0
DWIDTH 16 0
BBX 13 19 2 0
BITMAP
7200
FF00
7F00
1F80
03C0
1FE0
3FE0
70F0
E070
E030
C038
C038
C038
C030
E030
E070
70E0
3FE0
1F80
ENDCHAR
STARTCHAR 00F1
ENCODING 241
SWIDTH 523 0
DWIDTH 16 0
BBX 16 19 0 0
BITMAP
0798
1FF8
18E0
0000
0000
F9F0
FFF8
1E38
1C18
1C18
1818
1818
1818
1818
1818
1818
1818
FF7F
FF7F
ENDCHAR
STARTCHAR 00F2
ENCODING 242
SWIDTH 523 0
DWIDTH 16 0
BBX 13 20 2 0
BITMAP
1C00
1F80
1FC0
0380
0000
0000
1F80
3FC0
70E0
E070
E030
C038
C038
C038
C038
E030
E070
70E0
3FC0
1F80
ENDCHAR
STARTCHAR 00F3
ENCODING 243
SWIDTH 523 0
DWIDTH 16 0
BBX 13 20 2 0
BITMAP
0380
1F80
1F00
1000
0000
0000
1F80
3FC0
70E0
E070
E030
C038
C038
C038
C038
E030
E070
70E0
3FC0
1F80
ENDCHAR
STARTCHAR 00F4
ENCODING 244
SWIDTH 523 0
DWIDTH 16 0
BBX 13 22 2 0
BITMAP
0200
0F00
3FC0
79E0
70E0
0000
0000
0000
1F80
3FC0
70E0
E070
E030
C038
C038
C038
C038
E030
E070
70E0
3FC0
1F80
ENDCHAR
STARTCHAR 00F5
ENCODING 245
SWIDTH 523 0
DWIDTH 16 0
BBX 13 19 2 0
BITMAP
1E60
7FE0
6380
0000
0000
1F80
3FC0
70E0
E070
E030
C038
C038
C038
C038
E030
E070
70E0
3FC0
1F80
ENDCHAR
STARTCHAR 00F6
ENCODING 246
SWIDTH 523 0
DWIDTH 16 0
BBX 13 19 2 0
BITMAP
30E0
79E0
79E0
30C0
0000
1F80
3FC0
70E0
E070
E030
C038
C038
C038
C038
E030
E070
70E0
3FC0
1F80
ENDCHAR
STARTCHAR 00F7
ENCODING 247
SWIDTH 523 0
DWIDTH 16 0
BBX 14 15 1 2
BITMAP
0380
0780
0780
0380
0000
0000
0000
FFFC
FFFC
0000
0000
0380
0780
0780
0380
ENDCHAR
STARTCHAR 00F8
ENCODING 248
SWIDTH 523 0
DWIDTH 16 0
BBX 14 22 1 -4
BITMAP
000C
001C
0018
0038
0FF0
1FF0
38F8
70D8
61DC
C18C
C38C
C70C
C70C
EE1C
6E18
7C78
3FF0
3FC0
7000
7000
E000
C000
ENDCHAR
STARTCHAR 00F9
ENCODING 249
SWIDTH 523 0
DWIDTH 16 0
BBX 16 20 0 0
BITMAP
0700
07E0
07E0
00E0
0000
0000
F8F8
F8F8
1818
1818
1818
1818
1818
1818
1818
1818
1818
1C38
1FFF
0FDF
ENDCHAR
STARTCHAR 00FA
ENCODING 250
SWIDTH 523 0
DWIDTH 16 0
BBX 16 20 0 0
BITMAP
00E0
07E0
07C0
0400
0000
0000
F8F8
F8F8
1818
1818
1818
1818
1818
1818
1818
1818
1818
1C38
1FFF
0FDF
ENDCHAR
STARTCHAR 00FB
ENCODING 251
SWIDTH 523 0
DWIDTH 16 0
BBX 16 22 0 0
BITMAP
0080
03C0
0FF0
1E78
1C38
0000
0000
0000
F8F8
F8F8
1818
1818
1818
1818
1818
1818
1818
1818
1818
1C38
1FFF
0FDF
ENDCHAR
STARTCHAR 00FC
ENCODING 252
SWIDTH 523 0
DWIDTH 16 0
BBX 16 19 0 0
BITMAP
0C30
1E78
1E78
0C30
0000
F8F8
F8F8
1818
1818
1818
1818
1818
1818
1818
1818
1818
1C38
1FFF
0FDF
ENDCHAR
STARTCHAR 00FD
ENCODING 253
SWIDTH 523 0
DWIDTH 16 0
BBX 14 27 1 -7
BITMAP
00F0
03F0
07E0
0200
0000
0000
FCFC
FCFC
3830
1830
1870
1C60
0C60
0CE0
0EC0
06C0
06C0
0380
0380
0380
0300
0300
0300
6600
EE00
FC00
7800
ENDCHAR
STARTCHAR 00FE
ENCODING 254
SWIDTH 523 0
DWIDTH 16 0
BBX 15 26 0 -7
BITMAP
F800
F800
1800
1800
1800
19F0
1FF8
1E1C
1C0E
180E
1806
1806
1806
1806
1C0E
1C0E
1E1C
1FF8
19E0
1800
1800
1800
1800
1800
FF00
FF00
ENDCHAR
STARTCHAR 00FF
ENCODING 255
SWIDTH 523 0
DWIDTH 16 0
BBX 14 26 1 -7
BITMAP
1870
3CF0
3CF0
1860
0000
FCFC
FCFC
3830
1830
1870
1C60
0C60
0CE0
0EC0
06C0
06C0
0380
0380
0380
0300
0300
0300
6600
EE00
FC00
7800
ENDCHAR
STARTCHAR 0100
ENCODING 256
SWIDTH 523 0
DWIDTH 16 0
BBX 16 24 0 0
BITMAP
FFFF
FFFF
0000
0000
0000
03C0
03C0
03C0
03E0
07E0
0760
0760
0660
0670
0E70
0E70
0E30
0FF8
1FF8
1C38
1C18
1C18
7E7E
7E7E
ENDCHAR
STARTCHAR 0101
ENCODING 257
SWIDTH 523 0
DWIDTH 16 0
BBX 15 18 1 0
BITMAP
FFF0
FFF0
0000
0000
3F80
3FE0
3070
0070
0030
07F0
3FF0
7C30
7030
E030
6070
70F0
3FFE
1F1E
ENDCHAR
STARTCHAR 0102
ENCODING 258
SWIDTH 523 0
DWIDTH 16 0
BBX 14 26 1 0
BITMAP
6030
7030
7030
3870
1FE0
0F80
0000
0780
0780
0780
07C0
0FC0
0EC0
0EC0
0CC0
0CE0
1CE0
1CE0
1C60
1FF0
3FF0
3870
3830
3830
FCFC
FCFC
ENDCHAR
STARTCHAR 0103
ENCODING 259
SWIDTH 523 0
DWIDTH 16 0
BBX 15 21 1 0
BITMAP
3018
3038
3878
1FF0
0FC0
0000
0000
3F80
3FE0
3070
0070
0030
07F0
3FF0
7C30
7030
E030
6070
70F0
3FFE
1F1E
ENDCHAR
STARTCHAR 0104
ENCODING 260
SWIDTH 523 0
DWIDTH 16 0
BBX 15 26 1 -7
BITMAP
0780
0780
0780
07C0
0FC0
0EC0
0EC0
0CC0
0CE0
1CE0
1CE0
1C60
1FF0
3FF0
3870
3830
3830
FCFC
FCFC
0070
0060
00E0
00C0
00E6
007E
003C
ENDCHAR
STARTCHAR 0105
ENCODING 261
SWIDTH 523 0
DWIDTH 16 0
BBX 15 21 1 -7
BITMAP
3F80
3FE0
3070
0070
0030
07F0
3FF0
7C30
7030
E030
6070
70F0
3FFE
1F3E
0070
00E0
00C0
00C0
00C6
007E
003C
ENDCHAR
STARTCHAR 0106
ENCODING 262
SWIDTH 523 0
DWIDTH 16 0
BBX 14 24 1 0
BITMAP
01F0
07F0
0700
0000
0000
07CC
1FFC
3C3C
381C
701C
600C
6000
E000
E000
E000
E000
E000
E000
700C
701C
381C
3C38
1FF0
07C0
ENDCHAR
STARTCHAR 0107
ENCODING 263
SWIDTH 523 0
DWIDTH 16 0
BBX 12 20 2 0
BITMAP
01C0
0FC0
0FC0
0800
0000
0000
0FE0
3FF0
7830
7000
E000
E000
E000
E000
E000
E000
7030
7870
3FE0
0FC0
ENDCHAR
STARTCHAR 0108
ENCODING 264
SWIDTH 523 0
DWIDTH 16 0
BBX 14 27 1 0
BITMAP
0100
03C0
07E0
1EF0
1C78
1838
0000
0000
07CC
1FFC
3C3C
381C
701C
600C
6000
E000
E000
E000
E000
E000
E000
700C
701C
381C
3C38
1FF0
07C0
ENDCHAR
STARTCHAR 0109
ENCODING 265
SWIDTH 523 0
DWIDTH 16 0
BBX 12 22 2 0
BITMAP
0100
0780
1FE0
3EF0
3870
0000
0000
0000
0FE0
3FF0
7830
7000
E000
E000
E000
E000
E000
E000
7030
7870
3FE0
0FC0
ENDCHAR
STARTCHAR 010A
ENCODING 266
SWIDTH 523 0
DWIDTH 16 0
BBX 14 25 1 0
BITMAP
0380
0380
0380
0380
0000
0000
07CC
1FFC
3C3C
381C
701C
600C
6000
E000
E000
E000
E000
E000
E000
700C
701C
381C
3C38
1FF0
07C0
ENDCHAR
STARTCHAR 010B
ENCODING 267
SWIDTH 523 0
DWIDTH 16 0
BBX 12 19 2 0
BITMAP
0300
0780
0780
0300
0000
0FE0
3FF0
7830
7000
E000
E000
E000
E000
E000
E000
7030
7870
3FE0
0FC0
ENDCHAR
STARTCHAR 010C
ENCODING 268
SWIDTH 523 0
DWIDTH 16 0
BBX 14 25 1 0
BITMAP
0810
0C38
0670
07E0
03C0
0180
07CC
1FFC
3C3C
381C
701C
600C
6000
E000
E000
E000
E000
E000
E000
700C
701C
381C
3C38
1FF0
07C0
ENDCHAR
STARTCHAR 010D
ENCODING 269
SWIDTH 523 0
DWIDTH 16 0
BBX 12 21 2 0
BITMAP
3060
38C0
1D80
0F00
0600
0000
0000
0FE0
3FF0
7830
7000
E000
E000
E000
E000
E000
E000
7030
7870
3FE0
0FC0
ENDCHAR
STARTCHAR 010E
ENCODING 270
SWIDTH 523 0
DWIDTH 16 0
BBX 14 25 1 0
BITMAP
2040
38E0
1DC0
0F80
0F00
0600
FFC0
FFE0
7070
7038
7038
701C
701C
701C
701C
701C
701C
701C
701C
701C
7038
7038
7070
FFE0
FFC0
ENDCHAR
STARTCHAR 010F
ENCODING 271
SWIDTH 523 0
DWIDTH 16 0
BBX 16 20 1 0
BITMAP
001E
03DF
03DF
00CF
00CE
00DE
1ECC
3FC0
71C0
E1C0
E0C0
C0C0
C0C0
C0C0
C0C0
E0C0
E1C0
73C0
7FF8
1EF0
ENDCHAR
STARTCHAR 0110
ENCODING 272
SWIDTH 523 0
DWIDTH 16 0
BBX 14 19 1 0
BITMAP
FFC0
FFE0
7070
7038
7018
701C
701C
701C
FF1C
FF1C
701C
701C
701C
7018
7038
7038
7070
FFE0
FFC0
ENDCHAR
STARTCHAR 0111
ENCODING 273
SWIDTH 523 0
DWIDTH 16 0
BBX 15 19 1 0
BITMAP
01F0
01F0
0030
0030
1FFE
1FFE
0030
0030
1FB0
3FF0
7070
E030
E030
E030
E030
E030
70F0
3FFE
1F3E
ENDCHAR
STARTCHAR 0112
ENCODING 274
SWIDTH 523 0
DWIDTH 16 0
BBX 16 24 0 0
BITMAP
FFFF
FFFF
0000
0000
0000
7FFE
7FFE
180E
180E
180E
1800
1860
1870
1FF0
1FF0
1870
1860
1800
1806
1807
1807
1807
7FFF
7FFE
ENDCHAR
STARTCHAR 0113
ENCODING 275
SWIDTH 523 0
DWIDTH 16 0
BBX 13 18 1 0
BITMAP
3FF8
3FF8
0000
0000
0FC0
1FF0
3870
7038
6038
6018
FFF8
FFF8
6000
7000
7018
3C38
1FF0
07E0
ENDCHAR
STARTCHAR 0116
ENCODING 278
SWIDTH 523 0
DWIDTH 16 0
BBX 15 25 1 0
BITMAP
0300
0780
0780
0300
0000
0000
FFFC
FFFC
301C
301C
301C
3000
30C0
30E0
3FE0
3FE0
30E0
30C0
3000
300C
300E
300E
300E
FFFE
FFFC
ENDCHAR
STARTCHAR 0117
ENCODING 279
SWIDTH 523 0
DWIDTH 16 0
BBX 13 19 1 0
BITMAP
0380
0380
0380
0380
0000
0FC0
1FF0
3870
7038
6038
6018
FFF8
FFF8
6000
7000
7018
3C38
1FF0
07E0
ENDCHAR
STARTCHAR 0118
ENCODING 280
SWIDTH 523 0
DWIDTH 16 0
BBX 15 26 1 -7
BITMAP
FFFC
FFFC
301C
301C
301C
3000
30C0
30E0
3FE0
3FE0
30E0
30C0
3000
3000
300C
300E
300E
FFFE
FFFC
0070
00E0
00C0
01C0
00CC
00FC
0078
ENDCHAR
STARTCHAR 0119
ENCODING 281
SWIDTH 523 0
DWIDTH 16 0
BBX 13 21 1 -7
BITMAP
0FC0
1FF0
3870
7038
6038
6018
FFF8
FFF8
6000
7018
7838
3E78
1FF0
07E0
0380
0700
0600
0600
0670
07F0
01E0
ENDCHAR
STARTCHAR 011A
ENCODING 282
SWIDTH 523 0
DWIDTH 16 0
BBX 15 25 1 0
BITMAP
3060
38E0
1DC0
0F80
0700
0200
FFFC
FFFC
301C
301C
301C
3000
30C0
30E0
3FE0
3FE0
30E0
30C0
3000
300C
300E
300E
300E
FFFE
FFFC
ENDCHAR
STARTCHAR 011B
ENCODING 283
SWIDTH 523 0
DWIDTH 16 0
BBX 13 21 1 0
BITMAP
1830
1C60
0EC0
0780
0300
0000
0000
0FC0
1FF0
3870
7038
6038
6018
FFF8
FFF8
6000
7000
7018
3C38
1FF0
07E0
ENDCHAR
STARTCHAR 011C
ENCODING 284
SWIDTH 523 0
DWIDTH 16 0
BBX 14 27 1 0
BITMAP
0300
0780
0FC0
1FE0
38F0
3830
0000
0000
07D8
1FF8
3C78
7838
7038
6038
E000
E000
E000
E000
E000
E0FC
E0FC
6038
7038
7078
3C78
1FF8
0798
ENDCHAR
STARTCHAR 011D
ENCODING 285
SWIDTH 523 0
DWIDTH 16 0
BBX 15 29 1 -7
BITMAP
0200
0F00
3FC0
79E0
70E0
0000
0000
0000
0FBC
3FFE
78E4
7060
6070
6070
7060
78E0
3FC0
6F80
6000
7000
3FE0
7FF8
E01C
C00C
C00C
E00C
703C
7FF8
1FE0
ENDCHAR
STARTCHAR 011E
ENCODING 286
SWIDTH 523 0
DWIDTH 16 0
BBX 14 26 1 0
BITMAP
7018
7038
3030
3870
1FE0
0F80
0000
07F8
1FF8
3C18
3800
7000
6000
E000
E000
E000
E000
E000
E0FC
E0FC
6038
7038
7078
3C78
1FF8
0798
ENDCHAR
STARTCHAR 011F
ENCODING 287
SWIDTH 523 0
DWIDTH 16 0
BBX 15 28 1 -7
BITMAP
3018
7038
3870
1FF0
0FC0
0000
0000
0FBC
3FFE
78EC
7060
6070
6070
7060
78E0
3FC0
6F80
6000
7000
3FE0
7FF8
E01C
C00C
C00C
E00C
703C
7FF8
1FE0
ENDCHAR
STARTCHAR 0120
ENCODING 288
SWIDTH 523 0
DWIDTH 16 0
BBX 14 25 1 0
BITMAP
0300
0780
0780
0300
0000
0000
07D8
1FF8
3C78
7838
7038
6038
E000
E000
E000
E000
E000
E0FC
E0FC
6038
7038
7078
3C78
1FF8
0798
ENDCHAR
STARTCHAR 0121
ENCODING 289
SWIDTH 523 0
DWIDTH 16 0
BBX 15 26 1 -7
BITMAP
0600
0F00
0F00
0600
0000
0FBC
3FFE
78EC
7060
6070
6070
7060
78E0
3FC0
6F80
6000
7000
3FE0
7FF8
E01C
C00C
C00C
E00C
703C
7FF8
1FE0
ENDCHAR
STARTCHAR 0124
ENCODING 292
SWIDTH 523 0
DWIDTH 16 0
BBX 15 27 1 0
BITMAP
0300
0780
0FC0
1EE0
3C70
3830
0000
0000
FCFE
FCFE
7038
7038
7038
7038
7038
7038
7FF8
7FF8
7038
7038
7038
7038
7038
7038
7038
FCFE
FCFE
ENDCHAR
STARTCHAR 0125
ENCODING 293
SWIDTH 523 0
DWIDTH 16 0
BBX 16 27 0 0
BITMAP
0080
03C0
0FF0
1E78
1C38
0000
0000
0000
F800
F800
1800
1800
1800
19F0
1FF8
1E38
1C18
1C18
1818
1818
1818
1818
1818
1818
1818
FF7F
FF7F
ENDCHAR
STARTCHAR 012A
ENCODING 298
SWIDTH 523 0
DWIDTH 16 0
BBX 12 23 2 0
BITMAP
FFF0
FFF0
0000
0000
FFF0
FFF0
0600
0600
0600
0600
0600
0600
0600
0600
0600
0600
0600
0600
0600
0600
0600
FFF0
FFF0
ENDCHAR
STARTCHAR 012B
ENCODING 299
SWIDTH 523 0
DWIDTH 16 0
BBX 12 18 2 0
BITMAP
7FF0
7FF0
0000
0000
7F00
7F00
0700
0700
0700
0700
0700
0700
0700
0700
0700
0700
FFF0
FFF0
ENDCHAR
STARTCHAR 0130
ENCODING 304
SWIDTH 523 0
DWIDTH 16 0
BBX 12 26 2 0
BITMAP
0600
0F00
0F00
0600
0000
0000
0000
FFF0
FFF0
0600
0600
0600
0600
0600
0600
0600
0600
0600
0600
0600
0600
0600
0600
0600
FFF0
FFF0
ENDCHAR
STARTCHAR 0131
ENCODING 305
SWIDTH 523 0
DWIDTH 16 0
BBX 12 14 2 0
BITMAP
7F00
7F00
0700
0700
0700
0700
0700
0700
0700
0700
0700
0700
FFF0
FFF0
ENDCHAR
STARTCHAR 0134
ENCODING 308
SWIDTH 523 0
DWIDTH 16 0
BBX 14 27 2 0
BITMAP
0040
01E0
03F0
07B8
0F1C
0E0C
0000
0000
0FF8
0FF8
00E0
00E0
00E0
00E0
00E0
00E0
00E0
00E0
00E0
00E0
00E0
00E0
00E0
60E0
E1C0
7FC0
3F00
ENDCHAR
STARTCHAR 0135
ENCODING 309
SWIDTH 523 0
DWIDTH 16 0
BBX 14 29 1 -7
BITMAP
0040
01F0
03F8
0FBC
0E1C
0000
0000
0000
1FC0
1FE0
00E0
00E0
00E0
00E0
00E0
00E0
00E0
00E0
00E0
00E0
00E0
00E0
00E0
00E0
00C0
00C0
61C0
FF80
7E00
ENDCHAR
STARTCHAR 0139
ENCODING 313
SWIDTH 523 0
DWIDTH 16 0
BBX 14 24 1 0
BITMAP
3C00
FC00
E000
0000
0000
FF00
FF00
3800
3800
3800
3800
3800
3800
3800
3800
3800
3800
3800
3800
380C
380C
380C
FFFC
FFFC
ENDCHAR
STARTCHAR 013A
ENCODING 314
SWIDTH 523 0
DWIDTH 16 0
BBX 13 24 2 0
BITMAP
0780
1F80
1C00
0000
0000
FE00
FE00
0600
0600
0600
0600
0600
0600
0600
0600
0600
0600
0600
0600
0600
0600
0600
FFF8
FFF8
ENDCHAR
STARTCHAR 013D
ENCODING 317
SWIDTH 523 0
DWIDTH 16 0
BBX 14 24 1 0
BITMAP
01C0
03C0
03E0
03E0
03E0
FFE0
FFC0
3980
3800
3800
3800
3800
3800
3800
3800
3800
3800
3800
3800
380C
380C
380C
FFFC
FFFC
ENDCHAR
STARTCHAR 013E
ENCODING 318
SWIDTH 523 0
DWIDTH 16 0
BBX 15 20 2 0
BITMAP
003C
FE3E
FE3E
061E
061C
067C
0630
0600
0600
0600
0600
0600
0600
0600
0600
0600
0600
0600
FFF8
FFF8
ENDCHAR
STARTCHAR 0141
ENCODING 321
SWIDTH 523 0
DWIDTH 16 0
BBX 14 19 1 0
BITMAP
FF00
FF00
3800
3800
3980
3B80
3F80
3E00
3C00
7800
F800
F800
3800
3800
380C
380C
380C
FFFC
FFFC
ENDCHAR
STARTCHAR 0142
ENCODING 322
SWIDTH 523 0
DWIDTH 16 0
BBX 13 19 2 0
BITMAP
FE00
FE00
0600
0620
0670
07E0
07C0
0780
0F00
3E00
7E00
7600
6600
0600
0600
0600
0600
FFF8
FFF8
ENDCHAR
STARTCHAR 0143
ENCODING 323
SWIDTH 523 0
DWIDTH 16 0
BBX 14 24 1 0
BITMAP
03E0
0FE0
0E00
0000
0000
F87C
F8FC
3C38
3C38
3C38
3638
3638
3638
3338
3338
3338
31B8
31B8
31B8
30F8
30F8
30F8
FC78
FC70
ENDCHAR
STARTCHAR 0144
ENCODING 324
SWIDTH 523 0
DWIDTH 16 0
BBX 16 20 0 0
BITMAP
0070
03F0
03E0
0200
0000
0000
F9F0
FFF8
1E38
1C18
1C18
1818
1818
1818
1818
1818
1818
1818
FF7F
FF7F
ENDCHAR
STARTCHAR 0147
ENCODING 327
SWIDTH 523 0
DWIDTH 16 0
BBX 14 25 1 0
BITMAP
1020
1860
1CE0
0FC0
0780
0300
F87C
F8FC
3C38
3C38
3C38
3638
3638
3638
3338
3338
3338
31B8
31B8
31B8
30F8
30F8
30F8
FC78
FC70
ENDCHAR
STARTCHAR 0148
ENCODING 328
SWIDTH 523 0
DWIDTH 16 0
BBX 16 21 0 0
BITMAP
1020
18E0
0DC0
0780
0300
0000
0000
F9F0
FFF8
1E38
1C18
1C18
1818
1818
1818
1818
1818
1818
1818
FF7F
FF7F
ENDCHAR
STARTCHAR 0150
ENCODING 336
SWIDTH 523 0
DWIDTH 16 0
BBX 14 25 2 0
BITMAP
0400
3F7C
7FFC
39C0
0000
0000
7FF0
FFF0
E070
C030
C030
C030
C038
C038
C038
C038
C038
C038
C038
C030
C030
C030
E070
FFF0
7FF0
ENDCHAR
STARTCHAR 0151
ENCODING 337
SWIDTH 523 0
DWIDTH 16 0
BBX 14 20 2 0
BITMAP
061C
7FFC
7EFC
20C0
0000
0000
1F80
3FC0
70E0
E070
E030
C038
C038
C038
C038
E030
E070
70E0
3FC0
1F80
ENDCHAR
STARTCHAR 0152
ENCODING 338
SWIDTH 523 0
DWIDTH 16 0
BBX 15 19 1 0
BITMAP
3FFC
7FFC
E18C
C18C
C18C
C180
C180
C180
C1FC
C1FC
C180
C180
C180
C180
C186
C18E
E18E
7FFE
3FFC
ENDCHAR
STARTCHAR 0153
ENCODING 339
SWIDTH 523 0
DWIDTH 16 0
BBX 15 14 1 0
BITMAP
3C78
7EFC
E7CC
C38C
C38E
C18E
C1FE
C1FE
C180
C380
C3C6
E7CC
7EFC
3C78
ENDCHAR
STARTCHAR 0154
ENCODING 340
SWIDTH 523 0
DWIDTH 16 0
BBX 15 24 1 0
BITMAP
03E0
0FE0
0E00
0000
0000
FF80
FFE0
70F0
7070
7030
7030
7030
7070
70F0
7FE0
7FC0
70E0
7060
7070
7070
7076
7076
FC7E
FC3C
ENDCHAR
STARTCHAR 0155
ENCODING 341
SWIDTH 523 0
DWIDTH 16 0
BBX 14 20 1 0
BITMAP
01E0
07E0
0FC0
0400
0000
0000
FCF8
FDFC
1F8C
1F00
1E00
1E00
1C00
1C00
1C00
1C00
1C00
1C00
FFE0
FFE0
ENDCHAR
STARTCHAR 0158
ENCODING 344
SWIDTH 523 0
DWIDTH 16 0
BBX 15 25 1 0
BITMAP
2040
70C0
3980
1F80
0F00
0600
FF80
FFE0
70F0
7070
7030
7030
7030
7070
70F0
7FE0
7FC0
70E0
7060
7070
7070
7076
7076
FC7E
FC3C
ENDCHAR
STARTCHAR 0159
ENCODING 345
SWIDTH 523 0
DWIDTH 16 0
BBX 14 21 1 0
BITMAP
0810
0C30
0660
03C0
0180
0000
0000
FCF8
FDFC
1F8C
1F00
1E00
1E00
1C00
1C00
1C00
1C00
1C00
1C00
FFE0
FFE0
ENDCHAR
STARTCHAR 015A
ENCODING 346
SWIDTH 523 0
DWIDTH 16 0
BBX 13 24 2 0
BITMAP
0F80
3F80
3C00
0000
0000
1F30
7FF0
E0F0
C070
C070
C070
E000
F800
7F80
1FE0
03F0
0070
0038
C038
C038
E030
F070
FFE0
DFC0
ENDCHAR
STARTCHAR 015B
ENCODING 347
SWIDTH 523 0
DWIDTH 16 0
BBX 12 20 2 0
BITMAP
0380
1FC0
1F80
0800
0000
0000
1FE0
7FE0
60E0
E060
F060
7F00
7FC0
1FE0
00F0
E030
E030
F070
FFE0
DFC0
ENDCHAR
STARTCHAR 015C
ENCODING 348
SWIDTH 523 0
DWIDTH 16 0
BBX 13 27 2 0
BITMAP
0400
1E00
3F00
7B80
F1C0
E0C0
0000
0000
1F30
7FF0
E0F0
C070
C070
C070
E000
F800
7F80
1FE0
03F0
0070
0038
C038
C038
E030
F070
FFE0
DFC0
ENDCHAR
STARTCHAR 015D
ENCODING 349
SWIDTH 523 0
DWIDTH 16 0
BBX 12 22 2 0
BITMAP
0200
0F00
3FC0
79E0
70E0
0000
0000
0000
1FE0
7FE0
70E0
E060
E060
F800
7F80
1FE0
01F0
E070
E030
F070
FFE0
DFC0
ENDCHAR
STARTCHAR 015E
ENCODING 350
SWIDTH 523 0
DWIDTH 16 0
BBX 13 26 2 -7
BITMAP
1F30
7FF0
E0F0
C070
C070
C070
E000
FC00
7FC0
1FE0
03F0
0070
0038
C038
C038
E030
F070
FFE0
DFC0
0380
03C0
00E0
00E0
00E0
1FC0
1F80
ENDCHAR
STARTCHAR 015F
ENCODING 351
SWIDTH 523 0
DWIDTH 16 0
BBX 12 21 2 -7
BITMAP
1FE0
7FE0
E0E0
E060
F060
7F80
7FE0
1FF0
00F0
E030
E030
F070
FFE0
DFC0
0780
07C0
01E0
00E0
01C0
3FC0
3F00
ENDCHAR
STARTCHAR 0160
ENCODING 352
SWIDTH 523 0
DWIDTH 16 0
BBX 13 25 2 0
BITMAP
2040
30C0
39C0
1F80
0F00
0600
1F30
7FF0
E0F0
C070
C070
C070
E000
F800
7F80
1FE0
03F0
0070
0038
C038
C038
E030
F070
FFE0
DFC0
ENDCHAR
STARTCHAR 0161
ENCODING 353
SWIDTH 523 0
DWIDTH 16 0
BBX 12 21 2 0
BITMAP
60C0
31C0
1B80
0F00
0600
0000
0000
1FE0
7FE0
E0E0
E060
F060
7F00
3FC0
1FE0
00F0
E030
E030
F070
FFE0
DFC0
ENDCHAR
STARTCHAR 0162
ENCODING 354
SWIDTH 523 0
DWIDTH 16 0
BBX 14 26 1 -7
BITMAP
FFFC
FFFC
C30C
C30C
C30C
0300
0300
0300
0300
0300
0300
0300
0300
0300
0300
0300
0300
1FE0
1FE0
03C0
03E0
01E0
00E0
00E0
1FE0
1F80
ENDCHAR
STARTCHAR 0163
ENCODING 355
SWIDTH 523 0
DWIDTH 16 0
BBX 13 25 1 -7
BITMAP
0C00
1C00
1C00
1C00
FFF0
FFF0
1C00
1C00
1C00
1C00
1C00
1C00
1C18
1C38
0C38
0E70
0FF0
07C0
01E0
01F0
0038
0038
0078
0FF0
0FC0
ENDCHAR
STARTCHAR 0164
ENCODING 356
SWIDTH 523 0
DWIDTH 16 0
BBX 14 25 1 0
BITMAP
1020
1870
1CE0
0FC0
0780
0300
FFFC
FFFC
C30C
C30C
C30C
0300
0300
0300
0300
0300
0300
0300
0300
0300
0300
0300
0300
1FE0
1FE0
ENDCHAR
STARTCHAR 0165
ENCODING 357
SWIDTH 523 0
DWIDTH 16 0
BBX 14 21 1 0
BITMAP
0078
007C
007C
0C3C
1C1C
1C78
1C70
FFF0
FFF0
1C00
1C00
1C00
1C00
1C00
1C00
1C00
0C38
0C38
0E38
0FF0
07C0
ENDCHAR
STARTCHAR 016A
ENCODING 362
SWIDTH 523 0
DWIDTH 16 0
BBX 16 24 0 0
BITMAP
FFFF
FFFF
0000
0000
0000
FE7F
FE7F
380C
380C
380C
380C
380C
380C
380C
380C
380C
380C
380C
380C
381C
181C
1C38
0FF0
03E0
ENDCHAR
STARTCHAR 016B
ENCODING 363
SWIDTH 523 0
DWIDTH 16 0
BBX 16 18 0 0
BITMAP
3FFC
3FFC
0000
0000
F8F8
F8F8
1818
1818
1818
1818
1818
1818
1818
1818
1818
1C38
1FFF
0FDF
ENDCHAR
STARTCHAR 016C
ENCODING 364
SWIDTH 523 0
DWIDTH 16 0
BBX 16 26 0 0
BITMAP
180C
381C
181C
1C38
0FF0
03E0
0000
FE7F
FE7F
380C
380C
380C
380C
380C
380C
380C
380C
380C
380C
380C
380C
381C
181C
1C38
0FF0
03E0
ENDCHAR
STARTCHAR 016D
ENCODING 365
SWIDTH 523 0
DWIDTH 16 0
BBX 16 21 0 0
BITMAP
380C
381C
1C38
0FF8
07E0
0000
0000
F8F8
F8F8
1818
1818
1818
1818
1818
1818
1818
1818
1818
1C38
1FFF
0FDF
ENDCHAR
STARTCHAR 016E
ENCODING 366
SWIDTH 523 0
DWIDTH 16 0
BBX 16 27 0 0
BITMAP
03C0
07E0
0660
0430
0430
0430
0660
07E0
FFFF
FE3F
380C
380C
380C
380C
380C
380C
380C
380C
380C
380C
380C
380C
381C
181C
1C38
0FF0
03E0
ENDCHAR
STARTCHAR 016F
ENCODING 367
SWIDTH 523 0
DWIDTH 16 0
BBX 16 21 0 0
BITMAP
03C0
0660
0620
0620
0660
03C0
0000
F8F8
F8F8
1818
1818
1818
1818
1818
1818
1818
1818
1818
1C38
1FFF
0FDF
ENDCHAR
STARTCHAR 0170
ENCODING 368
SWIDTH 523 0
DWIDTH 16 0
BBX 16 24 0 0
BITMAP
078F
1FBF
1C38
0000
0000
FE7F
FE7F
380C
380C
380C
380C
380C
380C
380C
380C
380C
380C
380C
380C
381C
181C
1C38
0FF0
03E0
ENDCHAR
STARTCHAR 0171
ENCODING 369
SWIDTH 523 0
DWIDTH 16 0
BBX 16 20 0 0
BITMAP
0387
1FFF
1FBE
0800
0000
0000
F8F8
F8F8
1818
1818
1818
1818
1818
1818
1818
1818
1818
1C38
1FFF
0FDF
ENDCHAR
STARTCHAR 0178
ENCODING 376
SWIDTH 523 0
DWIDTH 16 0
BBX 15 25 1 0
BITMAP
1870
3CF0
3CF0
1870
0000
0000
FC7E
FC7E
3830
3870
1C70
1CE0
0CE0
0EC0
0FC0
0780
0780
0300
0300
0300
0300
0300
0300
0FC0
0FC0
ENDCHAR
STARTCHAR 0179
ENCODING 377
SWIDTH 523 0
DWIDTH 16 0
BBX 14 24 1 0
BITMAP
03E0
0FE0
0700
0000
0000
7FFC
7FFC
6038
6078
6070
00E0
01E0
01C0
0380
0380
0700
0E00
0E00
1C00
3C1C
381C
701C
FFFC
7FFC
ENDCHAR
STARTCHAR 017A
ENCODING 378
SWIDTH 523 0
DWIDTH 16 0
BBX 14 20 1 0
BITMAP
01C0
0FE0
0FC0
0400
0000
0000
7FFC
FFFC
E078
60F0
01E0
03C0
0780
0F00
1E00
3C1C
781C
F01C
FFFC
FFFC
ENDCHAR
STARTCHAR 017B
ENCODING 379
SWIDTH 523 0
DWIDTH 16 0
BBX 14 26 1 0
BITMAP
0180
03C0
03C0
0180
0000
0000
0000
7FFC
7FFC
6038
6078
6070
00E0
01E0
01C0
0380
0380
0700
0E00
0E00
1C00
3C1C
381C
701C
FFFC
7FFC
ENDCHAR
STARTCHAR 017C
ENCODING 380
SWIDTH 523 0
DWIDTH 16 0
BBX 14 19 1 0
BITMAP
0380
0380
0380
0380
0000
7FF8
FFFC
E078
60F0
01E0
03C0
0780
0F00
1E00
3C1C
781C
F01C
FFFC
FFFC
ENDCHAR
STARTCHAR 017D
ENCODING 381
SWIDTH 523 0
DWIDTH 16 0
BBX 14 25 1 0
BITMAP
1020
1870
0EE0
07C0
0780
0300
7FFC
7FFC
6038
6078
6070
00E0
01E0
01C0
0380
0380
0700
0E00
0E00
1C00
3C1C
381C
701C
FFFC
7FFC
ENDCHAR
STARTCHAR 017E
ENCODING 382
SWIDTH 523 0
DWIDTH 16 0
BBX 14 21 1 0
BITMAP
1020
1860
0EC0
0780
0300
0000
0000
7FFC
FFFC
E078
60F0
01E0
03C0
0780
0F00
1E00
3C1C
781C
F01C
FFFC
FFFC
ENDCHAR
STARTCHAR 0192
ENCODING 402
SWIDTH 523 0
DWIDTH 16 0
BBX 16 26 0 -7
BITMAP
003F
007F
0063
0060
00E0
07FE
07FE
00C0
00C0
01C0
01C0
01C0
01C0
0180
0180
0380
0380
0380
0300
0300
0300
0700
0600
EE00
FC00
7800
ENDCHAR
STARTCHAR 0218
ENCODING 536
SWIDTH 523 0
DWIDTH 16 0
BBX 13 27 2 -8
BITMAP
1F30
7FF0
E0F0
C070
C070
C070
E000
F800
7F80
1FE0
03F0
0070
0038
C038
C038
E030
F070
FFE0
DFC0
0000
0000
0600
0F00
0700
0300
0E00
0C00
ENDCHAR
STARTCHAR 0219
ENCODING 537
SWIDTH 523 0
DWIDTH 16 0
BBX 12 22 2 -8
BITMAP
1FE0
7FE0
70E0
E060
E060
F800
7F80
1FE0
01F0
E070
E030
F070
FFE0
DFC0
0000
0000
0600
0700
0700
0300
0E00
0C00
ENDCHAR
STARTCHAR 021A
ENCODING 538
SWIDTH 523 0
DWIDTH 16 0
BBX 14 27 1 -8
BITMAP
FFFC
FFFC
C30C
C30C
C30C
0300
0300
0300
0300
0300
0300
0300
0300
0300
0300
0300
0300
1FE0
1FE0
0000
0000
0300
0780
0380
0180
0700
0600
ENDCHAR
STARTCHAR 021B
ENCODING 539
SWIDTH 523 0
DWIDTH 16 0
BBX 13 26 1 -8
BITMAP
0C00
1C00
1C00
1C00
FFF0
FFF0
1C00
1C00
1C00
1C00
1C00
1C00
1C00
0C38
0C38
0E38
0FF0
03C0
0000
0000
0700
0700
0700
0300
0700
0600
ENDCHAR
STARTCHAR 02C6
ENCODING 710
SWIDTH 523 0
DWIDTH 16 0
BBX 10 5 3 17
BITMAP
0C00
3F00
7FC0
F3C0
C0C0
ENDCHAR
STARTCHAR 02C7
ENCODING 711
SWIDTH 523 0
DWIDTH 16 0
BBX 9 5 4 16
BITMAP
C180
E300
7600
3C00
1800
ENDCHAR
STARTCHAR 02D8
ENCODING 728
SWIDTH 523 0
DWIDTH 16 0
BBX 12 5 2 16
BITMAP
E030
E070
70E0
3FE0
1F80
ENDCHAR
STARTCHAR 02D9
ENCODING 729
SWIDTH 523 0
DWIDTH 16 0
BBX 4 4 7 15
BITMAP
60
F0
F0
60
ENDCHAR
STARTCHAR 02DA
ENCODING 730
SWIDTH 523 0
DWIDTH 16 0
BBX 6 6 5 15
BITMAP
78
4C
CC
CC
4C
78
ENDCHAR
STARTCHAR 02DB
ENCODING 731
SWIDTH 523 0
DWIDTH 16 0
BBX 8 8 5 -6
BITMAP
06
1E
3C
78
F3
E7
7E
3C
ENDCHAR
STARTCHAR 02DC
ENCODING 732
SWIDTH 523 0
DWIDTH 16 0
BBX 10 3 3 16
BITMAP
3CC0
FFC0
C700
ENDCHAR
STARTCHAR 02DD
ENCODING 733
SWIDTH 523 0
DWIDTH 16 0
BBX 13 4 3 16
BITMAP
1C08
FDF8
F9F8
C1C0
ENDCHAR
STARTCHAR 0374
ENCODING 884
SWIDTH 523 0
DWIDTH 16 0
BBX 4 4 5 15
BITMAP
60
70
E0
C0
ENDCHAR
STARTCHAR 0375
ENCODING 885
SWIDTH 523 0
DWIDTH 16 0
BBX 4 4 6 -4
BITMAP
30
70
E0
60
ENDCHAR
STARTCHAR 037A
ENCODING 890
SWIDTH 523 0
DWIDTH 16 0
BBX 2 4 7 -6
BITMAP
C0
C0
C0
C0
ENDCHAR
STARTCHAR 037E
ENCODING 894
SWIDTH 523 0
DWIDTH 16 0
BBX 5 18 6 -4
BITMAP
70
F0
F0
F0
60
00
00
00
00
60
F0
F0
F8
78
30
70
E0
C0
ENDCHAR
STARTCHAR 0384
ENCODING 900
SWIDTH 523 0
DWIDTH 16 0
BBX 4 4 6 15
BITMAP
30
70
E0
C0
ENDCHAR
STARTCHAR 0385
ENCODING 901
SWIDTH 523 0
DWIDTH 16 0
BBX 8 4 4 15
BITMAP
0C
1C
DF
D3
ENDCHAR
STARTCHAR 0386
ENCODING 902
SWIDTH 523 0
DWIDTH 16 0
BBX 15 20 1 0
BITMAP
0380
63C0
73C0
E7C0
C7C0
06E0
06E0
06E0
0E60
0E60
0E70
0C70
0C70
1FF0
1FF0
1838
1838
3838
7E7E
7E7E
ENDCHAR
STARTCHAR 0387
ENCODING 903
SWIDTH 523 0
DWIDTH 16 0
BBX 4 5 6 9
BITMAP
70
F0
F0
F0
60
ENDCHAR
STARTCHAR 0388
ENCODING 904
SWIDTH 523 0
DWIDTH 16 0
BBX 19 19 -3 0
BITMAP
0FFFC0
3FFFE0
7380E0
E380E0
0380C0
038000
038600
038600
03FE00
03FE00
038600
038600
038000
038060
038060
038060
038060
0FFFE0
0FFFE0
ENDCHAR
STARTCHAR 0389
ENCODING 905
SWIDTH 523 0
DWIDTH 16 0
BBX 19 19 -3 0
BITMAP
0FE7E0
3FE7E0
738180
E38180
038180
038180
038180
038180
03FF80
03FF80
038180
038180
038180
038180
038180
038180
038180
0FE7E0
0FE7E0
ENDCHAR
STARTCHAR 038A
ENCODING 906
SWIDTH 523 0
DWIDTH 16 0
BBX 16 19 0 0
BITMAP
07FF
67FF
E070
C070
0070
0070
0070
0070
0070
0070
0070
0070
0070
0070
0070
0070
0070
07FF
07FF
ENDCHAR
STARTCHAR 038C
ENCODING 908
SWIDTH 523 0
DWIDTH 16 0
BBX 17 20 -1 0
BITMAP
01FE00
67FF00
770780
E60380
C60380
0E0380
0E0380
0E0380
0E0380
0E0380
0E0380
0E0380
0E0380
0E0380
0E0380
0E0380
060380
070780
07FF00
03FE00
ENDCHAR
STARTCHAR 038E
ENCODING 910
SWIDTH 523 0
DWIDTH 16 0
BBX 18 20 -2 0
BITMAP
038F00
27CF80
7ED980
EC79C0
CC71C0
007000
007000
007000
007000
007000
007000
007000
007000
007000
007000
007000
007000
007000
01FC00
01FC00
ENDCHAR
STARTCHAR 038F
ENCODING 911
SWIDTH 523 0
DWIDTH 16 0
BBX 18 20 -2 0
BITMAP
00FC00
73FE00
778700
E60380
CE0180
0E01C0
0E01C0
0E01C0
0E0180
0E0180
060380
070380
070300
030700
038700
038600
018E00
0D8EC0
0FCFC0
0F8FC0
ENDCHAR
STARTCHAR 0390
ENCODING 912
SWIDTH 523 0
DWIDTH 16 0
BBX 10 19 2 0
BITMAP
0C00
1C00
DB00
D300
0000
1800
1800
1800
1800
1800
1800
1800
1800
1800
1800
19C0
1D80
1F80
0700
ENDCHAR
STARTCHAR 0391
ENCODING 913
SWIDTH 523 0
DWIDTH 16 0
BBX 14 20 1 0
BITMAP
0380
0780
0780
0780
07C0
0FC0
0EC0
0CC0
0CE0
1CE0
1CE0
1CE0
1C60
1FF0
3FF0
3870
3830
3030
FCFC
FCFC
ENDCHAR
STARTCHAR 0392
ENCODING 914
SWIDTH 523 0
DWIDTH 16 0
BBX 14 19 1 0
BITMAP
FFE0
FFF0
3038
3038
3018
3018
3038
3070
3FE0
3FF0
3038
3018
301C
301C
301C
301C
3038
FFF8
FFE0
ENDCHAR
STARTCHAR 0393
ENCODING 915
SWIDTH 523 0
DWIDTH 16 0
BBX 14 19 1 0
BITMAP
FFFC
FFFC
380C
380C
380C
3800
3800
3800
3800
3800
3800
3800
3800
3800
3800
3800
3800
FF00
FF00
ENDCHAR
STARTCHAR 0394
ENCODING 916
SWIDTH 523 0
DWIDTH 16 0
BBX 14 20 1 0
BITMAP
0380
0780
0780
0FC0
0FC0
0CC0
0CE0
1CE0
1CE0
1860
3870
3870
3830
3038
7038
7038
7018
601C
FFFC
FFFC
ENDCHAR
STARTCHAR 0395
ENCODING 917
SWIDTH 523 0
DWIDTH 16 0
BBX 15 19 1 0
BITMAP
FFFC
FFFC
301C
301C
301C
3000
30C0
30E0
3FE0
3FE0
30E0
30C0
3000
300C
300E
300E
300E
FFFE
FFFC
ENDCHAR
STARTCHAR 0396
ENCODING 918
SWIDTH 523 0
DWIDTH 16 0
BBX 14 19 1 0
BITMAP
7FFC
7FFC
6038
6078
6070
00E0
01E0
01C0
0380
0380
0700
0E00
0E00
1C1C
381C
381C
701C
FFFC
7FFC
ENDCHAR
STARTCHAR 0397
ENCODING 919
SWIDTH 523 0
DWIDTH 16 0
BBX 15 19 1 0
BITMAP
FCFE
FCFE
7038
7038
7038
7038
7038
7038
7FF8
7FF8
7038
7038
7038
7038
7038
7038
7038
FCFE
FCFE
ENDCHAR
STARTCHAR 0398
ENCODING 920
SWIDTH 523 0
DWIDTH 16 0
BBX 12 20 2 0
BITMAP
3FC0
7FF0
F070
E070
E030
C030
C030
CFB0
CFB0
CFB0
CFB0
CFB0
C030
C030
C030
E030
E070
F070
7FF0
3FC0
ENDCHAR
STARTCHAR 0399
ENCODING 921
SWIDTH 523 0
DWIDTH 16 0
BBX 12 19 2 0
BITMAP
FFF0
FFF0
0600
0600
0600
0600
0600
0600
0600
0600
0600
0600
0600
0600
0600
0600
0600
FFF0
FFF0
ENDCHAR
STARTCHAR 039A
ENCODING 922
SWIDTH 523 0
DWIDTH 16 0
BBX 14 19 1 0
BITMAP
F8FC
F8FC
3070
30E0
30C0
3180
3380
3700
3F00
3F80
3D80
39C0
30C0
30E0
3060
3070
3030
FC7C
F87C
ENDCHAR
STARTCHAR 039B
ENCODING 923
SWIDTH 523 0
DWIDTH 16 0
BBX 14 20 1 0
BITMAP
0380
0780
0780
07C0
07C0
0FC0
0EC0
0CC0
0CE0
1CE0
1CE0
1C60
1860
1870
3870
3870
3830
3038
FCFC
FCFC
ENDCHAR
STARTCHAR 039C
ENCODING 924
SWIDTH 523 0
DWIDTH 16 0
BBX 16 19 0 0
BITMAP
F81F
FC1F
3C3C
3C3C
363C
366C
366C
366C
33CC
33CC
33CC
31CC
318C
300C
300C
300C
300C
FC1F
FC1F
ENDCHAR
STARTCHAR 039D
ENCODING 925
SWIDTH 523 0
DWIDTH 16 0
BBX 14 19 1 0
BITMAP
F87C
F87C
3C38
3C38
3638
3638
3638
3338
3338
3338
31B8
31B8
31B8
31F8
30F8
30F8
30F8
FC78
FC70
ENDCHAR
STARTCHAR 039E
ENCODING 926
SWIDTH 523 0
DWIDTH 16 0
BBX 14 20 1 0
BITMAP
FFFC
FFFC
FFFC
E00C
0000
0000
0000
0000
3870
3FF0
3FF0
3870
0000
0000
0000
0000
C00C
E00C
FFFC
FFFC
ENDCHAR
STARTCHAR 039F
ENCODING 927
SWIDTH 523 0
DWIDTH 16 0
BBX 12 20 2 0
BITMAP
3FC0
7FF0
E070
E070
E030
C030
C030
C030
C030
C030
C030
C030
C030
C030
C030
E030
E070
F070
7FE0
3FC0
ENDCHAR
STARTCHAR 03A0
ENCODING 928
SWIDTH 523 0
DWIDTH 16 0
BBX 15 19 1 0
BITMAP
FFFE
FFFE
7038
7038
7038
7038
7038
7038
7038
7038
7038
7038
7038
7038
7038
7038
7038
FCFE
FCFE
ENDCHAR
STARTCHAR 03A1
ENCODING 929
SWIDTH 523 0
DWIDTH 16 0
BBX 14 19 1 0
BITMAP
FFE0
FFF0
3038
301C
301C
301C
301C
301C
3038
3FF0
3FE0
3000
3000
3000
3000
3000
3000
FC00
FC00
ENDCHAR
STARTCHAR 03A3
ENCODING 931
SWIDTH 523 0
DWIDTH 16 0
BBX 14 19 1 0
BITMAP
FFFC
FFFC
701C
381C
380C
1C00
1C00
0E00
0E00
0700
0700
0E00
1C00
1C00
380C
381C
701C
7FFC
FFFC
ENDCHAR
STARTCHAR 03A4
ENCODING 932
SWIDTH 523 0
DWIDTH 16 0
BBX 14 19 1 0
BITMAP
FFFC
FFFC
C30C
C30C
C30C
0300
0300
0300
0300
0300
0300
0300
0300
0300
0300
0300
0300
1FE0
1FE0
ENDCHAR
STARTCHAR 03A5
ENCODING 933
SWIDTH 523 0
DWIDTH 16 0
BBX 14 20 1 0
BITMAP
3870
7CF8
E79C
E79C
E38C
0380
0300
0300
0300
0300
0300
0300
0300
0300
0300
0300
0300
0300
0FE0
0FE0
ENDCHAR
STARTCHAR 03A6
ENCODING 934
SWIDTH 523 0
DWIDTH 16 0
BBX 14 19 1 0
BITMAP
1FE0
1FE0
0300
0300
0300
1FE0
7FF8
7338
E31C
E31C
E31C
7338
3FF8
1FE0
0300
0300
0300
1FE0
1FE0
ENDCHAR
STARTCHAR 03A7
ENCODING 935
SWIDTH 523 0
DWIDTH 16 0
BBX 14 19 1 0
BITMAP
FDF8
FDF8
18E0
1CE0
1DC0
0FC0
0F80
0780
0700
0780
0780
0FC0
0FC0
1CE0
1CE0
1870
3870
FCFC
FCFC
ENDCHAR
STARTCHAR 03A8
ENCODING 936
SWIDTH 523 0
DWIDTH 16 0
BBX 14 19 1 0
BITMAP
0FE0
0FE0
0300
0300
E31C
F31C
7338
7338
7338
7338
3338
3FF0
1FE0
0FC0
0300
0300
0300
0FE0
0FE0
ENDCHAR
STARTCHAR 03A9
ENCODING 937
SWIDTH 523 0
DWIDTH 16 0
BBX 14 20 1 0
BITMAP
0FC0
1FF0
3878
7038
601C
E01C
E01C
E01C
E01C
601C
7018
7038
3038
3830
3870
1860
1C60
DCEC
FCFC
FCFC
ENDCHAR
STARTCHAR 03AA
ENCODING 938
SWIDTH 523 0
DWIDTH 16 0
BBX 12 25 2 0
BITMAP
30C0
79E0
79E0
30C0
0000
0000
FFF0
FFF0
0600
0600
0600
0600
0600
0600
0600
0600
0600
0600
0600
0600
0600
0600
0600
FFF0
FFF0
ENDCHAR
STARTCHAR 03AB
ENCODING 939
SWIDTH 523 0
DWIDTH 16 0
BBX 14 25 1 0
BITMAP
1870
3CF0
3CF0
1860
0000
3870
7CF8
E79C
E79C
E38C
0380
0300
0300
0300
0300
0300
0300
0300
0300
0300
0300
0300
0300
0FE0
0FE0
ENDCHAR
STARTCHAR 03AC
ENCODING 940
SWIDTH 523 0
DWIDTH 16 0
BBX 16 19 1 0
BITMAP
0180
01C0
0380
0300
0000
1E0C
3F9C
739C
61D8
60F8
E0F8
E0F0
E070
E070
60F0
60F0
71FB
3FBF
1F1E
ENDCHAR
STARTCHAR 03AD
ENCODING 941
SWIDTH 523 0
DWIDTH 16 0
BBX 14 19 1 0
BITMAP
0180
0180
0380
0300
0000
0000
1FE0
7FF8
703C
E008
E000
7000
3F00
3F00
6000
E000
F01C
7FFC
1FF0
ENDCHAR
STARTCHAR 03AE
ENCODING 942
SWIDTH 523 0
DWIDTH 16 0
BBX 15 25 0 -7
BITMAP
0060
00E0
01C0
0180
0000
F1F0
FFF8
1F1C
1E0C
0E0E
0E0E
0E0E
0E0E
0E0E
0E0E
0E0E
0E0E
0E0E
0C0E
000E
000E
000E
000E
000E
000E
ENDCHAR
STARTCHAR 03AF
ENCODING 943
SWIDTH 523 0
DWIDTH 16 0
BBX 7 19 5 0
BITMAP
60
E0
E0
80
00
C0
C0
C0
C0
C0
C0
C0
C0
C0
C0
CE
EE
FC
38
ENDCHAR
STARTCHAR 03B0
ENCODING 944
SWIDTH 523 0
DWIDTH 16 0
BBX 14 20 1 0
BITMAP
0300
0380
0700
3EC0
3CC0
0000
6030
E070
7038
7038
701C
301C
301C
301C
301C
381C
3838
1C78
0FF0
07C0
ENDCHAR
STARTCHAR 03B1
ENCODING 945
SWIDTH 523 0
DWIDTH 16 0
BBX 16 14 1 0
BITMAP
1E0C
3F9C
739C
61D8
60F8
E0F8
E0F0
E070
E070
60F0
60F0
71FB
3FBF
1F1E
ENDCHAR
STARTCHAR 03B2
ENCODING 946
SWIDTH 523 0
DWIDTH 16 0
BBX 14 26 1 -7
BITMAP
0F80
1FE0
38E0
7060
60E0
E1E0
E7C0
E7E0
E0F0
E038
E018
E01C
E01C
E01C
E01C
E038
F878
FFF0
EFC0
E000
E000
E000
E000
E000
E000
6000
ENDCHAR
STARTCHAR 03B3
ENCODING 947
SWIDTH 523 0
DWIDTH 16 0
BBX 14 19 1 -5
BITMAP
701C
F83C
DC70
0CE0
0EC0
07C0
0780
0780
0780
0380
0380
0380
0300
0300
0300
0300
0300
0300
0300
ENDCHAR
STARTCHAR 03B4
ENCODING 948
SWIDTH 523 0
DWIDTH 16 0
BBX 14 19 1 0
BITMAP
1E00
3FC0
31F0
3070
3E00
1F80
1FE0
3FF0
7838
7038
601C
E01C
E01C
E01C
601C
7038
3878
1FF0
0FC0
ENDCHAR
STARTCHAR 03B5
ENCODING 949
SWIDTH 523 0
DWIDTH 16 0
BBX 14 13 1 0
BITMAP
1FE0
7FF8
703C
E008
E000
7000
3F00
3F00
6000
E000
F01C
7FFC
1FF0
ENDCHAR
STARTCHAR 03B6
ENCODING 950
SWIDTH 523 0
DWIDTH 16 0
BBX 14 25 1 -5
BITMAP
6018
7078
73F8
3FE0
1F80
0F00
1E00
3C00
3800
7000
7000
6000
E000
E000
E000
6000
7000
3800
1FE0
0FF8
003C
001C
001C
01F8
01E0
ENDCHAR
STARTCHAR 03B7
ENCODING 951
SWIDTH 523 0
DWIDTH 16 0
BBX 15 20 0 -7
BITMAP
F1F0
FFF8
1F1C
1E0C
0E0E
0E0E
0E0E
0E0E
0E0E
0E0E
0E0E
0E0E
0E0E
0C0E
000E
000E
000E
000E
000E
000E
ENDCHAR
STARTCHAR 03B8
ENCODING 952
SWIDTH 523 0
DWIDTH 16 0
BBX 14 19 1 0
BITMAP
07C0
1FE0
3870
3038
7038
7018
601C
601C
FFFC
FFFC
E01C
601C
601C
7018
7038
3838
3870
1FE0
0780
ENDCHAR
STARTCHAR 03B9
ENCODING 953
SWIDTH 523 0
DWIDTH 16 0
BBX 7 14 5 0
BITMAP
C0
C0
C0
C0
C0
C0
C0
C0
C0
C0
CE
EE
FC
38
ENDCHAR
STARTCHAR 03BA
ENCODING 954
SWIDTH 523 0
DWIDTH 16 0
BBX 14 16 1 -1
BITMAP
6000
E0F8
E3FC
E780
6E00
7C00
7800
7800
7800
7C00
7E00
7780
61C0
E0FC
E03C
6000
ENDCHAR
STARTCHAR 03BB
ENCODING 955
SWIDTH 523 0
DWIDTH 16 0
BBX 14 19 1 0
BITMAP
F000
FC00
0E00
0700
0700
0300
0780
0780
0FC0
0FC0
1DC0
1CE0
38E0
3870
7070
7038
6038
E01C
C00C
ENDCHAR
STARTCHAR 03BC
ENCODING 956
SWIDTH 523 0
DWIDTH 16 0
BBX 15 21 1 -7
BITMAP
6060
E060
E060
E060
E060
E060
E060
E060
E070
E070
E0F0
F1F6
FFFE
FF1C
E000
E000
E000
E000
E000
E000
6000
ENDCHAR
STARTCHAR 03BD
ENCODING 957
SWIDTH 523 0
DWIDTH 16 0
BBX 14 14 1 0
BITMAP
E030
F038
7838
3C1C
1C1C
0E1C
0E1C
0718
0738
0370
03F0
03E0
0380
0300
ENDCHAR
STARTCHAR 03BE
ENCODING 958
SWIDTH 523 0
DWIDTH 16 0
BBX 14 25 1 -5
BITMAP
6038
7FF8
7FF0
3F80
0C00
1C00
1DE0
0FE0
0FC0
1F00
3C00
7000
6000
E000
E000
6000
7000
7800
3FE0
0FF8
003C
001C
003C
01F8
01E0
ENDCHAR
STARTCHAR 03BF
ENCODING 959
SWIDTH 523 0
DWIDTH 16 0
BBX 14 14 1 0
BITMAP
07C0
1FE0
3870
7038
601C
E01C
E01C
E01C
E01C
601C
7038
3870
1FE0
07C0
ENDCHAR
STARTCHAR 03C0
ENCODING 960
SWIDTH 523 0
DWIDTH 16 0
BBX 15 14 1 0
BITMAP
7FFC
FFFC
D8E0
18E0
18E0
18E0
18E0
18E0
18E0
1860
1864
187E
183E
183C
ENDCHAR
STARTCHAR 03C1
ENCODING 961
SWIDTH 523 0
DWIDTH 16 0
BBX 14 21 1 -7
BITMAP
07C0
1FE0
3870
7038
7018
601C
E01C
E01C
E01C
E01C
F038
F870
FFE0
EFC0
E000
E000
E000
E000
E000
E000
E000
ENDCHAR
STARTCHAR 03C2
ENCODING 962
SWIDTH 523 0
DWIDTH 16 0
BBX 14 17 1 -3
BITMAP
00FC
07FC
1F00
3800
7000
6000
E000
E000
E000
6000
7000
3800
1FF0
0FFC
001C
01FC
01F0
ENDCHAR
STARTCHAR 03C3
ENCODING 963
SWIDTH 523 0
DWIDTH 16 0
BBX 13 14 1 0
BITMAP
0FF8
3FF8
71E0
70E0
6060
E070
E070
E070
E070
6060
70E0
79C0
3FC0
0F00
ENDCHAR
STARTCHAR 03C4
ENCODING 964
SWIDTH 523 0
DWIDTH 16 0
BBX 14 14 1 0
BITMAP
7FFC
FFFC
C300
0300
0300
0300
0300
0300
0300
0300
0380
03B0
01F0
00E0
ENDCHAR
STARTCHAR 03C5
ENCODING 965
SWIDTH 523 0
DWIDTH 16 0
BBX 14 14 1 0
BITMAP
6030
E070
7038
7038
701C
301C
301C
301C
301C
381C
3838
1C78
0FF0
07C0
ENDCHAR
STARTCHAR 03C6
ENCODING 966
SWIDTH 523 0
DWIDTH 16 0
BBX 14 21 1 -7
BITMAP
38F0
39F8
7398
631C
E30C
E30C
C30C
E30C
E31C
631C
7338
3FF8
1FF0
0FC0
0300
0300
0300
0300
0300
0300
0300
ENDCHAR
STARTCHAR 03C7
ENCODING 967
SWIDTH 523 0
DWIDTH 16 0
BBX 14 21 1 -7
BITMAP
F01C
F81C
1838
1C38
0C70
0E60
06E0
07C0
07C0
0780
0380
0780
0F80
0F80
1DC0
1DC0
38C0
38E0
7070
607C
E01C
ENDCHAR
STARTCHAR 03C8
ENCODING 968
SWIDTH 523 0
DWIDTH 16 0
BBX 14 27 1 -7
BITMAP
0300
0300
0300
0300
0300
0300
3330
7338
6338
631C
E31C
E31C
E31C
E31C
631C
7338
7B38
3FF0
1FE0
0FC0
0300
0300
0300
0300
0300
0300
0300
ENDCHAR
STARTCHAR 03C9
ENCODING 969
SWIDTH 523 0
DWIDTH 16 0
BBX 14 14 1 0
BITMAP
1860
3870
3870
7038
7038
631C
E79C
E79C
E78C
E79C
E79C
73BC
7FF8
3EF0
ENDCHAR
STARTCHAR 03CA
ENCODING 970
SWIDTH 523 0
DWIDTH 16 0
BBX 14 20 -1 0
BITMAP
6018
F03C
F03C
6018
0000
0000
0300
0300
0300
0300
0300
0300
0300
0300
0300
0300
0338
03B8
01F0
00E0
ENDCHAR
STARTCHAR 03CB
ENCODING 971
SWIDTH 523 0
DWIDTH 16 0
BBX 14 20 1 0
BITMAP
70C0
71E0
71E0
70E0
0000
0000
6030
E070
7038
7038
701C
301C
301C
301C
301C
381C
3838
1C78
0FF0
07C0
ENDCHAR
STARTCHAR 03CC
ENCODING 972
SWIDTH 523 0
DWIDTH 16 0
BBX 14 19 1 0
BITMAP
0180
0380
0380
0300
0000
07C0
1FE0
3870
7038
601C
E01C
E01C
E01C
E01C
601C
7038
3870
1FE0
07C0
ENDCHAR
STARTCHAR 03CD
ENCODING 973
SWIDTH 523 0
DWIDTH 16 0
BBX 14 19 1 0
BITMAP
0300
0700
0700
0400
0000
6030
E070
7038
7038
701C
301C
301C
301C
301C
381C
3838
1C78
0FF0
07C0
ENDCHAR
STARTCHAR 03CE
ENCODING 974
SWIDTH 523 0
DWIDTH 16 0
BBX 14 19 1 0
BITMAP
0180
0180
0380
0300
0000
1860
3870
3870
7038
7038
631C
E79C
E79C
E78C
E79C
E79C
73BC
7FF8
3EF0
ENDCHAR
STARTCHAR 03D1
ENCODING 977
SWIDTH 523 0
DWIDTH 16 0
BBX 14 19 1 0
BITMAP
07C0
1FE0
3870
3038
7038
7018
601C
601C
FFFC
FFFC
E01C
601C
601C
7018
7038
3838
3870
1FE0
0780
ENDCHAR
STARTCHAR 03D8
ENCODING 984
SWIDTH 523 0
DWIDTH 16 0
BBX 14 19 1 0
BITMAP
0FC0
3FF0
7878
601C
E01C
E00C
E01C
E01C
7878
3FF0
0FC0
0300
0300
0300
0300
0300
0300
1FE0
1FE0
ENDCHAR
STARTCHAR 03D9
ENCODING 985
SWIDTH 523 0
DWIDTH 16 0
BBX 13 22 2 -2
BITMAP
0F80
3FE0
70F0
C070
C038
C038
C038
C038
C030
E030
7860
3FC0
0F80
0F80
0F80
0F80
0F80
0F80
0F80
0F80
0F00
0E00
ENDCHAR
STARTCHAR 03DA
ENCODING 986
SWIDTH 523 0
DWIDTH 16 0
BBX 14 20 2 -1
BITMAP
1FF8
7FFC
639C
E39C
E398
C380
C380
C380
C380
C380
C380
C380
C380
C380
C380
E380
E380
63E0
7FE0
1F80
ENDCHAR
STARTCHAR 03DB
ENCODING 987
SWIDTH 523 0
DWIDTH 16 0
BBX 13 14 2 0
BITMAP
1FF8
7FF8
E000
C000
C000
C000
F000
7F80
1F80
0600
0700
0700
0700
0600
ENDCHAR
STARTCHAR 03DC
ENCODING 988
SWIDTH 523 0
DWIDTH 16 0
BBX 14 19 1 0
BITMAP
FFFC
FFFC
380C
380C
380C
3800
38E0
38E0
3FE0
3FE0
38E0
38E0
3800
3800
3800
3800
3800
FE00
FE00
ENDCHAR
STARTCHAR 03DD
ENCODING 989
SWIDTH 523 0
DWIDTH 16 0
BBX 12 21 2 -7
BITMAP
3FF0
7FF0
E000
C000
C000
C000
C000
C000
FF00
FF00
C000
C000
C000
C000
C000
C000
C000
C000
C000
C000
C000
ENDCHAR
STARTCHAR 03DF
ENCODING 991
SWIDTH 523 0
DWIDTH 16 0
BBX 12 21 2 -4
BITMAP
C000
C000
C000
C000
C000
C000
C000
C000
C030
C7F0
FFF0
FC30
8030
0030
0030
0030
0030
0030
0030
0030
0030
ENDCHAR
STARTCHAR 03E0
ENCODING 992
SWIDTH 523 0
DWIDTH 16 0
BBX 15 20 0 0
BITMAP
3000
3800
1800
1C00
0C00
0E00
0E00
1F00
1F00
1B80
1980
19C0
39C0
3BE0
33F0
3370
3338
7338
FFFE
FFBE
ENDCHAR
STARTCHAR 03E1
ENCODING 993
SWIDTH 523 0
DWIDTH 16 0
BBX 14 19 1 0
BITMAP
7800
FE00
0F00
0780
0FC0
1CE0
1DE0
39F0
33B0
73B8
7338
6318
6318
631C
031C
031C
031C
001C
000C
ENDCHAR
STARTCHAR 0400
ENCODING 1024
SWIDTH 523 0
DWIDTH 16 0
BBX 15 24 1 0
BITMAP
0F00
0FC0
03C0
0000
0000
FFFC
FFFC
301C
301C
301C
3000
30C0
30E0
3FE0
3FE0
30E0
30C0
3000
300C
300E
300E
300E
FFFE
FFFC
ENDCHAR
STARTCHAR 0401
ENCODING 1025
SWIDTH 523 0
DWIDTH 16 0
BBX 15 25 1 0
BITMAP
1870
3C70
3CF0
1860
0000
0000
FFFC
FFFC
301C
301C
301C
3000
30C0
30E0
3FE0
3FE0
30E0
30C0
3000
300C
300E
300E
300E
FFFE
FFFC
ENDCHAR
STARTCHAR 0402
ENCODING 1026
SWIDTH 523 0
DWIDTH 16 0
BBX 15 19 1 0
BITMAP
FFF0
FFF0
C670
C630
C600
0678
07FC
078E
070E
060E
060E
060E
060E
060E
064E
066E
066C
3F7C
3F38
ENDCHAR
STARTCHAR 0403
ENCODING 1027
SWIDTH 523 0
DWIDTH 16 0
BBX 14 24 1 0
BITMAP
01E0
07E0
0700
0000
0000
FFFC
FFFC
1C1C
1C1C
1C1C
1C00
1C00
1C00
1C00
1C00
1C00
1C00
1C00
1C00
1C00
1C00
1C00
FF80
FF80
ENDCHAR
STARTCHAR 0404
ENCODING 1028
SWIDTH 523 0
DWIDTH 16 0
BBX 14 19 1 0
BITMAP
07CC
1FFC
3C3C
781C
701C
600C
E000
E000
FFE0
FFE0
E000
E000
6000
700C
701C
381C
3C38
1FF0
07C0
ENDCHAR
STARTCHAR 0405
ENCODING 1029
SWIDTH 523 0
DWIDTH 16 0
BBX 13 19 2 0
BITMAP
1F30
7FF0
E0F0
C070
C070
C070
E000
F800
7F80
1FE0
03F0
0070
0038
C038
C038
E030
F070
FFE0
DFC0
ENDCHAR
STARTCHAR 0406
ENCODING 1030
SWIDTH 523 0
DWIDTH 16 0
BBX 12 19 2 0
BITMAP
FFF0
FFF0
0600
0600
0600
0600
0600
0600
0600
0600
0600
0600
0600
0600
0600
0600
0600
FFF0
FFF0
ENDCHAR
STARTCHAR 0407
ENCODING 1031
SWIDTH 523 0
DWIDTH 16 0
BBX 12 25 2 0
BITMAP
30C0
78E0
79E0
30C0
0000
0000
FFF0
FFF0
0600
0600
0600
0600
0600
0600
0600
0600
0600
0600
0600
0600
0600
0600
0600
FFF0
FFF0
ENDCHAR
STARTCHAR 0408
ENCODING 1032
SWIDTH 523 0
DWIDTH 16 0
BBX 13 19 2 0
BITMAP
0FF8
0FF8
00E0
00E0
00E0
00E0
00E0
00E0
00E0
00E0
00E0
00E0
00E0
00E0
00E0
60E0
E1C0
7FC0
3F00
ENDCHAR
STARTCHAR 0409
ENCODING 1033
SWIDTH 523 0
DWIDTH 16 0
BBX 15 19 0 0
BITMAP
3FE0
3FE0
19C0
19C0
19C0
19C0
19C0
19C0
19FC
19FE
19CE
19C6
19C6
19C6
59C6
F9C6
F9CE
F3FE
73FC
ENDCHAR
STARTCHAR 040A
ENCODING 1034
SWIDTH 523 0
DWIDTH 16 0
BBX 15 19 0 0
BITMAP
FBE0
FBE0
31C0
31C0
31C0
31C0
31C0
31C0
3FFC
3FFE
31CE
31C6
31C6
31C6
31C6
31C6
31CE
FBFC
FBF8
ENDCHAR
STARTCHAR 040B
ENCODING 1035
SWIDTH 523 0
DWIDTH 16 0
BBX 15 19 1 0
BITMAP
FFF0
FFF0
CE30
CE30
CE00
0EF0
0FF8
0F1C
0E1C
0E1C
0E1C
0E1C
0E1C
0E1C
0E1C
0E1C
0E1C
3F3E
3F3E
ENDCHAR
STARTCHAR 040C
ENCODING 1036
SWIDTH 523 0
DWIDTH 16 0
BBX 14 24 1 0
BITMAP
01F0
07F0
0700
0000
0000
F8FC
F8FC
3070
30E0
31C0
3180
3380
3700
3F00
3F80
3D80
39C0
30C0
30E0
3060
3070
3030
FC7C
F87C
ENDCHAR
STARTCHAR 040D
ENCODING 1037
SWIDTH 523 0
DWIDTH 16 0
BBX 15 24 1 0
BITMAP
0F00
1FC0
03C0
0000
0000
F87E
F87E
7018
7038
7078
70D8
70D8
7198
7198
7318
7718
7618
7C18
7C18
7818
7018
7018
F87E
F87E
ENDCHAR
STARTCHAR 040E
ENCODING 1038
SWIDTH 523 0
DWIDTH 16 0
BBX 14 27 1 0
BITMAP
1870
3CF0
3CF0
3870
1FE0
0FC0
0000
0000
FC7C
FC7C
3838
3830
1870
1C70
0C60
0EE0
0EE0
06C0
07C0
03C0
0380
0380
1380
3B00
3F00
1E00
1C00
ENDCHAR
STARTCHAR 040F
ENCODING 1039
SWIDTH 523 0
DWIDTH 16 0
BBX 15 24 1 -5
BITMAP
FCFE
FCFE
7038
7038
7038
7038
7038
7038
7038
7038
7038
7038
7038
7038
7038
7038
7038
FFFE
FFFE
0300
0300
0300
0300
0300
ENDCHAR
STARTCHAR 0410
ENCODING 1040
SWIDTH 523 0
DWIDTH 16 0
BBX 14 19 1 0
BITMAP
0780
0780
0780
07C0
0FC0
0EC0
0EC0
0CC0
0CE0
1CE0
1CE0
1C60
1FF0
3FF0
3870
3830
3830
FCFC
FCFC
ENDCHAR
STARTCHAR 0411
ENCODING 1041
SWIDTH 523 0
DWIDTH 16 0
BBX 14 19 1 0
BITMAP
FFF8
FFF8
3038
3038
3038
3000
3000
3000
3FE0
3FF8
3038
301C
301C
301C
301C
301C
3038
FFF8
FFE0
ENDCHAR
STARTCHAR 0412
ENCODING 1042
SWIDTH 523 0
DWIDTH 16 0
BBX 14 19 1 0
BITMAP
FFE0
FFF0
3038
3038
3018
3018
3038
3070
3FE0
3FF0
3038
3018
301C
301C
301C
301C
3038
FFF8
FFE0
ENDCHAR
STARTCHAR 0413
ENCODING 1043
SWIDTH 523 0
DWIDTH 16 0
BBX 14 19 1 0
BITMAP
FFFC
FFFC
1C1C
1C1C
1C1C
1C00
1C00
1C00
1C00
1C00
1C00
1C00
1C00
1C00
1C00
1C00
1C00
FF80
FF80
ENDCHAR
STARTCHAR 0414
ENCODING 1044
SWIDTH 523 0
DWIDTH 16 0
BBX 16 25 0 -6
BITMAP
1FFF
1FFF
061C
061C
061C
061C
061C
061C
061C
0E1C
0C1C
0C1C
0C1C
0C1C
1C1C
181C
381C
FFFF
FFFF
C003
C003
C003
C003
C003
C003
ENDCHAR
STARTCHAR 0415
ENCODING 1045
SWIDTH 523 0
DWIDTH 16 0
BBX 15 19 1 0
BITMAP
FFFC
FFFC
301C
301C
301C
3000
30C0
30E0
3FE0
3FE0
30E0
30C0
3000
300C
300E
300E
300E
FFFE
FFFC
ENDCHAR
STARTCHAR 0416
ENCODING 1046
SWIDTH 523 0
DWIDTH 16 0
BBX 16 19 0 0
BITMAP
FBCF
F3CF
318C
398C
1998
1D98
0DB0
0FB0
0FF0
0FF0
1FD8
1BD8
19D8
398C
318C
318E
7186
F3CF
F3CF
ENDCHAR
STARTCHAR 0417
ENCODING 1047
SWIDTH 523 0
DWIDTH 16 0
BBX 13 19 2 0
BITMAP
DF80
FFE0
F0E0
E070
E070
E030
C070
00E0
1FE0
1FC0
00F0
0030
0038
C038
C038
E030
F0F0
7FE0
1F80
ENDCHAR
STARTCHAR 0418
ENCODING 1048
SWIDTH 523 0
DWIDTH 16 0
BBX 15 19 1 0
BITMAP
F87E
F87E
7018
7038
7078
70D8
70D8
7198
7198
7318
7718
7618
7C18
7C18
7818
7018
7018
F87E
F87E
ENDCHAR
STARTCHAR 0419
ENCODING 1049
SWIDTH 523 0
DWIDTH 16 0
BBX 15 27 1 0
BITMAP
1870
3CF0
3CF0
3870
1FE0
0FC0
0000
0000
F87E
F87E
7018
7038
7078
70D8
70D8
7198
7198
7318
7718
7618
7C18
7C18
7818
7018
7018
F87E
F87E
ENDCHAR
STARTCHAR 041A
ENCODING 1050
SWIDTH 523 0
DWIDTH 16 0
BBX 14 19 1 0
BITMAP
F8FC
F8FC
3070
30E0
31C0
3180
3380
3700
3F00
3F80
3D80
39C0
30C0
30E0
3060
3070
3030
FC7C
F87C
ENDCHAR
STARTCHAR 041B
ENCODING 1051
SWIDTH 523 0
DWIDTH 16 0
BBX 15 19 1 0
BITMAP
3FFE
3FFE
0C38
0C38
0C38
0C38
0C38
0C38
0C38
0C38
0C38
0C38
0C38
0C38
0C38
DC38
D838
F8FE
70FE
ENDCHAR
STARTCHAR 041C
ENCODING 1052
SWIDTH 523 0
DWIDTH 16 0
BBX 16 19 0 0
BITMAP
F81F
FC1F
3C3C
3C3C
363C
366C
366C
366C
334C
33CC
33CC
31CC
318C
300C
300C
300C
300C
FC1F
FC1F
ENDCHAR
STARTCHAR 041D
ENCODING 1053
SWIDTH 523 0
DWIDTH 16 0
BBX 15 19 1 0
BITMAP
FCFE
FCFE
7038
7038
7038
7038
7038
7038
7FF8
7FF8
7038
7038
7038
7038
7038
7038
7038
FCFE
FCFE
ENDCHAR
STARTCHAR 041E
ENCODING 1054
SWIDTH 523 0
DWIDTH 16 0
BBX 13 19 2 0
BITMAP
3FC0
7FF0
E070
E070
E030
C030
C030
C030
C030
C038
C030
C030
C030
C030
E030
E070
F070
7FF0
3FC0
ENDCHAR
STARTCHAR 041F
ENCODING 1055
SWIDTH 523 0
DWIDTH 16 0
BBX 15 19 1 0
BITMAP
FFFE
FFFE
7038
7038
7038
7038
7038
7038
7038
7038
7038
7038
7038
7038
7038
7038
7038
FCFE
FCFE
ENDCHAR
STARTCHAR 0420
ENCODING 1056
SWIDTH 523 0
DWIDTH 16 0
BBX 14 19 1 0
BITMAP
FFE0
FFF0
3038
301C
301C
301C
301C
301C
3038
3FF0
3FE0
3000
3000
3000
3000
3000
3000
FC00
FC00
ENDCHAR
STARTCHAR 0421
ENCODING 1057
SWIDTH 523 0
DWIDTH 16 0
BBX 14 19 1 0
BITMAP
07CC
1FFC
3C3C
381C
701C
600C
6000
E000
E000
E000
E000
E000
E000
700C
701C
381C
3C38
1FF0
07C0
ENDCHAR
STARTCHAR 0422
ENCODING 1058
SWIDTH 523 0
DWIDTH 16 0
BBX 14 19 1 0
BITMAP
FFFC
FFFC
C30C
C30C
C30C
0300
0300
0300
0300
0300
0300
0300
0300
0300
0300
0300
0300
1FE0
1FE0
ENDCHAR
STARTCHAR 0423
ENCODING 1059
SWIDTH 523 0
DWIDTH 16 0
BBX 14 19 1 0
BITMAP
FC7C
FC7C
3838
3830
1870
1C70
0C60
0EE0
0EE0
06C0
07C0
03C0
0380
0380
1380
3B00
3F00
1E00
1C00
ENDCHAR
STARTCHAR 0424
ENCODING 1060
SWIDTH 523 0
DWIDTH 16 0
BBX 15 19 1 0
BITMAP
0FE0
0FE0
0300
0300
1FE0
7FF8
F33C
E31C
C30E
C30E
C30E
E30C
F31C
7FF8
1FE0
0300
0300
0FE0
0FE0
ENDCHAR
STARTCHAR 0425
ENCODING 1061
SWIDTH 523 0
DWIDTH 16 0
BBX 14 19 1 0
BITMAP
FDF8
FDF8
18E0
1CE0
0DC0
0FC0
0780
0780
0300
0780
0780
0FC0
0FC0
0CE0
1CE0
1860
3870
FCFC
FCFC
ENDCHAR
STARTCHAR 0426
ENCODING 1062
SWIDTH 523 0
DWIDTH 16 0
BBX 15 24 1 -5
BITMAP
FCFE
FCFE
7038
7038
7038
7038
7038
7038
7038
7038
7038
7038
7038
7038
7038
7038
7038
FFFE
FFFE
0006
0006
0006
0006
0006
ENDCHAR
STARTCHAR 0427
ENCODING 1063
SWIDTH 523 0
DWIDTH 16 0
BBX 15 19 1 0
BITMAP
FCFE
FCFE
7038
7038
7038
7038
7038
3038
3838
3FF8
0FF8
0038
0038
0038
0038
0038
0038
00FE
00FE
ENDCHAR
STARTCHAR 0428
ENCODING 1064
SWIDTH 523 0
DWIDTH 16 0
BBX 16 19 0 0
BITMAP
FBDF
FBDF
3186
3186
3186
3186
3186
3186
3186
3186
3186
3186
3186
3186
3186
3186
3186
FFFF
FFFF
ENDCHAR
STARTCHAR 0429
ENCODING 1065
SWIDTH 523 0
DWIDTH 16 0
BBX 16 24 0 -5
BITMAP
FBDF
FBDF
3186
3186
3186
3186
3186
3186
3186
3186
3186
3186
3186
3186
3186
3186
3186
FFFF
FFFF
0003
0003
0003
0003
0003
ENDCHAR
STARTCHAR 042A
ENCODING 1066
SWIDTH 523 0
DWIDTH 16 0
BBX 14 19 1 0
BITMAP
FF00
FF00
C600
C600
C600
0600
0600
0600
07F0
07F8
061C
061C
060C
060C
060C
061C
061C
1FF8
1FF0
ENDCHAR
STARTCHAR 042B
ENCODING 1067
SWIDTH 523 0
DWIDTH 16 0
BBX 16 19 0 0
BITMAP
FC3F
FC3F
380C
380C
380C
380C
380C
380C
3F8C
3FCC
38EC
38EC
38EC
38EC
38EC
38EC
38EC
FFFF
FFBF
ENDCHAR
STARTCHAR 042C
ENCODING 1068
SWIDTH 523 0
DWIDTH 16 0
BBX 13 19 1 0
BITMAP
FF00
FF80
1C00
1C00
1C00
1C00
1C00
1C00
1FE0
1FF0
1C38
1C38
1C18
1C18
1C18
1C38
1C38
FFF0
FFE0
ENDCHAR
STARTCHAR 042D
ENCODING 1069
SWIDTH 523 0
DWIDTH 16 0
BBX 14 19 1 0
BITMAP
CF80
FFE0
F0F0
E038
E038
E01C
001C
001C
1FFC
1FFC
001C
001C
001C
E038
E038
6070
70F0
3FE0
0F80
ENDCHAR
STARTCHAR 042E
ENCODING 1070
SWIDTH 523 0
DWIDTH 16 0
BBX 16 19 0 0
BITMAP
F8FC
F9FE
71C7
71C7
7187
7187
7187
7187
7F87
7F87
7187
7187
7187
7187
7187
71C7
71C7
F9FE
F8FE
ENDCHAR
STARTCHAR 042F
ENCODING 1071
SWIDTH 523 0
DWIDTH 16 0
BBX 15 19 1 0
BITMAP
07FE
1FFE
3838
3038
7038
7038
3838
3C38
1FF8
07F8
0638
0E38
0C38
1C38
1838
3838
3038
F8FE
F8FE
ENDCHAR
STARTCHAR 0430
ENCODING 1072
SWIDTH 523 0
DWIDTH 16 0
BBX 15 14 1 0
BITMAP
3F80
3FE0
3070
0070
0030
07F0
3FF0
7C30
7030
E030
6070
70F0
3FFE
1F1E
ENDCHAR
STARTCHAR 0431
ENCODING 1073
SWIDTH 523 0
DWIDTH 16 0
BBX 13 19 2 0
BITMAP
0FE0
3FE0
3800
7000
E000
FF80
FFC0
F0E0
E070
E030
C038
C038
C038
C038
E030
E070
70E0
3FC0
1F80
ENDCHAR
STARTCHAR 0432
ENCODING 1074
SWIDTH 523 0
DWIDTH 16 0
BBX 14 14 0 0
BITMAP
FFE0
FFF8
1838
181C
1838
1FF8
1FF8
181C
180C
180C
180C
181C
FFF8
FFF0
ENDCHAR
STARTCHAR 0433
ENCODING 1075
SWIDTH 523 0
DWIDTH 16 0
BBX 14 14 1 0
BITMAP
FFF8
FFFC
1C1C
1C18
1C00
1C00
1C00
1C00
1C00
1C00
1C00
1C00
FF80
FF80
ENDCHAR
STARTCHAR 0434
ENCODING 1076
SWIDTH 523 0
DWIDTH 16 0
BBX 16 19 0 -5
BITMAP
3FFF
3FFF
0618
0618
0618
0618
0618
0618
0C18
0C18
1C18
1818
FFFF
FFFF
C003
C003
C003
C003
C003
ENDCHAR
STARTCHAR 0435
ENCODING 1077
SWIDTH 523 0
DWIDTH 16 0
BBX 13 14 1 0
BITMAP
0FC0
1FF0
3870
7038
6038
6018
FFF8
FFF8
6000
7000
7018
3C38
1FF0
07E0
ENDCHAR
STARTCHAR 0436
ENCODING 1078
SWIDTH 523 0
DWIDTH 16 0
BBX 16 14 0 0
BITMAP
7FEF
7FEF
199C
1D98
0DB0
0FF0
0FF0
0FF8
1FD8
1998
399C
318C
FFEF
FFEF
ENDCHAR
STARTCHAR 0437
ENCODING 1079
SWIDTH 523 0
DWIDTH 16 0
BBX 12 14 2 0
BITMAP
FF80
FFE0
E0F0
C070
0070
1FE0
1FE0
00F0
0070
C030
C070
E0F0
7FE0
3F80
ENDCHAR
STARTCHAR 0438
ENCODING 1080
SWIDTH 523 0
DWIDTH 16 0
BBX 16 14 0 0
BITMAP
FF7F
FF7F
1818
1838
1878
18F8
19D8
1B98
1B18
1E18
1C18
1818
FF7F
FF7F
ENDCHAR
STARTCHAR 0439
ENCODING 1081
SWIDTH 523 0
DWIDTH 16 0
BBX 16 22 0 0
BITMAP
0C38
1E78
1E78
1C38
0FF0
07E0
0000
0000
FF7F
FF7F
1818
1838
1878
18F8
19D8
1B98
1B18
1E18
1C18
1818
FF7F
FF7F
ENDCHAR
STARTCHAR 043A
ENCODING 1082
SWIDTH 523 0
DWIDTH 16 0
BBX 16 14 0 0
BITMAP
FF7E
FF7E
1870
18E0
19C0
1B80
1FC0
1EC0
1CE0
1C70
1830
1838
FF3F
FF3F
ENDCHAR
STARTCHAR 043B
ENCODING 1083
SWIDTH 523 0
DWIDTH 16 0
BBX 15 14 1 0
BITMAP
7FFE
7FFE
0C30
0C30
0C30
0C30
0C30
0C30
0C30
0C30
1C30
D830
F8FE
F0FE
ENDCHAR
STARTCHAR 043C
ENCODING 1084
SWIDTH 523 0
DWIDTH 16 0
BBX 16 14 0 0
BITMAP
FC1F
FC3F
343C
366C
366C
336C
33CC
33CC
31CC
300C
300C
300C
FE3F
FC3F
ENDCHAR
STARTCHAR 043D
ENCODING 1085
SWIDTH 523 0
DWIDTH 16 0
BBX 16 14 0 0
BITMAP
FF7F
FF7F
1818
1818
1818
1FF8
1FF8
1818
1818
1818
1818
1818
FF7F
FF7F
ENDCHAR
STARTCHAR 043E
ENCODING 1086
SWIDTH 523 0
DWIDTH 16 0
BBX 13 14 2 0
BITMAP
1F80
3FC0
70E0
E070
E030
C038
C038
C038
C038
E030
E070
70E0
3FC0
1F80
ENDCHAR
STARTCHAR 043F
ENCODING 1087
SWIDTH 523 0
DWIDTH 16 0
BBX 16 14 0 0
BITMAP
FFFF
FFFF
1818
1818
1818
1818
1818
1818
1818
1818
1818
1818
FF7F
FF7F
ENDCHAR
STARTCHAR 0440
ENCODING 1088
SWIDTH 523 0
DWIDTH 16 0
BBX 15 21 0 -7
BITMAP
F9F0
FFF8
1E1C
1C0E
180E
1806
1806
1806
1806
1C0E
1C0E
1E1C
1FF8
19E0
1800
1800
1800
1800
1800
FF00
FF00
ENDCHAR
STARTCHAR 0441
ENCODING 1089
SWIDTH 523 0
DWIDTH 16 0
BBX 12 14 2 0
BITMAP
0FE0
3FF0
7830
7000
E000
E000
E000
E000
E000
E000
7030
7870
3FE0
0FC0
ENDCHAR
STARTCHAR 0442
ENCODING 1090
SWIDTH 523 0
DWIDTH 16 0
BBX 14 14 1 0
BITMAP
FFFC
FFFC
C30C
C30C
0300
0300
0300
0300
0300
0300
0300
0300
3FF0
3FF0
ENDCHAR
STARTCHAR 0443
ENCODING 1091
SWIDTH 523 0
DWIDTH 16 0
BBX 14 21 1 -7
BITMAP
FCFC
FCFC
3830
1830
1870
1C60
0C60
0CE0
0EC0
06C0
06C0
0380
0380
0380
0300
0300
0300
6600
EE00
FC00
7800
ENDCHAR
STARTCHAR 0444
ENCODING 1092
SWIDTH 523 0
DWIDTH 16 0
BBX 16 26 0 -7
BITMAP
0F80
0F80
0180
0180
0180
1FF8
3FFC
73CE
61C7
E187
E187
E183
E183
E187
E187
61C7
73CE
3FFC
1FF8
0180
0180
0180
0180
0180
0FF0
0FF0
ENDCHAR
STARTCHAR 0445
ENCODING 1093
SWIDTH 523 0
DWIDTH 16 0
BBX 14 14 1 0
BITMAP
FCFC
FDFC
1CE0
0CC0
0FC0
0780
0300
0380
0780
0CC0
0CE0
1860
FCFC
FCFC
ENDCHAR
STARTCHAR 0446
ENCODING 1094
SWIDTH 523 0
DWIDTH 16 0
BBX 16 18 0 -4
BITMAP
FF7F
FF7F
1818
1818
1818
1818
1818
1818
1818
1818
1818
1818
FFFF
FFFF
0003
0003
0003
0003
ENDCHAR
STARTCHAR 0447
ENCODING 1095
SWIDTH 523 0
DWIDTH 16 0
BBX 16 14 0 0
BITMAP
FF7F
FF7F
1818
1818
1818
1818
1C18
0FF8
07F8
0018
0018
0018
007F
007F
ENDCHAR
STARTCHAR 0448
ENCODING 1096
SWIDTH 523 0
DWIDTH 16 0
BBX 16 14 0 0
BITMAP
FBDF
FBDF
318E
318E
318E
318E
318E
318E
318E
318E
318E
318E
FFFF
FFFF
ENDCHAR
STARTCHAR 0449
ENCODING 1097
SWIDTH 523 0
DWIDTH 16 0
BBX 17 18 0 -4
BITMAP
FBDF00
FBDF00
318E00
318E00
318E00
318E00
318E00
318E00
318E00
318E00
318E00
318E00
FFFF00
FFFF80
000380
000380
000380
000100
ENDCHAR
STARTCHAR 044A
ENCODING 1098
SWIDTH 523 0
DWIDTH 16 0
BBX 14 14 1 0
BITMAP
FE00
FE00
CC00
CC00
0C00
0FE0
0FF8
0C38
0C1C
0C1C
0C1C
0C38
3FF8
3FE0
ENDCHAR
STARTCHAR 044B
ENCODING 1099
SWIDTH 523 0
DWIDTH 16 0
BBX 16 14 0 0
BITMAP
FC3F
FC3F
300C
300C
300C
3F8C
3FCC
31CC
30CC
30CC
30CC
31CC
FFFF
FFBF
ENDCHAR
STARTCHAR 044C
ENCODING 1100
SWIDTH 523 0
DWIDTH 16 0
BBX 13 14 1 0
BITMAP
FE00
FE00
1800
1800
1800
1FE0
1FF0
1838
1818
1818
1818
1838
FFF0
FFE0
ENDCHAR
STARTCHAR 044D
ENCODING 1101
SWIDTH 523 0
DWIDTH 16 0
BBX 12 14 2 0
BITMAP
FF00
FFC0
E1E0
C060
0070
0FF0
0FF0
0030
0070
0070
C0E0
E1E0
7FC0
3F00
ENDCHAR
STARTCHAR 044E
ENCODING 1102
SWIDTH 523 0
DWIDTH 16 0
BBX 16 14 0 0
BITMAP
FE78
FFFE
39CE
3B87
3B87
3F03
3F03
3B03
3B87
3B87
3B87
39CE
FEFC
FE78
ENDCHAR
STARTCHAR 044F
ENCODING 1103
SWIDTH 523 0
DWIDTH 16 0
BBX 15 14 1 0
BITMAP
1FFE
3FFE
7830
7030
7030
7830
3FF0
0FF0
0630
0C30
1C30
3830
FDFE
FDFE
ENDCHAR
STARTCHAR 0450
ENCODING 1104
SWIDTH 523 0
DWIDTH 16 0
BBX 13 20 1 0
BITMAP
0700
07E0
07F0
00E0
0000
0000
0FC0
1FF0
3870
7038
6038
6018
FFF8
FFF8
6000
7000
7018
3C38
1FF0
07E0
ENDCHAR
STARTCHAR 0451
ENCODING 1105
SWIDTH 523 0
DWIDTH 16 0
BBX 13 19 1 0
BITMAP
3860
3CF0
38F0
3860
0000
0FC0
1FF0
3870
7038
7038
6018
FFF8
FFF8
6000
7000
7018
3C38
1FF0
07E0
ENDCHAR
STARTCHAR 0452
ENCODING 1106
SWIDTH 523 0
DWIDTH 16 0
BBX 15 26 0 -7
BITMAP
F800
FC00
1C00
FFFE
FFFE
1CF8
1FFC
1FFC
1F1C
1C0E
1C0E
1C0E
1C0E
1C0E
1C0C
1C0C
1C0C
FF0C
FF1C
001C
0018
0038
0070
00E0
03C0
0380
ENDCHAR
STARTCHAR 0453
ENCODING 1107
SWIDTH 523 0
DWIDTH 16 0
BBX 14 20 1 0
BITMAP
01C0
0FC0
0F80
0800
0000
0000
FFFC
FFFC
1C1C
1C1C
1C00
1C00
1C00
1C00
1C00
1C00
1C00
1C00
FFC0
FF80
ENDCHAR
STARTCHAR 0454
ENCODING 1108
SWIDTH 523 0
DWIDTH 16 0
BBX 12 14 2 0
BITMAP
0FF0
3FF0
7870
7030
E030
FF00
FF00
E000
E000
E000
7030
7870
3FE0
0FC0
ENDCHAR
STARTCHAR 0455
ENCODING 1109
SWIDTH 523 0
DWIDTH 16 0
BBX 12 14 2 0
BITMAP
1FE0
7FE0
70E0
E060
E060
F800
7F80
1FE0
01F0
E070
E030
F070
FFE0
DFC0
ENDCHAR
STARTCHAR 0456
ENCODING 1110
SWIDTH 523 0
DWIDTH 16 0
BBX 12 19 2 0
BITMAP
0F00
0F00
0000
0000
0000
7F00
7F00
0700
0700
0700
0700
0700
0700
0700
0700
0700
0700
FFF0
FFF0
ENDCHAR
STARTCHAR 0457
ENCODING 1111
SWIDTH 523 0
DWIDTH 16 0
BBX 12 19 2 0
BITMAP
38E0
38E0
38E0
38E0
0000
7F00
7F00
0700
0700
0700
0700
0700
0700
0700
0700
0700
0700
FFF0
FFF0
ENDCHAR
STARTCHAR 0458
ENCODING 1112
SWIDTH 523 0
DWIDTH 16 0
BBX 11 26 1 -7
BITMAP
01C0
01C0
0000
0000
0000
1FC0
1FE0
00E0
00E0
00E0
00E0
00E0
00E0
00E0
00E0
00E0
00E0
00E0
00E0
00E0
00E0
00C0
00C0
61C0
FF80
7E00
ENDCHAR
STARTCHAR 0459
ENCODING 1113
SWIDTH 523 0
DWIDTH 16 0
BBX 16 14 0 0
BITMAP
7FF0
7FF0
18C0
18C0
18C0
18FC
18FE
18CE
18C6
18C7
58C6
F8CE
FBFE
73FC
ENDCHAR
STARTCHAR 045A
ENCODING 1114
SWIDTH 523 0
DWIDTH 16 0
BBX 16 14 0 0
BITMAP
FFF0
FBF0
30C0
30C0
30C0
3FFC
3FFE
30CE
30C7
30C7
30C6
30CE
FFFE
FFFC
ENDCHAR
STARTCHAR 045B
ENCODING 1115
SWIDTH 523 0
DWIDTH 16 0
BBX 16 19 0 0
BITMAP
F800
F800
1800
FFF8
FFF8
19F0
1BF8
1FF8
1E38
1C1C
1C1C
181C
181C
181C
181C
181C
181C
FF7F
FF7F
ENDCHAR
STARTCHAR 045C
ENCODING 1116
SWIDTH 523 0
DWIDTH 16 0
BBX 16 20 0 0
BITMAP
00E0
07E0
07C0
0400
0000
0000
FF7E
FF7E
1870
18E0
19C0
1B80
1FC0
1EC0
1CE0
1C70
1830
1838
FF3F
FF3F
ENDCHAR
STARTCHAR 045D
ENCODING 1117
SWIDTH 523 0
DWIDTH 16 0
BBX 16 20 0 0
BITMAP
0700
07E0
07E0
00E0
0000
0000
FF7F
FF7F
1818
1838
1878
18F8
19D8
1B98
1B18
1E18
1C18
1818
FF7F
FF7F
ENDCHAR
STARTCHAR 045E
ENCODING 1118
SWIDTH 523 0
DWIDTH 16 0
BBX 14 29 1 -7
BITMAP
1870
3C70
3C70
3870
1FE0
0FC0
0000
0000
FCFC
FCFC
3830
1830
1870
1C60
0C60
0CE0
0EC0
06C0
06C0
0380
0380
0380
0300
0300
0300
6600
EE00
FC00
7800
ENDCHAR
STARTCHAR 045F
ENCODING 1119
SWIDTH 523 0
DWIDTH 16 0
BBX 16 18 0 -4
BITMAP
FF7F
FF7F
1818
1818
1818
1818
1818
1818
1818
1818
1818
1818
FFFF
FFFF
0180
0180
0180
0180
ENDCHAR
STARTCHAR 0460
ENCODING 1120
SWIDTH 523 0
DWIDTH 16 0
BBX 14 19 1 0
BITMAP
3870
7C78
7C78
787C
E01C
E00C
E00C
E00C
E00C
E78C
E78C
E30C
E30C
E31C
E31C
631C
73B8
7FF8
3CF0
ENDCHAR
STARTCHAR 0461
ENCODING 1121
SWIDTH 523 0
DWIDTH 16 0
BBX 16 14 0 0
BITMAP
1C38
3E3E
7C3E
6007
E007
E007
E3C7
E3C3
E187
E187
E187
73CE
3FFE
1E78
ENDCHAR
STARTCHAR 0462
ENCODING 1122
SWIDTH 523 0
DWIDTH 16 0
BBX 14 21 1 0
BITMAP
3F00
3F00
1C00
FFF0
FFF0
DC30
DC30
1C00
1C00
1C00
1FF0
1FF8
1C3C
1C1C
1C1C
1C1C
1C1C
1C1C
1C3C
3FF8
3FF0
ENDCHAR
STARTCHAR 0463
ENCODING 1123
SWIDTH 523 0
DWIDTH 16 0
BBX 13 23 1 0
BITMAP
3000
3000
3000
3000
3000
3000
3000
3000
3000
FF80
FF00
3000
3000
3000
3FE0
3FF0
3038
3038
3018
3038
3038
FFF0
FFE0
ENDCHAR
STARTCHAR 0464
ENCODING 1124
SWIDTH 523 0
DWIDTH 16 0
BBX 15 19 0 0
BITMAP
F87E
F8FE
70CE
71C6
7186
7386
7380
7380
7FF0
7FF0
7380
7380
7380
7186
71C6
71C6
70CE
F8FC
F878
ENDCHAR
STARTCHAR 0465
ENCODING 1125
SWIDTH 523 0
DWIDTH 16 0
BBX 15 14 0 0
BITMAP
FE7E
FEFE
39CE
3B8E
3B86
3FE0
3FE0
3B80
3B80
3B80
398E
39CE
FEFC
FE78
ENDCHAR
STARTCHAR 0466
ENCODING 1126
SWIDTH 523 0
DWIDTH 16 0
BBX 14 19 1 0
BITMAP
0380
0780
0780
07C0
0FC0
0EC0
0CC0
0CE0
1CE0
1CE0
1C60
1FF0
3FF0
3B70
3B30
3330
3338
FFBC
F7BC
ENDCHAR
STARTCHAR 0467
ENCODING 1127
SWIDTH 523 0
DWIDTH 16 0
BBX 14 14 1 0
BITMAP
0380
0780
0780
06C0
0CC0
0CC0
0C60
1860
1FE0
1FF0
3330
3330
FFBC
FFBC
ENDCHAR
STARTCHAR 0468
ENCODING 1128
SWIDTH 523 0
DWIDTH 16 0
BBX 16 19 0 0
BITMAP
F870
F870
7070
70D8
70D8
70D8
70D8
70D8
70D8
71D8
71DC
7FFC
7FFC
71FC
71FC
71FC
73FE
FFFF
FFFF
ENDCHAR
STARTCHAR 0469
ENCODING 1129
SWIDTH 523 0
DWIDTH 16 0
BBX 16 14 0 0
BITMAP
F860
F8F0
70F0
70F0
70F8
71D8
7198
7198
7FF8
7FFC
736C
736C
FFFF
FFFF
ENDCHAR
STARTCHAR 046A
ENCODING 1130
SWIDTH 523 0
DWIDTH 16 0
BBX 16 19 0 0
BITMAP
0FF8
0FF0
0E30
0660
0660
0360
03C0
03C0
03E0
0FF0
1FF8
1D98
1998
399C
398C
318C
318E
F3CF
F3CF
ENDCHAR
STARTCHAR 046B
ENCODING 1131
SWIDTH 523 0
DWIDTH 16 0
BBX 16 14 0 0
BITMAP
1FF8
1FF8
0E30
0660
03C0
03C0
0FF0
0FF8
1DB8
1998
399C
318C
F3CF
F3CF
ENDCHAR
STARTCHAR 046C
ENCODING 1132
SWIDTH 523 0
DWIDTH 16 0
BBX 16 19 0 0
BITMAP
F9FC
F9F8
71D8
70D8
70D8
70F0
7070
7070
7FF0
7FF8
71FC
73EC
73EC
736E
736E
7366
7766
FE77
FE77
ENDCHAR
STARTCHAR 046D
ENCODING 1133
SWIDTH 523 0
DWIDTH 16 0
BBX 16 14 0 0
BITMAP
FBFC
FBFC
6198
60D8
60F0
7FF0
7FF8
63FC
63FC
636C
636E
676E
FEF7
FEF7
ENDCHAR
STARTCHAR 046E
ENCODING 1134
SWIDTH 523 0
DWIDTH 16 0
BBX 15 31 0 -7
BITMAP
1C30
1E78
0FE0
0FC0
07C0
07E0
1FF8
3C3C
381C
300C
300C
001C
0038
03F0
03F8
001C
000C
000E
0006
000E
000E
001E
007C
03F8
0FE0
3F80
7C00
F000
E000
7000
7000
ENDCHAR
STARTCHAR 046F
ENCODING 1135
SWIDTH 523 0
DWIDTH 16 0
BBX 13 26 1 -7
BITMAP
0060
30F0
18C0
0F80
0700
7FC0
FFF0
E070
0030
0070
0FE0
0FF0
0038
0038
0018
0038
0078
07F0
3FE0
7FC0
7C00
E000
E000
6000
7E00
3E00
ENDCHAR
STARTCHAR 0470
ENCODING 1136
SWIDTH 523 0
DWIDTH 16 0
BBX 14 19 1 0
BITMAP
0FE0
0FE0
0300
0300
E31C
F31C
7338
7338
7338
7338
3B38
3FF0
1FE0
0FC0
0300
0300
0300
0FE0
0FE0
ENDCHAR
STARTCHAR 0471
ENCODING 1137
SWIDTH 523 0
DWIDTH 16 0
BBX 17 26 0 -7
BITMAP
1F8000
1F8000
018000
018000
018000
E18380
F18700
718400
718E00
718E00
718E00
718600
718600
718600
718600
718E00
399C00
1FF800
07F000
018000
018000
018000
018000
018000
1FF800
1FF800
ENDCHAR
STARTCHAR 0472
ENCODING 1138
SWIDTH 523 0
DWIDTH 16 0
BBX 12 19 2 0
BITMAP
3FC0
7FF0
E070
E070
E030
C030
C030
C030
FFF0
FFF0
C030
C030
C030
C030
E030
E070
F070
7FF0
3FC0
ENDCHAR
STARTCHAR 0473
ENCODING 1139
SWIDTH 523 0
DWIDTH 16 0
BBX 14 14 1 0
BITMAP
0FC0
3FF0
7878
7038
601C
FFFC
FFFC
E01C
E01C
601C
7038
3878
1FF0
0FC0
ENDCHAR
STARTCHAR 0474
ENCODING 1140
SWIDTH 523 0
DWIDTH 16 0
BBX 15 19 1 0
BITMAP
F81C
F87E
707E
7064
30E0
30E0
38E0
38C0
39C0
19C0
19C0
1DC0
1D80
1D80
0F80
0F80
0F00
0F00
0700
ENDCHAR
STARTCHAR 0475
ENCODING 1141
SWIDTH 523 0
DWIDTH 16 0
BBX 15 14 1 0
BITMAP
FC1C
FC3E
3874
3860
38E0
18E0
1CE0
1CC0
1DC0
0DC0
0FC0
0F80
0780
0700
ENDCHAR
STARTCHAR 0476
ENCODING 1142
SWIDTH 523 0
DWIDTH 16 0
BBX 16 24 0 0
BITMAP
7F80
FFE0
1FE0
0000
0000
7C0E
7C3F
383F
3836
1870
1870
1C70
1C60
1CE0
0CE0
0CE0
0EE0
0EC0
0EC0
07C0
07C0
0780
0780
0380
ENDCHAR
STARTCHAR 0477
ENCODING 1143
SWIDTH 523 0
DWIDTH 16 0
BBX 16 19 0 0
BITMAP
F380
FFF0
3CF8
0C30
0000
7E0E
7E1F
1C3A
1C30
1C70
0C70
0E70
0E60
0EE0
06E0
07C0
07C0
03C0
03C0
ENDCHAR
STARTCHAR 047A
ENCODING 1146
SWIDTH 523 0
DWIDTH 16 0
BBX 14 21 1 -1
BITMAP
0300
3FF0
7FF8
7338
731C
631C
E31C
E01C
E01C
E01C
E01C
E01C
E01C
E01C
E31C
631C
731C
7338
7FF8
3FF0
0300
ENDCHAR
STARTCHAR 047B
ENCODING 1147
SWIDTH 523 0
DWIDTH 16 0
BBX 14 16 1 -1
BITMAP
0300
0FE0
3FF0
7FF8
7338
631C
E01C
E01C
E01C
E01C
E31C
7318
7B38
3FF0
0FE0
0300
ENDCHAR
STARTCHAR 047C
ENCODING 1148
SWIDTH 523 0
DWIDTH 16 0
BBX 17 27 -1 0
BITMAP
07F800
1FFE00
3C0F00
700380
600700
E0EE00
01E400
01E000
0FDC00
1F1E00
1F1E00
1E1F00
380700
380300
380300
380300
380300
39E300
39E300
38C300
38C300
38C700
38C700
18C700
1CEE00
1FFE00
0F3C00
ENDCHAR
STARTCHAR 047D
ENCODING 1149
SWIDTH 523 0
DWIDTH 16 0
BBX 16 21 0 0
BITMAP
0FE0
3FF8
781E
E00E
E1C6
C3C6
07C0
1FBC
7E3E
7C3E
E007
E007
E3C7
E3C3
E187
E187
E187
6187
73CE
3FFC
1E78
ENDCHAR
STARTCHAR 047E
ENCODING 1150
SWIDTH 523 0
DWIDTH 16 0
BBX 14 26 1 0
BITMAP
3FF8
7FF8
7338
7338
3338
0000
0000
3870
7C78
7C78
787C
E01C
E00C
E00C
E00C
E00C
E78C
E78C
E30C
E30C
E31C
E31C
631C
73B8
7FF8
3CF0
ENDCHAR
STARTCHAR 047F
ENCODING 1151
SWIDTH 523 0
DWIDTH 16 0
BBX 16 21 0 0
BITMAP
1FFC
3FFC
399C
399C
199C
0000
0000
1C38
3E3E
7C3E
6007
E007
E007
E3C7
E3C3
E187
E187
E187
73CE
3FFE
1E78
ENDCHAR
STARTCHAR 0480
ENCODING 1152
SWIDTH 523 0
DWIDTH 16 0
BBX 15 26 1 -7
BITMAP
07CC
1FFC
383C
301C
601C
600C
6000
E000
C000
C000
C000
E000
E000
6000
6000
7000
3C00
3F80
0FF0
03F8
007C
000E
0006
0006
000E
000C
ENDCHAR
STARTCHAR 0481
ENCODING 1153
SWIDTH 523 0
DWIDTH 16 0
BBX 13 21 2 -7
BITMAP
0FC0
3FF0
7070
6030
E000
C000
C000
C000
E000
E000
7800
3F00
1FC0
07E0
00F0
0038
0018
0018
0018
0078
0070
ENDCHAR
STARTCHAR 0482
ENCODING 1154
SWIDTH 523 0
DWIDTH 16 0
BBX 13 10 2 -3
BITMAP
0300
6380
73F8
3FF8
7E78
7E38
E710
C200
E000
4000
ENDCHAR
STARTCHAR 0483
ENCODING 1155
SWIDTH 523 0
DWIDTH 16 0
BBX 14 6 1 16
BITMAP
000C
E01C
FF1C
FFFC
E1FC
E000
ENDCHAR
STARTCHAR 0484
ENCODING 1156
SWIDTH 523 0
DWIDTH 16 0
BBX 17 7 0 14
BITMAP
0FE000
3FF800
783C00
E00E00
E00700
C00380
000180
ENDCHAR
STARTCHAR 0485
ENCODING 1157
SWIDTH 523 0
DWIDTH 16 0
BBX 8 3 4 16
BITMAP
7E
FF
66
ENDCHAR
STARTCHAR 0486
ENCODING 1158
SWIDTH 523 0
DWIDTH 16 0
BBX 7 3 5 16
BITMAP
FC
FE
CE
ENDCHAR
STARTCHAR 0488
ENCODING 1160
SWIDTH 523 0
DWIDTH 16 0
BBX 24 31 -4 -8
BITMAP
003C00
007E00
007E00
0E7E78
1F7EFC
3FBCFC
3F80FC
1F00FC
0E0078
000000
000000
000000
000000
78000E
FC003F
FC003F
FC003F
FC003F
78001E
000000
000000
000000
0E0078
1F00FC
3F80FC
3F9CFC
1F3EFC
0E7E78
007E00
007E00
003C00
ENDCHAR
STARTCHAR 0489
ENCODING 1161
SWIDTH 523 0
DWIDTH 16 0
BBX 30 39 -7 -12
BITMAP
00018000
00030000
00060000
02078000
020FC000
060FC000
040FC3F0
05CFCF00
07E7DF80
07F31F80
07F01F80
03E01F80
01C00F00
00000000
00000000
00000000
80000000
8F0001C0
DF8007F0
5F8007F0
3F8007E8
1F8007EC
0F0003C4
00000004
00000000
00000000
01C00F00
03E01F80
07F01F80
07F31F80
07E7DF80
03CFCF80
3F0FC080
000FC080
0007C180
00038100
00018000
00030000
00060000
ENDCHAR
STARTCHAR 048A
ENCODING 1162
SWIDTH 523 0
DWIDTH 16 0
BBX 15 32 1 -5
BITMAP
1870
3CF0
3CF0
3870
1FE0
0FC0
0000
0000
F87E
F87E
7018
7038
7078
70D8
70D8
71D8
7198
7318
7718
7618
7C18
7C18
7818
7018
7018
F87E
F87E
0006
0006
0006
0006
0006
ENDCHAR
STARTCHAR 048B
ENCODING 1163
SWIDTH 523 0
DWIDTH 16 0
BBX 16 26 0 -4
BITMAP
0C38
1E78
1E78
1C38
0FF0
07E0
0000
0000
FF7F
FF7F
1818
1838
1878
18F8
19D8
1B98
1B18
1E18
1C18
1818
FF7F
FF7F
0003
0003
0003
0003
ENDCHAR
STARTCHAR 048C
ENCODING 1164
SWIDTH 523 0
DWIDTH 16 0
BBX 14 19 1 0
BITMAP
3F00
3F00
1C00
FFF8
FFF8
1C00
1C00
1C00
1FF0
1FF8
1C3C
1C1C
1C1C
1C1C
1C1C
1C1C
1C3C
3FF8
3FF0
ENDCHAR
STARTCHAR 048D
ENCODING 1165
SWIDTH 523 0
DWIDTH 16 0
BBX 14 21 0 0
BITMAP
F800
F800
1800
1800
1800
1800
1800
7FF0
7FF0
1800
1800
1800
1FF0
1FF8
181C
180C
180C
180C
181C
7FF8
7FF0
ENDCHAR
STARTCHAR 048E
ENCODING 1166
SWIDTH 523 0
DWIDTH 16 0
BBX 14 19 1 0
BITMAP
FFE0
FFF0
3038
3018
301C
301C
301C
301C
31BC
31F8
3FF0
3FF8
301C
3008
3000
3000
3000
FC00
FC00
ENDCHAR
STARTCHAR 048F
ENCODING 1167
SWIDTH 523 0
DWIDTH 16 0
BBX 17 21 0 -7
BITMAP
F9F000
FFF800
1E1C00
1C0E00
180E00
180600
180600
183E00
183E00
1C1E00
1C0F00
1E1F80
1FF900
19F000
180000
180000
180000
180000
180000
FF0000
FF0000
ENDCHAR
STARTCHAR 0490
ENCODING 1168
SWIDTH 523 0
DWIDTH 16 0
BBX 14 24 1 0
BITMAP
001C
001C
001C
001C
001C
FFFC
FFFC
1C00
1C00
1C00
1C00
1C00
1C00
1C00
1C00
1C00
1C00
1C00
1C00
1C00
1C00
1C00
FF80
FF80
ENDCHAR
STARTCHAR 0491
ENCODING 1169
SWIDTH 523 0
DWIDTH 16 0
BBX 14 16 1 0
BITMAP
0018
001C
FFFC
FFF8
1C00
1C00
1C00
1C00
1C00
1C00
1C00
1C00
1C00
1C00
FF80
FF80
ENDCHAR
STARTCHAR 0492
ENCODING 1170
SWIDTH 523 0
DWIDTH 16 0
BBX 15 19 0 0
BITMAP
7FFE
7FFE
0E0E
0E0E
0E0E
0E00
0E00
0E00
FFE0
FFE0
0E00
0E00
0E00
0E00
0E00
0E00
0E00
7FC0
7FC0
ENDCHAR
STARTCHAR 0493
ENCODING 1171
SWIDTH 523 0
DWIDTH 16 0
BBX 14 14 1 0
BITMAP
FFF8
FFFC
1C1C
1C18
1C00
7F80
7F80
1C00
1C00
1C00
1C00
1C00
FF80
FF80
ENDCHAR
STARTCHAR 0494
ENCODING 1172
SWIDTH 523 0
DWIDTH 16 0
BBX 14 26 1 -7
BITMAP
FFF0
FFF0
3030
3030
3030
3000
3000
3000
3F80
3FE0
30F0
3038
3038
301C
301C
301C
301C
FE1C
FE1C
001C
001C
0018
0038
0C70
0FE0
07C0
ENDCHAR
STARTCHAR 0495
ENCODING 1173
SWIDTH 523 0
DWIDTH 16 0
BBX 14 21 1 -7
BITMAP
FFF8
FFFC
1C1C
1C18
1C00
1FC0
1FF0
1C78
1C3C
1C1C
1C1C
1C0C
FF8C
FF8C
000C
000C
001C
0018
0E38
0FF0
07C0
ENDCHAR
STARTCHAR 0496
ENCODING 1174
SWIDTH 523 0
DWIDTH 16 0
BBX 16 24 0 -5
BITMAP
FBCF
F3CF
318C
398C
1998
1D98
0DB0
0FB0
0FF0
0FF0
1FD8
1BD8
19D8
398C
318C
318E
7186
F3CF
F3CF
0003
0003
0003
0003
0003
ENDCHAR
STARTCHAR 0497
ENCODING 1175
SWIDTH 523 0
DWIDTH 16 0
BBX 16 18 0 -4
BITMAP
7FEF
7FEF
199C
1D98
0DB0
0FF0
0FF0
0FF8
1FD8
1998
399C
318C
FFFF
FFFF
0003
0003
0003
0003
ENDCHAR
STARTCHAR 0498
ENCODING 1176
SWIDTH 523 0
DWIDTH 16 0
BBX 13 26 2 -7
BITMAP
DF80
FFE0
F0E0
E070
E070
E070
C070
00E0
1FC0
1FE0
00F0
0030
C038
C038
C038
E030
F0F0
7FE0
1FC0
0700
0780
01C0
01C0
01C0
3F80
3E00
ENDCHAR
STARTCHAR 0499
ENCODING 1177
SWIDTH 523 0
DWIDTH 16 0
BBX 12 21 2 -7
BITMAP
FF80
FFE0
E070
C070
00F0
1FE0
0FE0
00F0
C070
C030
C070
E0F0
7FE0
3FC0
0E00
0F80
0380
0180
0380
7F00
7E00
ENDCHAR
STARTCHAR 049A
ENCODING 1178
SWIDTH 523 0
DWIDTH 16 0
BBX 14 24 1 -5
BITMAP
F8FC
F8FC
3070
30E0
31C0
3180
3380
3700
3F00
3F80
3D80
39C0
30C0
30E0
3060
3070
3030
FC7C
F87C
000C
000C
000C
000C
000C
ENDCHAR
STARTCHAR 049B
ENCODING 1179
SWIDTH 523 0
DWIDTH 16 0
BBX 16 18 0 -4
BITMAP
FF7E
FF7E
1870
18E0
19C0
1B80
1FC0
1EC0
1CE0
1C70
1830
1838
FF7F
FF3F
0003
0003
0003
0003
ENDCHAR
STARTCHAR 049C
ENCODING 1180
SWIDTH 523 0
DWIDTH 16 0
BBX 14 19 1 0
BITMAP
F87C
F87C
6070
6E60
6EE0
6FC0
6F80
7F00
7F00
6F80
6F80
6FC0
6CC0
60E0
6060
6030
6038
F83C
F83C
ENDCHAR
STARTCHAR 049D
ENCODING 1181
SWIDTH 523 0
DWIDTH 16 0
BBX 16 14 0 0
BITMAP
FE7E
FE7E
3838
3B30
3B70
3FE0
3FE0
3B70
3B70
3838
3818
381C
FE3F
FE3F
ENDCHAR
STARTCHAR 049E
ENCODING 1182
SWIDTH 523 0
DWIDTH 16 0
BBX 15 19 0 0
BITMAP
7E7E
7E7E
1838
FE70
FE60
18C0
19C0
1B80
1B80
1FC0
1EC0
1CE0
1860
1870
1830
1838
1818
7E3E
7E3E
ENDCHAR
STARTCHAR 049F
ENCODING 1183
SWIDTH 523 0
DWIDTH 16 0
BBX 16 19 0 0
BITMAP
F800
F800
1800
7E00
7E00
187E
187E
1870
18E0
19C0
1B80
1FC0
1EC0
1CE0
1C70
1830
1838
FF3F
FF3F
ENDCHAR
STARTCHAR 04A0
ENCODING 1184
SWIDTH 523 0
DWIDTH 16 0
BBX 14 19 1 0
BITMAP
FF7C
FF7C
CC30
CC70
CC60
0CE0
0CC0
0DC0
0DC0
0FC0
0FC0
0E60
0E60
0C70
0C30
0C38
0C18
1F3C
1F3C
ENDCHAR
STARTCHAR 04A1
ENCODING 1185
SWIDTH 523 0
DWIDTH 16 0
BBX 15 14 1 0
BITMAP
FF7C
FF7C
CC70
CCE0
0DC0
0D80
0FC0
0FC0
0EE0
0C60
0C30
0C38
3F7E
3F7E
ENDCHAR
STARTCHAR 04A2
ENCODING 1186
SWIDTH 523 0
DWIDTH 16 0
BBX 15 24 1 -5
BITMAP
FCFE
FCFE
7038
7038
7038
7038
7038
7038
7FF8
7FF8
7038
7038
7038
7038
7038
7038
7038
FCFE
FCFE
0006
0006
0006
0006
0006
ENDCHAR
STARTCHAR 04A3
ENCODING 1187
SWIDTH 523 0
DWIDTH 16 0
BBX 16 18 0 -4
BITMAP
FF7F
FF7F
1818
1818
1818
1FF8
1FF8
1818
1818
1818
1818
1818
FF7F
FF7F
0003
0003
0003
0003
ENDCHAR
STARTCHAR 04A4
ENCODING 1188
SWIDTH 523 0
DWIDTH 16 0
BBX 16 19 0 0
BITMAP
FDFE
FDFF
38E7
38E7
38E6
38E0
38E0
38E0
3FE0
3FE0
38E0
38E0
38E0
38E0
38E0
38E0
38E0
FDF0
FDF0
ENDCHAR
STARTCHAR 04A5
ENCODING 1189
SWIDTH 523 0
DWIDTH 16 0
BBX 16 14 0 0
BITMAP
FDFF
FDFF
3067
3067
3060
3FE0
3FE0
3060
3060
3060
3060
3060
FDF8
FDF8
ENDCHAR
STARTCHAR 04A6
ENCODING 1190
SWIDTH 523 0
DWIDTH 16 0
BBX 16 26 0 -7
BITMAP
FFE0
FFE0
71C0
71C0
71C0
71C0
71C0
71C0
71F8
71FC
71CE
71CE
71C7
71C7
71C7
71C7
71C3
FBE3
FBE3
0007
0007
0007
0006
030E
03FC
01F0
ENDCHAR
STARTCHAR 04A7
ENCODING 1191
SWIDTH 523 0
DWIDTH 16 0
BBX 17 21 0 -7
BITMAP
FFF800
FFF800
306000
306000
306000
307C00
307E00
306F00
306700
306300
306380
306380
FDFB80
FDFB80
000380
000380
000300
000700
018E00
01FC00
00F800
ENDCHAR
STARTCHAR 04A8
ENCODING 1192
SWIDTH 523 0
DWIDTH 16 0
BBX 14 22 2 -3
BITMAP
3FC0
7FE0
E000
E000
C000
C000
C3F0
C7F0
C730
C630
C638
C630
C630
C630
E630
E630
E670
7FF0
3FE0
0380
03FC
00FC
ENDCHAR
STARTCHAR 04A9
ENCODING 1193
SWIDTH 523 0
DWIDTH 16 0
BBX 13 17 2 -3
BITMAP
1FC0
7FC0
F000
E000
C3F0
C3F0
C738
C638
C638
E630
E670
7FF0
7FE0
1F80
0380
01F8
00F8
ENDCHAR
STARTCHAR 04AA
ENCODING 1194
SWIDTH 523 0
DWIDTH 16 0
BBX 14 26 1 -7
BITMAP
07CC
1FFC
3C3C
383C
701C
701C
600C
E000
E000
E000
E000
E000
E000
600C
701C
781C
3C38
1FF8
07E0
03C0
01E0
0070
0070
00E0
0FE0
0F80
ENDCHAR
STARTCHAR 04AB
ENCODING 1195
SWIDTH 523 0
DWIDTH 16 0
BBX 12 21 2 -7
BITMAP
0FE0
3FF0
7830
7000
E000
E000
E000
E000
E000
E030
7030
7CF0
3FE0
0FC0
0380
03C0
00E0
00E0
00E0
1FC0
1F80
ENDCHAR
STARTCHAR 04AC
ENCODING 1196
SWIDTH 523 0
DWIDTH 16 0
BBX 14 24 1 -5
BITMAP
FFFC
FFFC
C30C
C30C
C30C
0300
0300
0300
0300
0300
0300
0300
0300
0300
0300
0300
0300
1FE0
1FE0
0060
0060
0060
0060
0060
ENDCHAR
STARTCHAR 04AD
ENCODING 1197
SWIDTH 523 0
DWIDTH 16 0
BBX 14 18 1 -4
BITMAP
FFFC
FFFC
C30C
C30C
0300
0300
0300
0300
0300
0300
0300
0300
3FF0
3FF8
0038
0038
0038
0010
ENDCHAR
STARTCHAR 04AE
ENCODING 1198
SWIDTH 523 0
DWIDTH 16 0
BBX 15 19 1 0
BITMAP
FC7E
FC7E
3830
3870
1C70
1CE0
0CE0
0EC0
0FC0
0780
0780
0300
0300
0300
0300
0300
0300
0FC0
0FC0
ENDCHAR
STARTCHAR 04AF
ENCODING 1199
SWIDTH 523 0
DWIDTH 16 0
BBX 15 21 1 -7
BITMAP
FEFE
FEFE
3870
3870
1C70
1CE0
1CE0
0CE0
0EC0
0FC0
07C0
0780
0780
0380
0300
0300
0300
0300
0300
1FE0
1FE0
ENDCHAR
STARTCHAR 04B0
ENCODING 1200
SWIDTH 523 0
DWIDTH 16 0
BBX 15 19 1 0
BITMAP
FC7E
FC7E
3830
3870
1C60
1CE0
0CE0
0FC0
07C0
0780
0380
3FF0
3FF0
0300
0300
0300
0300
0FC0
0FC0
ENDCHAR
STARTCHAR 04B1
ENCODING 1201
SWIDTH 523 0
DWIDTH 16 0
BBX 15 21 1 -7
BITMAP
FEFE
FEFE
3870
3870
1C70
1CE0
1CE0
0CE0
0EC0
0FC0
07C0
0780
0780
0380
3FF0
3FF0
0300
0300
0300
1FE0
1FE0
ENDCHAR
STARTCHAR 04B2
ENCODING 1202
SWIDTH 523 0
DWIDTH 16 0
BBX 15 24 1 -5
BITMAP
FDF8
FDF8
18E0
1CE0
0DC0
0FC0
0780
0780
0300
0780
0780
0FC0
0FC0
0CE0
1CE0
1860
3870
FCFC
FCFE
000E
000E
000E
000E
0004
ENDCHAR
STARTCHAR 04B3
ENCODING 1203
SWIDTH 523 0
DWIDTH 16 0
BBX 15 18 1 -4
BITMAP
FCFC
FDFC
1CE0
0CC0
0FC0
0780
0300
0380
0780
0CC0
0CE0
1860
FCFC
FCFE
000E
000E
000E
0004
ENDCHAR
STARTCHAR 04B4
ENCODING 1204
SWIDTH 523 0
DWIDTH 16 0
BBX 15 24 1 -5
BITMAP
FF7E
FF7E
DB18
DB18
DB18
1818
1818
1818
1818
1818
1818
1818
1818
1818
1818
1818
1818
7FFE
7FFE
0006
0006
0006
0006
0006
ENDCHAR
STARTCHAR 04B5
ENCODING 1205
SWIDTH 523 0
DWIDTH 16 0
BBX 16 18 0 -4
BITMAP
FFBF
FFBF
FF8C
FD8C
1C0C
1C0C
1C0C
1C0C
1C0C
1C0C
1C0C
1C0C
7FFF
7FFF
0003
0003
0003
0003
ENDCHAR
STARTCHAR 04B6
ENCODING 1206
SWIDTH 523 0
DWIDTH 16 0
BBX 15 24 1 -5
BITMAP
FCFE
FCFE
7038
7038
7038
7038
7038
7038
3038
3838
1FF8
0FF8
0038
0038
0038
0038
0038
00FE
00FE
0006
0006
0006
0006
0006
ENDCHAR
STARTCHAR 04B7
ENCODING 1207
SWIDTH 523 0
DWIDTH 16 0
BBX 16 18 0 -4
BITMAP
FF7F
FF7F
1818
1818
1818
1818
1C18
0FF8
07F8
0018
0018
0018
007F
007F
0003
0003
0003
0003
ENDCHAR
STARTCHAR 04B8
ENCODING 1208
SWIDTH 523 0
DWIDTH 16 0
BBX 15 19 1 0
BITMAP
FCFE
FCFE
7038
7038
7038
7038
7338
3338
3B38
3FF8
0FF8
0338
0338
0338
0338
0038
0038
00FE
00FE
ENDCHAR
STARTCHAR 04B9
ENCODING 1209
SWIDTH 523 0
DWIDTH 16 0
BBX 16 14 0 0
BITMAP
FF7F
FF7F
1818
1818
1818
1998
1D98
0FF8
07F8
0198
0198
0018
007F
007F
ENDCHAR
STARTCHAR 04BA
ENCODING 1210
SWIDTH 523 0
DWIDTH 16 0
BBX 15 19 1 0
BITMAP
FC00
FC00
7000
73E0
7FF0
7C70
7838
7838
7038
7038
7038
7038
7038
7038
7038
7038
7038
FCFE
FCFE
ENDCHAR
STARTCHAR 04BB
ENCODING 1211
SWIDTH 523 0
DWIDTH 16 0
BBX 16 19 0 0
BITMAP
F800
F800
1800
1800
1800
19F0
1FF8
1E38
1C18
1C18
1818
1818
1818
1818
1818
1818
1818
FF7F
FF7F
ENDCHAR
STARTCHAR 04BC
ENCODING 1212
SWIDTH 523 0
DWIDTH 16 0
BBX 15 19 1 0
BITMAP
01F0
03F8
071C
0E1C
CE0E
CC0E
CC0E
FC0E
7FFE
3FFE
1C00
1C00
0C00
0C00
0E00
0E0E
078E
03FC
01F0
ENDCHAR
STARTCHAR 04BD
ENCODING 1213
SWIDTH 523 0
DWIDTH 16 0
BBX 14 14 1 0
BITMAP
01E0
03F0
0738
CE18
CE1C
EC1C
7FFC
3FFC
0E00
0E00
0E1C
071C
03F8
01F0
ENDCHAR
STARTCHAR 04BE
ENCODING 1214
SWIDTH 523 0
DWIDTH 16 0
BBX 15 26 1 -7
BITMAP
01F0
03F8
071C
0E1C
CE0E
CC0E
CC0E
FC0E
7FFE
3FFE
1C00
1C00
0C00
0C00
0E00
0E0E
070E
03FC
01F8
01E0
01C0
0380
0300
0398
01F8
00F0
ENDCHAR
STARTCHAR 04BF
ENCODING 1215
SWIDTH 523 0
DWIDTH 16 0
BBX 14 21 1 -7
BITMAP
01E0
07F0
0738
CE18
CE1C
EC1C
7FFC
3FFC
0E00
0E0C
0E1C
07B8
03F8
01F0
03C0
0700
0600
0600
0730
03F0
01E0
ENDCHAR
STARTCHAR 04C0
ENCODING 1216
SWIDTH 523 0
DWIDTH 16 0
BBX 12 19 2 0
BITMAP
FFF0
FFF0
0600
0600
0600
0600
0600
0600
0600
0600
0600
0600
0600
0600
0600
0600
0600
FFF0
FFF0
ENDCHAR
STARTCHAR 04C1
ENCODING 1217
SWIDTH 523 0
DWIDTH 16 0
BBX 16 26 0 0
BITMAP
180C
381C
181C
1C38
0FF0
03E0
0000
FBCF
F3CF
318C
398C
1998
1D98
0DB0
0FB0
0FF0
0FF0
1FD8
1BD8
19D8
398C
318C
318E
7186
F3CF
F3CF
ENDCHAR
STARTCHAR 04C2
ENCODING 1218
SWIDTH 523 0
DWIDTH 16 0
BBX 16 21 0 0
BITMAP
380C
381C
1C38
0FF8
07E0
0000
0000
7FEF
7FEF
199C
1D98
0DB0
0FF0
0FF0
0FF8
1FD8
1998
399C
318C
FFEF
FFEF
ENDCHAR
STARTCHAR 04C3
ENCODING 1219
SWIDTH 523 0
DWIDTH 16 0
BBX 14 26 1 -7
BITMAP
FCFC
F8FC
3070
30E0
30C0
3180
3380
3700
3FC0
3FE0
30F0
3038
3038
301C
301C
301C
301C
FC1C
F81C
001C
001C
0018
0038
0C78
0FF0
07C0
ENDCHAR
STARTCHAR 04C4
ENCODING 1220
SWIDTH 523 0
DWIDTH 16 0
BBX 15 21 0 -7
BITMAP
FF7E
FF7E
1870
18E0
19C0
1FE0
1FF8
1838
181C
181C
180C
180E
FF0E
FF0E
000E
000C
001C
001C
0638
0FF0
07E0
ENDCHAR
STARTCHAR 04C5
ENCODING 1221
SWIDTH 523 0
DWIDTH 16 0
BBX 15 24 1 -5
BITMAP
3FFE
3FFE
0C38
0C38
0C38
0C38
0C38
0C38
0C38
0C38
0C38
0C38
0C38
0C38
0C38
DC38
D838
F8FE
70FE
000C
0018
0038
0030
0030
ENDCHAR
STARTCHAR 04C6
ENCODING 1222
SWIDTH 523 0
DWIDTH 16 0
BBX 15 18 1 -4
BITMAP
7FFE
7FFE
0C30
0C30
0C30
0C30
0C30
0C30
0C30
0C30
1C30
D830
F8FE
F0FE
001C
0038
0070
0060
ENDCHAR
STARTCHAR 04C7
ENCODING 1223
SWIDTH 523 0
DWIDTH 16 0
BBX 15 26 1 -7
BITMAP
FCFE
FCFE
7038
7038
7038
7038
7038
7038
7FF8
7FF8
7038
7038
7038
7038
7038
7038
7038
FC38
FC38
0038
0038
0038
0038
0670
0FF0
07C0
ENDCHAR
STARTCHAR 04C8
ENCODING 1224
SWIDTH 523 0
DWIDTH 16 0
BBX 16 21 0 -7
BITMAP
FF7F
FF7F
1818
1818
1818
1FF8
1FF8
1818
1818
1818
1818
1818
FF18
FF18
0018
0018
0018
0018
0198
01F0
00E0
ENDCHAR
STARTCHAR 04C9
ENCODING 1225
SWIDTH 523 0
DWIDTH 16 0
BBX 15 24 1 -5
BITMAP
FCFE
FCFE
7038
7038
7038
7038
7038
7038
7FF8
7FF8
7038
7038
7038
7038
7038
7038
7038
FCFE
FCFE
000C
001C
0018
0030
0030
ENDCHAR
STARTCHAR 04CA
ENCODING 1226
SWIDTH 523 0
DWIDTH 16 0
BBX 16 18 0 -4
BITMAP
FF7F
FF7F
1818
1818
1818
1FF8
1FF8
1818
1818
1818
1818
1818
FF7F
FF7F
000E
001C
0038
0030
ENDCHAR
STARTCHAR 04CB
ENCODING 1227
SWIDTH 523 0
DWIDTH 16 0
BBX 15 24 1 -5
BITMAP
FCFE
FCFE
7038
7038
7038
7038
7038
7038
3038
3838
1FF8
0FF8
0038
0038
0038
0038
0038
00FE
00FE
00C0
00C0
00C0
00C0
00C0
ENDCHAR
STARTCHAR 04CC
ENCODING 1228
SWIDTH 523 0
DWIDTH 16 0
BBX 16 18 0 -4
BITMAP
FF7F
FF7F
1818
1818
1818
1818
1C18
0FF8
07F8
0018
0018
0018
00FF
00FF
00C0
00C0
00C0
00C0
ENDCHAR
STARTCHAR 04CD
ENCODING 1229
SWIDTH 523 0
DWIDTH 16 0
BBX 16 24 0 -5
BITMAP
F81F
FC1F
3C3C
3C3C
363C
366C
366C
366C
334C
33CC
33CC
31CC
318C
300C
300C
300C
300C
FC1F
FC1F
0006
000E
000C
001C
0018
ENDCHAR
STARTCHAR 04CE
ENCODING 1230
SWIDTH 523 0
DWIDTH 16 0
BBX 16 18 0 -4
BITMAP
FC1F
FC3F
343C
366C
366C
336C
33CC
33CC
31CC
300C
300C
300C
FE3F
FC3F
0006
000C
001C
0018
ENDCHAR
STARTCHAR 04D0
ENCODING 1232
SWIDTH 523 0
DWIDTH 16 0
BBX 14 26 1 0
BITMAP
6030
7030
7030
3870
1FE0
0F80
0000
0780
0780
0780
07C0
0FC0
0EC0
0EC0
0CC0
0CE0
1CE0
1CE0
1C60
1FF0
3FF0
3870
3830
3830
FCFC
FCFC
ENDCHAR
STARTCHAR 04D1
ENCODING 1233
SWIDTH 523 0
DWIDTH 16 0
BBX 15 21 1 0
BITMAP
3018
3038
3878
1FF0
0FC0
0000
0000
3F80
3FE0
3070
0070
0030
07F0
3FF0
7C30
7030
E030
6070
70F0
3FFE
1F1E
ENDCHAR
STARTCHAR 04D2
ENCODING 1234
SWIDTH 523 0
DWIDTH 16 0
BBX 14 25 1 0
BITMAP
1870
3C70
3CF0
1870
0000
0000
0780
0780
0780
07C0
0FC0
0EC0
0EC0
0CC0
0CE0
1CE0
1CE0
1C60
1FF0
3FF0
3870
3830
3830
FCFC
FCFC
ENDCHAR
STARTCHAR 04D3
ENCODING 1235
SWIDTH 523 0
DWIDTH 16 0
BBX 15 19 1 0
BITMAP
1870
3C70
3C70
1870
0000
3F80
3FE0
3070
0070
0030
07F0
3FF0
7C30
7030
E030
6070
70F0
3FFE
1F1E
ENDCHAR
STARTCHAR 04D4
ENCODING 1236
SWIDTH 523 0
DWIDTH 16 0
BBX 14 19 1 0
BITMAP
1FFC
1FFC
0D8C
0D8C
0D8C
1980
1980
1980
19FC
19FC
3980
3F80
3F80
3180
318C
718C
718C
FBFC
FBFC
ENDCHAR
STARTCHAR 04D5
ENCODING 1237
SWIDTH 523 0
DWIDTH 16 0
BBX 15 14 1 0
BITMAP
7C70
FFF8
678C
038C
030C
030E
1FFE
7FFC
E300
C380
C386
E7CC
FFFC
7C78
ENDCHAR
STARTCHAR 04D6
ENCODING 1238
SWIDTH 523 0
DWIDTH 16 0
BBX 15 26 1 0
BITMAP
3018
3018
3038
3870
1FE0
07C0
0000
FFFC
FFFC
301C
301C
301C
3000
30C0
30E0
3FE0
3FE0
30E0
30C0
3000
300C
300E
300E
300E
FFFE
FFFC
ENDCHAR
STARTCHAR 04D7
ENCODING 1239
SWIDTH 523 0
DWIDTH 16 0
BBX 13 21 1 0
BITMAP
6030
7030
3870
3FE0
0FC0
0000
0000
0FC0
1FF0
3870
7038
7038
6018
FFF8
FFF8
6000
7000
7018
3C38
1FF0
07E0
ENDCHAR
STARTCHAR 04D8
ENCODING 1240
SWIDTH 523 0
DWIDTH 16 0
BBX 16 19 0 0
BITMAP
67C0
7FF0
7878
701C
700E
600E
0006
0006
0007
FFFF
FFFE
E006
E006
600E
700E
701C
3C38
1FF0
07C0
ENDCHAR
STARTCHAR 04D9
ENCODING 1241
SWIDTH 523 0
DWIDTH 16 0
BBX 13 14 1 0
BITMAP
7F80
7FE0
70F0
0078
0038
0038
0018
FFF8
FFF8
E038
7038
7070
3FE0
0F80
ENDCHAR
STARTCHAR 04DA
ENCODING 1242
SWIDTH 523 0
DWIDTH 16 0
BBX 16 25 0 0
BITMAP
0C38
1E38
1E78
0C30
0000
0000
67C0
7FF0
7C38
701C
700E
600E
0006
0006
0007
FFFF
FFFF
E006
E006
600E
700E
701C
3C38
1FF0
07C0
ENDCHAR
STARTCHAR 04DB
ENCODING 1243
SWIDTH 523 0
DWIDTH 16 0
BBX 13 19 1 0
BITMAP
1860
3CF0
38F0
3860
0000
7F80
7FE0
70F0
0078
0038
0038
0018
FFF8
FFF8
E038
7038
7070
3FE0
0F80
ENDCHAR
STARTCHAR 04DC
ENCODING 1244
SWIDTH 523 0
DWIDTH 16 0
BBX 16 25 0 0
BITMAP
0C38
1E38
1E78
0C38
0000
0000
FBCF
F3CF
318C
398C
1998
1D98
0DB0
0FB0
0FF0
0FF0
1FD8
1BD8
19D8
398C
318C
318E
7186
F3CF
F3CF
ENDCHAR
STARTCHAR 04DD
ENCODING 1245
SWIDTH 523 0
DWIDTH 16 0
BBX 16 19 0 0
BITMAP
0C38
1E38
1E78
0C38
0000
7FEF
7FEF
199C
1D98
0DB0
0FF0
0FF0
0FF8
1FD8
1998
399C
318C
FFEF
FFEF
ENDCHAR
STARTCHAR 04DE
ENCODING 1246
SWIDTH 523 0
DWIDTH 16 0
BBX 13 25 2 0
BITMAP
30E0
78E0
78E0
30E0
0000
0000
CF80
FFE0
F0E0
E070
E070
E030
C070
00E0
1FC0
1FE0
00F0
0030
0038
C038
C038
E030
F0F0
7FE0
1F80
ENDCHAR
STARTCHAR 04DF
ENCODING 1247
SWIDTH 523 0
DWIDTH 16 0
BBX 12 19 2 0
BITMAP
30E0
78E0
79E0
30E0
0000
FF80
FFE0
E0F0
C070
0070
1FE0
1FE0
00F0
0070
C030
C070
E0F0
7FE0
3F80
ENDCHAR
STARTCHAR 04E0
ENCODING 1248
SWIDTH 523 0
DWIDTH 16 0
BBX 14 19 1 0
BITMAP
FFFC
FFFC
E038
E070
E0F0
E1E0
03C0
0780
0FE0
0FF0
0078
001C
001C
001C
E01C
E01C
7078
7FF0
1FC0
ENDCHAR
STARTCHAR 04E1
ENCODING 1249
SWIDTH 523 0
DWIDTH 16 0
BBX 13 21 2 -7
BITMAP
FFF8
FFF8
C070
C0E0
C1C0
0380
0700
0F00
1FC0
1FE0
00F0
0070
0038
0038
0038
C038
C030
C070
E0E0
7FC0
1F80
ENDCHAR
STARTCHAR 04E2
ENCODING 1250
SWIDTH 523 0
DWIDTH 16 0
BBX 15 24 1 0
BITMAP
FFFC
FFFC
0000
0000
0000
F87E
F87E
7018
7038
7078
70D8
70D8
7198
7198
7318
7718
7618
7C18
7C18
7818
7018
7018
F87E
F87E
ENDCHAR
STARTCHAR 04E3
ENCODING 1251
SWIDTH 523 0
DWIDTH 16 0
BBX 16 19 0 0
BITMAP
3FFE
3FFE
0000
0000
0000
FF7F
FF7F
1818
1838
1878
18F8
19D8
1B98
1B18
1E18
1C18
1818
FF7F
FF7F
ENDCHAR
STARTCHAR 04E4
ENCODING 1252
SWIDTH 523 0
DWIDTH 16 0
BBX 15 25 1 0
BITMAP
1870
3C70
3CF0
1860
0000
0000
F87E
F87E
7018
7038
7078
70D8
70D8
7198
7198
7318
7718
7618
7C18
7C18
7818
7018
7018
F87E
F87E
ENDCHAR
STARTCHAR 04E5
ENCODING 1253
SWIDTH 523 0
DWIDTH 16 0
BBX 16 19 0 0
BITMAP
0C38
1E38
1E78
0C38
0000
FF7F
FF7F
1818
1838
1878
18F8
19D8
1B98
1B18
1E18
1C18
1818
FF7F
FF7F
ENDCHAR
STARTCHAR 04E6
ENCODING 1254
SWIDTH 523 0
DWIDTH 16 0
BBX 13 25 2 0
BITMAP
30E0
78E0
79E0
30E0
0000
0000
3FC0
7FF0
E070
E070
E030
C030
C030
C030
C030
C038
C030
C030
C030
C030
E030
E070
F070
7FF0
3FC0
ENDCHAR
STARTCHAR 04E7
ENCODING 1255
SWIDTH 523 0
DWIDTH 16 0
BBX 13 19 2 0
BITMAP
30E0
78E0
79E0
30E0
0000
1F80
3FC0
70E0
E070
E030
C038
C038
C038
C038
E030
E070
70E0
3FC0
1F80
ENDCHAR
STARTCHAR 04E8
ENCODING 1256
SWIDTH 523 0
DWIDTH 16 0
BBX 12 19 2 0
BITMAP
3FC0
7FF0
E070
E070
E030
C030
C030
C030
FFF0
FFF0
C030
C030
C030
C030
E030
E070
F070
7FF0
3FC0
ENDCHAR
STARTCHAR 04E9
ENCODING 1257
SWIDTH 523 0
DWIDTH 16 0
BBX 13 14 2 0
BITMAP
1F80
3FE0
70E0
E070
E030
FFF8
FFF8
C038
C038
E070
E070
70E0
3FC0
1F80
ENDCHAR
STARTCHAR 04EA
ENCODING 1258
SWIDTH 523 0
DWIDTH 16 0
BBX 12 25 2 0
BITMAP
30E0
78E0
79E0
30E0
0000
0000
3FC0
7FF0
E070
E070
E030
C030
C030
C030
FFF0
FFF0
C030
C030
C030
C030
E030
E070
F070
7FF0
3FC0
ENDCHAR
STARTCHAR 04EB
ENCODING 1259
SWIDTH 523 0
DWIDTH 16 0
BBX 13 19 2 0
BITMAP
30E0
78E0
79E0
30E0
0000
1F80
3FE0
70E0
E070
E030
FFF8
FFF8
C038
C038
E070
E070
70E0
3FC0
1F80
ENDCHAR
STARTCHAR 04EC
ENCODING 1260
SWIDTH 523 0
DWIDTH 16 0
BBX 14 25 1 0
BITMAP
3860
38F0
38F0
38E0
0000
0000
CF80
FFE0
F0F0
E038
E038
E01C
001C
001C
1FFC
1FFC
001C
001C
001C
E038
E038
6070
70F0
3FE0
0F80
ENDCHAR
STARTCHAR 04ED
ENCODING 1261
SWIDTH 523 0
DWIDTH 16 0
BBX 12 19 2 0
BITMAP
30E0
78E0
79E0
30E0
0000
DF00
FFC0
F1E0
E070
C070
0FF0
0FF0
0030
0070
0070
C0E0
E1E0
7FC0
3F00
ENDCHAR
STARTCHAR 04EE
ENCODING 1262
SWIDTH 523 0
DWIDTH 16 0
BBX 14 24 1 0
BITMAP
FFFC
FFFC
0000
0000
0000
FC7C
FC7C
3838
3830
1870
1C70
0C60
0EE0
0EE0
06C0
07C0
03C0
0380
0380
1380
3B00
3F00
1E00
1C00
ENDCHAR
STARTCHAR 04EF
ENCODING 1263
SWIDTH 523 0
DWIDTH 16 0
BBX 14 26 1 -7
BITMAP
7FFC
7FFC
0000
0000
0000
FCFC
FCFC
3830
1830
1870
1C60
0C60
0CE0
0EC0
06C0
06C0
0380
0380
0380
0300
0300
0300
6600
EE00
FC00
7800
ENDCHAR
STARTCHAR 04F0
ENCODING 1264
SWIDTH 523 0
DWIDTH 16 0
BBX 14 25 1 0
BITMAP
1860
3CF0
3CF0
1860
0000
0000
FC7C
FC7C
3838
3830
1870
1C70
0C60
0EE0
0EE0
06C0
07C0
03C0
0380
0380
1380
3B00
3F00
1E00
1C00
ENDCHAR
STARTCHAR 04F1
ENCODING 1265
SWIDTH 523 0
DWIDTH 16 0
BBX 14 26 1 -7
BITMAP
1870
3C70
3CF0
1860
0000
FCFC
FCFC
3830
1830
1870
1C60
0C60
0CE0
0EC0
06C0
06C0
0380
0380
0380
0300
0300
0300
6600
EE00
FC00
7800
ENDCHAR
STARTCHAR 04F2
ENCODING 1266
SWIDTH 523 0
DWIDTH 16 0
BBX 15 25 1 0
BITMAP
0008
0F7E
3FFE
3C70
0000
0000
FC7C
FC7C
3838
3830
1870
1C70
0C60
0EE0
0EE0
06C0
07C0
03C0
0380
0380
1380
3B00
3F00
1E00
1C00
ENDCHAR
STARTCHAR 04F3
ENCODING 1267
SWIDTH 523 0
DWIDTH 16 0
BBX 15 26 1 -7
BITMAP
0FBE
3FFE
1860
0000
0000
FCFC
FCFC
3830
1830
1870
1C60
0C60
0CE0
0EC0
06C0
06C0
0380
0380
0380
0300
0300
0300
6600
EE00
FC00
7800
ENDCHAR
STARTCHAR 04F4
ENCODING 1268
SWIDTH 523 0
DWIDTH 16 0
BBX 15 25 1 0
BITMAP
1870
3C70
3CF0
1860
0000
0000
FCFE
FCFE
7038
7038
7038
7038
7038
3038
3838
3FF8
0FF8
0038
0038
0038
0038
0038
0038
00FE
00FE
ENDCHAR
STARTCHAR 04F5
ENCODING 1269
SWIDTH 523 0
DWIDTH 16 0
BBX 16 19 0 0
BITMAP
0C38
1E38
1E78
0C38
0000
FF7F
FF7F
1818
1818
1818
1818
1C18
0FF8
07F8
0018
0018
0018
007F
007F
ENDCHAR
STARTCHAR 04F6
ENCODING 1270
SWIDTH 523 0
DWIDTH 16 0
BBX 14 24 1 -5
BITMAP
FFFC
FFFC
1C1C
1C1C
1C1C
1C00
1C00
1C00
1C00
1C00
1C00
1C00
1C00
1C00
1C00
1C00
1C00
FFC0
FFC0
00C0
00C0
00C0
00C0
00C0
ENDCHAR
STARTCHAR 04F7
ENCODING 1271
SWIDTH 523 0
DWIDTH 16 0
BBX 14 18 1 -4
BITMAP
FFF8
FFFC
1C1C
1C18
1C00
1C00
1C00
1C00
1C00
1C00
1C00
1C00
FFC0
FFC0
00C0
00C0
00C0
00C0
ENDCHAR
STARTCHAR 04F8
ENCODING 1272
SWIDTH 523 0
DWIDTH 16 0
BBX 16 25 0 0
BITMAP
0C30
1E78
1E78
0C30
0000
0000
FC3F
FC3F
380C
380C
380C
380C
380C
380C
3F8C
3FCC
38EC
38EC
38EC
38EC
38EC
38EC
38EC
FFFF
FFBF
ENDCHAR
STARTCHAR 04F9
ENCODING 1273
SWIDTH 523 0
DWIDTH 16 0
BBX 16 19 0 0
BITMAP
0C38
1E78
1E78
0C30
0000
FC3F
FC3F
300C
300C
300C
3F8C
3FCC
31CC
30CC
30CC
30CC
31CC
FFFF
FFBF
ENDCHAR
STARTCHAR 04FC
ENCODING 1276
SWIDTH 523 0
DWIDTH 16 0
BBX 13 26 1 -7
BITMAP
FDF8
FDF8
18E0
1CE0
0DC0
0FC0
0780
0780
0300
0780
0780
0FC0
0FC0
0CE0
1CE0
1870
3870
FC38
FC38
0018
0018
0018
0038
0638
07F0
03E0
ENDCHAR
STARTCHAR 04FD
ENCODING 1277
SWIDTH 523 0
DWIDTH 16 0
BBX 14 21 1 -7
BITMAP
FCFC
FDFC
1CE0
0CC0
0FC0
0780
0300
0380
0780
0CC0
0CE0
1870
FC30
FC38
0018
0018
0018
0018
01B8
01F0
00E0
ENDCHAR
STARTCHAR 04FE
ENCODING 1278
SWIDTH 523 0
DWIDTH 16 0
BBX 16 19 0 0
BITMAP
7EFC
7EFC
0C70
0E70
0EE0
07E0
07C0
03C0
FFFF
FFFF
03C0
07E0
07E0
0670
0E70
0C30
1C38
7E7E
7E7E
ENDCHAR
STARTCHAR 04FF
ENCODING 1279
SWIDTH 523 0
DWIDTH 16 0
BBX 14 14 1 0
BITMAP
FDFC
FDFC
1CE0
0CC0
0780
FFFC
FFFC
0780
0780
0CC0
1CE0
1860
FCFC
FCFC
ENDCHAR
STARTCHAR 2000
ENCODING 8192
SWIDTH 458 0
DWIDTH 14 0
BBX 0 0 0 0
BITMAP
ENDCHAR
STARTCHAR 2001
ENCODING 8193
SWIDTH 523 0
DWIDTH 16 0
BBX 0 0 0 0
BITMAP
ENDCHAR
STARTCHAR 2002
ENCODING 8194
SWIDTH 458 0
DWIDTH 14 0
BBX 0 0 0 0
BITMAP
ENDCHAR
STARTCHAR 2003
ENCODING 8195
SWIDTH 523 0
DWIDTH 16 0
BBX 0 0 0 0
BITMAP
ENDCHAR
STARTCHAR 2004
ENCODING 8196
SWIDTH 294 0
DWIDTH 9 0
BBX 0 0 0 0
BITMAP
ENDCHAR
STARTCHAR 2005
ENCODING 8197
SWIDTH 229 0
DWIDTH 7 0
BBX 0 0 0 0
BITMAP
ENDCHAR
STARTCHAR 2006
ENCODING 8198
SWIDTH 163 0
DWIDTH 5 0
BBX 0 0 0 0
BITMAP
ENDCHAR
STARTCHAR 2007
ENCODING 8199
SWIDTH 523 0
DWIDTH 16 0
BBX 0 0 0 0
BITMAP
ENDCHAR
STARTCHAR 2008
ENCODING 8200
SWIDTH 523 0
DWIDTH 16 0
BBX 0 0 0 0
BITMAP
ENDCHAR
STARTCHAR 2009
ENCODING 8201
SWIDTH 196 0
DWIDTH 6 0
BBX 0 0 0 0
BITMAP
ENDCHAR
STARTCHAR 200A
ENCODING 8202
SWIDTH 65 0
DWIDTH 2 0
BBX 0 0 0 0
BITMAP
ENDCHAR
STARTCHAR 2010
ENCODING 8208
SWIDTH 523 0
DWIDTH 16 0
BBX 10 2 3 6
BITMAP
FFC0
FFC0
ENDCHAR
STARTCHAR 2011
ENCODING 8209
SWIDTH 523 0
DWIDTH 16 0
BBX 10 2 3 6
BITMAP
FFC0
FFC0
ENDCHAR
STARTCHAR 2012
ENCODING 8210
SWIDTH 523 0
DWIDTH 16 0
BBX 10 2 3 6
BITMAP
FFC0
FFC0
ENDCHAR
STARTCHAR 2013
ENCODING 8211
SWIDTH 523 0
DWIDTH 16 0
BBX 10 2 3 6
BITMAP
FFC0
FFC0
ENDCHAR
STARTCHAR 2014
ENCODING 8212
SWIDTH 523 0
DWIDTH 16 0
BBX 10 2 3 6
BITMAP
FFC0
FFC0
ENDCHAR
STARTCHAR 2016
ENCODING 8214
SWIDTH 523 0
DWIDTH 16 0
BBX 8 25 4 -3
BITMAP
02
E7
E7
E7
E7
E7
E7
E7
E7
E7
E7
E7
E7
E7
E7
E7
E7
E7
E7
E7
E7
E7
E7
E7
42
ENDCHAR
STARTCHAR 2018
ENCODING 8216
SWIDTH 523 0
DWIDTH 16 0
BBX 6 12 5 10
BITMAP
18
3C
78
70
E0
E0
C0
F8
F8
F8
78
78
ENDCHAR
STARTCHAR 2019
ENCODING 8217
SWIDTH 523 0
DWIDTH 16 0
BBX 6 11 5 7
BITMAP
38
7C
7C
7C
3C
0C
0C
1C
38
70
E0
ENDCHAR
STARTCHAR 201A
ENCODING 8218
SWIDTH 523 0
DWIDTH 16 0
BBX 5 9 6 -4
BITMAP
60
F0
F8
F8
78
38
70
F0
E0
ENDCHAR
STARTCHAR 201B
ENCODING 8219
SWIDTH 523 0
DWIDTH 16 0
BBX 6 11 5 7
BITMAP
38
7C
7C
FC
F8
E0
60
70
78
3C
1C
ENDCHAR
STARTCHAR 201C
ENCODING 8220
SWIDTH 523 0
DWIDTH 16 0
BBX 16 8 0 10
BITMAP
3807
700E
E01C
F01E
F81F
F81F
F81F
700E
ENDCHAR
STARTCHAR 201D
ENCODING 8221
SWIDTH 523 0
DWIDTH 16 0
BBX 16 8 0 10
BITMAP
700E
781F
FC1F
7C1F
780F
1803
700E
601C
ENDCHAR
STARTCHAR 201E
ENCODING 8222
SWIDTH 523 0
DWIDTH 16 0
BBX 16 9 0 -4
BITMAP
3004
781F
F81F
7C1F
7C0F
1803
3807
701E
601C
ENDCHAR
STARTCHAR 201F
ENCODING 8223
SWIDTH 523 0
DWIDTH 16 0
BBX 16 8 0 10
BITMAP
3807
780F
7C1F
F81F
F81E
600C
380F
1803
ENDCHAR
STARTCHAR 2020
ENCODING 8224
SWIDTH 523 0
DWIDTH 16 0
BBX 12 27 2 -8
BITMAP
0600
0600
0600
0600
FFF0
FFF0
FFF0
0600
0600
0600
0600
0600
0600
0600
0600
0600
0600
0600
0600
0600
0600
0600
0600
0600
0600
0600
0200
ENDCHAR
STARTCHAR 2021
ENCODING 8225
SWIDTH 523 0
DWIDTH 16 0
BBX 12 26 2 -7
BITMAP
0600
0600
0600
0600
0600
0600
FFF0
FFF0
FFF0
0600
0600
0600
0600
0600
0600
0600
0600
0600
0600
FFF0
FFF0
FFF0
0600
0600
0600
0600
ENDCHAR
STARTCHAR 2022
ENCODING 8226
SWIDTH 523 0
DWIDTH 16 0
BBX 12 13 2 3
BITMAP
1F80
3FC0
7FE0
FFF0
FFF0
FFF0
FFF0
FFF0
FFF0
FFF0
7FE0
3FC0
1F80
ENDCHAR
STARTCHAR 2026
ENCODING 8230
SWIDTH 523 0
DWIDTH 16 0
BBX 14 5 1 0
BITMAP
2310
F7BC
FFFC
FFBC
73B8
ENDCHAR
STARTCHAR 2029
ENCODING 8233
SWIDTH 523 0
DWIDTH 16 0
BBX 13 24 2 -6
BITMAP
0FF8
3FF8
7FF8
7FC0
FFC0
FFC0
FFC0
FFC0
FFC0
7FC0
7FC0
1FC0
07C0
00C0
00C0
00C0
00C0
00C0
00C0
00C0
00C0
07E0
07F8
07F8
ENDCHAR
STARTCHAR 202F
ENCODING 8239
SWIDTH 196 0
DWIDTH 6 0
BBX 0 0 0 0
BITMAP
ENDCHAR
STARTCHAR 2030
ENCODING 8240
SWIDTH 523 0
DWIDTH 16 0
BBX 14 24 1 -2
BITMAP
6180
E300
F300
F300
F600
F600
E600
6600
0C00
0C00
0C00
1800
1800
1800
1800
3000
319C
33DC
63DC
63DC
63DC
63DC
E3DC
419C
ENDCHAR
STARTCHAR 2031
ENCODING 8241
SWIDTH 523 0
DWIDTH 16 0
BBX 15 24 1 -2
BITMAP
C600
CE00
EE00
EE00
EC00
CC00
DC00
DC00
1C00
1800
3800
3800
3800
3000
3000
7000
764C
76EC
6EEE
EEEE
EEEE
EEEE
C6EC
C64C
ENDCHAR
STARTCHAR 2039
ENCODING 8249
SWIDTH 523 0
DWIDTH 16 0
BBX 10 12 2 0
BITMAP
01C0
03C0
0700
1E00
3C00
7000
E000
7800
3C00
0E00
0780
03C0
ENDCHAR
STARTCHAR 203A
ENCODING 8250
SWIDTH 523 0
DWIDTH 16 0
BBX 10 13 4 0
BITMAP
E000
7000
3C00
1E00
0700
03C0
01C0
0380
0F00
1E00
3800
F000
2000
ENDCHAR
STARTCHAR 203B
ENCODING 8251
SWIDTH 523 0
DWIDTH 16 0
BBX 14 15 1 1
BITMAP
E78C
E79C
77B8
3870
1CE0
4FE8
E7DC
F79C
EFDC
1FE0
3CF0
7B78
F7BC
E79C
C30C
ENDCHAR
STARTCHAR 203D
ENCODING 8253
SWIDTH 523 0
DWIDTH 16 0
BBX 12 18 2 1
BITMAP
0F00
3FC0
7FE0
FFF0
EF70
CF70
0FE0
0780
0F00
0F00
0E00
0000
0000
0000
0600
0F00
0F00
0600
ENDCHAR
STARTCHAR 203F
ENCODING 8255
SWIDTH 523 0
DWIDTH 16 0
BBX 16 7 0 -7
BITMAP
C003
E007
700E
3C1E
3FFC
0FF8
07E0
ENDCHAR
STARTCHAR 2040
ENCODING 8256
SWIDTH 523 0
DWIDTH 16 0
BBX 11 7 3 15
BITMAP
1F00
7F80
FFC0
E1C0
E0E0
C0E0
C0E0
ENDCHAR
STARTCHAR 2044
ENCODING 8260
SWIDTH 523 0
DWIDTH 16 0
BBX 12 22 2 0
BITMAP
0030
0060
0060
00C0
00C0
01C0
0180
0180
0300
0300
0600
0600
0C00
0C00
1800
1800
3000
3000
6000
6000
E000
C000
ENDCHAR
STARTCHAR 2045
ENCODING 8261
SWIDTH 523 0
DWIDTH 16 0
BBX 9 25 4 -3
BITMAP
1F00
7F80
7F00
E000
E000
E000
E000
E000
E000
E000
7000
7F00
3F80
7F00
7000
E000
E000
E000
E000
E000
E000
F000
7F00
3F80
1F00
ENDCHAR
STARTCHAR 2046
ENCODING 8262
SWIDTH 523 0
DWIDTH 16 0
BBX 8 25 4 -3
BITMAP
F8
FE
FF
07
07
07
07
07
07
07
0F
FE
FC
FE
0F
07
07
07
07
07
07
07
FF
FE
F8
ENDCHAR
STARTCHAR 2052
ENCODING 8274
SWIDTH 523 0
DWIDTH 16 0
BBX 12 20 2 2
BITMAP
0030
1C60
3C60
3CC0
1CC0
0180
0180
0300
0300
0600
0E00
0C00
1C00
1800
3000
3180
63C0
63C0
C180
C000
ENDCHAR
STARTCHAR 2054
ENCODING 8276
SWIDTH 523 0
DWIDTH 16 0
BBX 16 7 0 -9
BITMAP
07E0
0FF8
3FFC
3C1E
700F
E007
C003
ENDCHAR
STARTCHAR 205F
ENCODING 8287
SWIDTH 229 0
DWIDTH 7 0
BBX 0 0 0 0
BITMAP
ENDCHAR
STARTCHAR 20A1
ENCODING 8353
SWIDTH 523 0
DWIDTH 16 0
BBX 14 23 1 -3
BITMAP
0180
07CC
1FFC
3FFC
39BC
719C
719C
618C
E180
E180
E180
E180
E180
E180
618C
719C
719C
3DB8
1FF8
0FF0
0180
0180
0180
ENDCHAR
STARTCHAR 20A4
ENCODING 8356
SWIDTH 523 0
DWIDTH 16 0
BBX 15 19 1 0
BITMAP
01F0
03F8
07F8
071C
061C
061C
0600
0600
0600
3FC0
3FE0
3FC0
3FC0
3FE0
3FC0
7E0E
FFFC
FFFC
78F8
ENDCHAR
STARTCHAR 20A6
ENCODING 8358
SWIDTH 523 0
DWIDTH 16 0
BBX 18 17 -1 1
BITMAP
3F1F00
3F3F00
3F1F00
0F8C00
0D8C00
0D8C00
FFFFC0
FFFFC0
FFFFC0
0CCC00
0C6C00
FFFFC0
FFFFC0
FFFFC0
3F3C00
3F3C00
3F1C00
ENDCHAR
STARTCHAR 20A9
ENCODING 8361
SWIDTH 523 0
DWIDTH 16 0
BBX 16 18 0 0
BITMAP
781F
FC1F
781F
300E
300C
300C
FFFF
FFFF
FFFF
1BCC
1BDC
1BD8
FFFF
FFFF
FFFF
1E78
0E78
0E30
ENDCHAR
STARTCHAR 20AB
ENCODING 8363
SWIDTH 523 0
DWIDTH 16 0
BBX 15 24 1 -2
BITMAP
01F0
01F0
01F0
0030
0030
1FFE
1FFE
1FFE
0030
1FB0
3FF0
7FF0
F030
E030
E030
E030
F070
7FFE
3FFE
1F3E
0000
FFFE
FFFE
FFFE
ENDCHAR
STARTCHAR 20AC
ENCODING 8364
SWIDTH 523 0
DWIDTH 16 0
BBX 15 18 0 1
BITMAP
01F0
07FC
1FFE
1E0E
3806
3000
FFFC
FFFC
7000
7000
FFF8
FFF8
3000
3802
1E0E
1FFE
07FC
03F0
ENDCHAR
STARTCHAR 20B2
ENCODING 8370
SWIDTH 523 0
DWIDTH 16 0
BBX 14 22 1 -1
BITMAP
0300
0300
0FD8
1FF8
3F78
7338
7338
6338
E300
E300
E300
E300
E3FC
E3FC
E3FC
6338
7338
7B78
3F78
1FF8
0FF8
0300
ENDCHAR
STARTCHAR 2122
ENCODING 8482
SWIDTH 523 0
DWIDTH 16 0
BBX 16 11 0 11
BITMAP
FF00
FFE3
FFE7
18F7
18FF
18FF
18FF
18EB
18E3
18E3
18E3
ENDCHAR
STARTCHAR 2206
ENCODING 8710
SWIDTH 523 0
DWIDTH 16 0
BBX 14 20 1 0
BITMAP
0780
0780
0780
0FC0
0FC0
0CC0
0CE0
1CE0
1C60
1860
3870
3870
3830
3038
7038
7038
6018
7FFC
FFFC
FFFC
ENDCHAR
STARTCHAR 221A
ENCODING 8730
SWIDTH 523 0
DWIDTH 16 0
BBX 19 20 0 1
BITMAP
0007C0
000FE0
000FC0
000C00
001C00
001800
003800
003800
003000
307000
706000
F8E000
F8E000
D8C000
1DC000
1D8000
0F8000
0F8000
0F0000
070000
ENDCHAR
STARTCHAR E000
ENCODING 57344
SWIDTH 458 0
DWIDTH 14 0
BBX 14 14 0 0
BITMAP
FFFC
FFFC
FFFC
FFFC
FFFC
FFFC
FFFC
FFFC
FFFC
FFFC
FFFC
FFFC
FFFC
FFFC
ENDCHAR
STARTCHAR FB00
ENCODING 64256
SWIDTH 523 0
DWIDTH 16 0
BBX 18 18 0 1
BITMAP
03F780
0FFFC0
1FFF80
1C3800
183800
183800
7F3F00
7F3F00
7F3F00
183800
183800
183800
183800
183800
183800
FEFF00
FEFF00
FEFF00
ENDCHAR
STARTCHAR FB01
ENCODING 64257
SWIDTH 523 0
DWIDTH 16 0
BBX 16 18 0 1
BITMAP
03F0
0FF8
1FF8
1C18
1800
1800
7FF8
7FF8
7FF8
1818
1818
1818
1818
1818
1818
FF7F
FFFF
FF7F
ENDCHAR
STARTCHAR FB02
ENCODING 64258
SWIDTH 523 0
DWIDTH 16 0
BBX 16 18 0 1
BITMAP
03F8
0FF8
1FF8
1C18
1818
1818
7FF8
7FF8
7FF8
1818
1818
1818
1818
1818
1818
FF7F
FF7F
FE7F
ENDCHAR
STARTCHAR FB03
ENCODING 64259
SWIDTH 523 0
DWIDTH 16 0
BBX 17 18 0 1
BITMAP
0F3C00
1FFE00
3FFE00
31C000
718000
718000
7FFE00
7FFE00
7FFE00
718E00
718E00
718E00
718E00
718E00
718E00
FBDF00
FBFF80
FBDF00
ENDCHAR
STARTCHAR FB04
ENCODING 64260
SWIDTH 523 0
DWIDTH 16 0
BBX 17 18 0 1
BITMAP
0F3E00
1FFE00
3FFE00
31CE00
718E00
718E00
7FFE00
7FFE00
7FFE00
718E00
718E00
718E00
718E00
718E00
718E00
FBDF00
FBFF80
FBDF00
ENDCHAR
ENDFONT
